<svg width="24" height="24" viewBox="0 0 24 24" fill="none" xmlns="http://www.w3.org/2000/svg">
<g clip-path="url(#clip0_3_277)">
<path d="M9.1501 18.8746C9.1501 16.4148 7.16035 14.425 4.70054 14.425C2.24579 14.425 0.250977 16.4148 0.250977 18.8746C0.250977 21.3294 2.24579 23.3216 4.70054 23.3216C7.16035 23.3217 9.1501 21.3294 9.1501 18.8746ZM1.68085 18.8746C1.68085 17.2047 3.03329 15.8525 4.70054 15.8525C6.37041 15.8525 7.72266 17.2049 7.72266 18.8746C7.72266 20.5419 6.37023 21.8943 4.70054 21.8943C3.03329 21.8943 1.68085 20.542 1.68085 18.8746Z" fill="#BFBFBF"/>
<path opacity="0.1" d="M4.70087 14.425C4.55331 14.425 4.40837 14.4325 4.26587 14.4451C6.52056 14.665 8.28043 16.5624 8.28043 18.8746C8.28043 21.1818 6.52056 23.0817 4.26587 23.3017C4.40837 23.3142 4.55331 23.3217 4.70087 23.3217C7.16068 23.3217 9.15043 21.3294 9.15043 18.8748C9.15024 16.4148 7.16049 14.425 4.70087 14.425Z" fill="black"/>
<path opacity="0.4" d="M1.12049 18.8746C1.12049 16.5624 2.88524 14.665 5.13505 14.4451C4.99255 14.4325 4.84761 14.425 4.70005 14.425C2.2453 14.425 0.250488 16.4148 0.250488 18.8746C0.250488 21.3294 2.2453 23.3216 4.70005 23.3216C4.84761 23.3216 4.99255 23.3141 5.13505 23.3015C2.88543 23.0817 1.12049 21.1818 1.12049 18.8746Z" fill="white"/>
<path d="M5.8618 16.4004H3.53961C3.25461 16.4004 3.04724 16.1328 3.11717 15.8579L3.54205 14.2006C3.59211 14.008 3.76705 13.873 3.96449 13.873H5.43692C5.63436 13.873 5.8093 14.008 5.85936 14.2006L6.28424 15.8579C6.35436 16.133 6.1468 16.4004 5.8618 16.4004Z" fill="#F0F7FF"/>
<path opacity="0.1" d="M5.86048 16.3998H4.92317C5.20817 16.3998 5.41573 16.1322 5.3456 15.8574L4.92073 14.2001C4.87067 14.0075 4.69573 13.8727 4.49829 13.8727H5.4356C5.63304 13.8727 5.80798 14.0077 5.85804 14.2001L6.28292 15.8574C6.35304 16.1324 6.14548 16.3998 5.86048 16.3998Z" fill="black"/>
<path opacity="0.4" d="M4.9015 13.8727C4.70406 13.8727 4.52912 14.0077 4.47906 14.2001L4.054 15.8574C3.98406 16.1322 4.19144 16.3998 4.47644 16.3998H3.53912C3.25412 16.3998 3.04675 16.1322 3.11669 15.8574L3.54175 14.2001C3.59181 14.0075 3.76675 13.8727 3.96419 13.8727H4.9015Z" fill="white"/>
<path d="M23.7492 15.6297C23.7492 13.1699 21.7595 11.1802 19.2997 11.1802C16.8449 11.1802 14.8501 13.1699 14.8501 15.6297C14.8501 18.0845 16.8449 20.0767 19.2997 20.0767C21.7595 20.0767 23.7492 18.0845 23.7492 15.6297ZM16.2802 15.6297C16.2802 13.9599 17.6326 12.6076 19.2998 12.6076C20.9697 12.6076 22.322 13.9601 22.322 15.6297C22.322 17.297 20.9695 18.6494 19.2998 18.6494C17.6324 18.6494 16.2802 17.297 16.2802 15.6297Z" fill="#BFBFBF"/>
<path opacity="0.1" d="M19.3005 11.1813C19.1529 11.1813 19.008 11.1888 18.8655 11.2013C21.1202 11.4213 22.88 13.3186 22.88 15.6308C22.88 17.938 21.1202 19.838 18.8655 20.0579C19.008 20.0705 19.1529 20.078 19.3005 20.078C21.7603 20.078 23.75 18.0856 23.75 15.631C23.75 13.171 21.7603 11.1813 19.3005 11.1813Z" fill="black"/>
<path opacity="0.4" d="M15.7201 15.6308C15.7201 13.3186 17.4848 11.4213 19.7347 11.2013C19.5922 11.1888 19.4472 11.1813 19.2997 11.1813C16.8449 11.1813 14.8501 13.171 14.8501 15.6308C14.8501 18.0856 16.8449 20.0778 19.2997 20.0778C19.4472 20.0778 19.5922 20.0703 19.7347 20.0577C17.485 19.838 15.7201 17.938 15.7201 15.6308Z" fill="white"/>
<path d="M20.4611 13.1555H18.1387C17.8537 13.1555 17.6464 12.8879 17.7163 12.613L18.1412 10.9557C18.1912 10.7632 18.3662 10.6282 18.5636 10.6282H20.036C20.2335 10.6282 20.4084 10.7632 20.4585 10.9557L20.8834 12.613C20.9535 12.8881 20.7461 13.1555 20.4611 13.1555Z" fill="#F0F7FF"/>
<path opacity="0.1" d="M20.4603 13.156H19.523C19.808 13.156 20.0156 12.8885 19.9455 12.6136L19.5206 10.9563C19.4705 10.7637 19.2956 10.6289 19.0981 10.6289H20.0355C20.2329 10.6289 20.4078 10.7639 20.4579 10.9563L20.8828 12.6136C20.9527 12.8887 20.7453 13.156 20.4603 13.156Z" fill="black"/>
<path opacity="0.4" d="M19.5011 10.6289C19.3037 10.6289 19.1287 10.7639 19.0787 10.9563L18.6536 12.6136C18.5837 12.8885 18.791 13.156 19.076 13.156H18.1387C17.8537 13.156 17.6464 12.8885 17.7163 12.6136L18.1414 10.9563C18.1914 10.7637 18.3664 10.6289 18.5638 10.6289H19.5011Z" fill="white"/>
<path d="M20.2377 8.50225C20.2377 9.02106 19.8181 9.44068 19.3007 9.44068C18.7819 9.44068 18.3623 9.02106 18.3623 8.50225C18.3623 7.98493 18.7819 7.56531 19.3007 7.56531C19.8181 7.56531 20.2377 7.98493 20.2377 8.50225Z" fill="white"/>
<path d="M19.5783 5.81792C19.5783 6.33673 19.1586 6.75636 18.6413 6.75636C18.1225 6.75636 17.7029 6.33673 17.7029 5.81792C17.7029 5.30061 18.1225 4.88098 18.6413 4.88098C19.1586 4.88079 19.5783 5.30061 19.5783 5.81792Z" fill="white"/>
<path d="M17.9205 3.55437C17.9205 4.07318 17.5009 4.49281 16.9836 4.49281C16.4648 4.49281 16.0452 4.07318 16.0452 3.55437C16.0452 3.03706 16.4648 2.61743 16.9836 2.61743C17.5009 2.61724 17.9205 3.03706 17.9205 3.55437Z" fill="white"/>
<path d="M15.4472 2.02812C15.4472 2.54694 15.0275 2.96656 14.5102 2.96656C13.9914 2.96656 13.5718 2.54694 13.5718 2.02812C13.5718 1.51081 13.9914 1.09119 14.5102 1.09119C15.0275 1.09119 15.4472 1.51081 15.4472 2.02812Z" fill="white"/>
<path d="M12.6185 1.61431C12.6185 2.13312 12.1989 2.55274 11.6816 2.55274C11.1628 2.55274 10.7432 2.13312 10.7432 1.61431C10.7432 1.09699 11.1628 0.677368 11.6816 0.677368C12.1989 0.677368 12.6185 1.09699 12.6185 1.61431Z" fill="white"/>
<path d="M9.80311 2.21953C9.80311 2.73834 9.38348 3.15797 8.86617 3.15797C8.34736 3.15797 7.92773 2.73834 7.92773 2.21953C7.92773 1.70222 8.34736 1.28259 8.86617 1.28259C9.38348 1.28241 9.80311 1.70203 9.80311 2.21953Z" fill="white"/>
<path d="M7.46107 4.0949C7.46107 4.61371 7.04144 5.03333 6.52413 5.03333C6.00532 5.03333 5.58569 4.61371 5.58569 4.0949C5.58569 3.57758 6.00532 3.15796 6.52413 3.15796C7.04144 3.15796 7.46107 3.57758 7.46107 4.0949Z" fill="white"/>
<path d="M6.05335 6.55571C6.05335 7.07452 5.63373 7.49415 5.11642 7.49415C4.5976 7.49415 4.17798 7.07452 4.17798 6.55571C4.17798 6.0384 4.5976 5.61877 5.11642 5.61877C5.63373 5.61877 6.05335 6.0384 6.05335 6.55571Z" fill="white"/>
<path d="M5.63856 9.26604C5.63856 9.78485 5.21893 10.2045 4.70162 10.2045C4.18281 10.2045 3.76318 9.78485 3.76318 9.26604C3.76318 8.74873 4.18281 8.3291 4.70162 8.3291C5.21893 8.32891 5.63856 8.74854 5.63856 9.26604Z" fill="white"/>
<path d="M5.57264 11.9236C5.57264 12.4424 5.15302 12.8621 4.6357 12.8621C4.11689 12.8621 3.69727 12.4424 3.69727 11.9236C3.69727 11.4063 4.11689 10.9867 4.6357 10.9867C5.15302 10.9865 5.57264 11.4061 5.57264 11.9236Z" fill="white"/>
<path d="M4.6995 23.5726C7.29169 23.5726 9.399 21.4653 9.399 18.8756C9.399 16.7986 8.043 15.0331 6.17231 14.4146L6.10125 14.1378C6.02231 13.8348 5.74931 13.6231 5.43694 13.6231H4.95187V13.0635C5.45231 12.9238 5.82263 12.4681 5.82263 11.9235C5.82263 11.3793 5.45231 10.9243 4.95187 10.7848V10.4265C5.48625 10.3108 5.88825 9.83489 5.88825 9.26583C5.88825 8.71645 5.51119 8.25726 5.00363 8.12264C5.01844 7.99326 5.03644 7.8652 5.05819 7.73808C5.07787 7.73901 5.09644 7.74389 5.1165 7.74389C5.77106 7.74389 6.30338 7.21083 6.30338 6.55551C6.30338 6.15483 6.10256 5.80139 5.7975 5.58633C5.87288 5.44664 5.95256 5.30976 6.03675 5.17589C6.18581 5.24339 6.35006 5.28314 6.52425 5.28314C7.17881 5.28314 7.71112 4.75008 7.71112 4.09476C7.71112 3.86808 7.644 3.65826 7.53338 3.47789C7.70156 3.33876 7.87594 3.2077 8.05669 3.08451C8.26931 3.28345 8.55262 3.40776 8.86594 3.40776C9.5205 3.40776 10.0528 2.8747 10.0528 2.2192C10.0528 2.1952 10.0472 2.1727 10.0457 2.14908C10.2174 2.0992 10.3918 2.05645 10.5688 2.01951C10.7355 2.47476 11.169 2.80251 11.6812 2.80251C12.2289 2.80251 12.6868 2.42714 12.8231 1.92126C12.9922 1.94095 13.1593 1.96626 13.3245 1.99776C13.3243 2.00808 13.3215 2.01764 13.3215 2.02795C13.3215 2.68308 13.8546 3.21633 14.5101 3.21633C14.8836 3.21633 15.2132 3.03933 15.4309 2.76858C15.5934 2.85951 15.7521 2.95645 15.9066 3.05958C15.8368 3.21051 15.7952 3.37701 15.7952 3.55401C15.7952 4.20933 16.3283 4.74258 16.9836 4.74258C17.1896 4.74258 17.3809 4.68501 17.55 4.59201C17.6449 4.71201 17.7362 4.83464 17.8239 4.96008C17.5965 5.17645 17.4529 5.47983 17.4529 5.81751C17.4529 6.47264 17.9859 7.00589 18.6414 7.00589C18.6877 7.00589 18.7318 6.99745 18.777 6.9922C18.8149 7.12533 18.8492 7.25976 18.8794 7.39589C18.4322 7.56651 18.1123 7.99626 18.1123 8.50214C18.1123 9.07139 18.5152 9.54764 19.0507 9.66295V10.3781H18.5642C18.2518 10.3781 17.9786 10.5898 17.8995 10.8933L17.8286 11.1695C15.9555 11.7896 14.6012 13.5532 14.6012 15.6305C14.6012 18.2203 16.7085 20.3276 19.3007 20.3276C21.8904 20.3276 24.0002 18.2203 24.0002 15.6305C24.0002 13.5538 22.6446 11.7885 20.772 11.1699L20.7009 10.8926C20.622 10.5896 20.349 10.3779 20.0364 10.3779H19.5506V9.66276C20.0854 9.54745 20.4877 9.0712 20.4877 8.50195C20.4877 7.87308 19.9944 7.36176 19.3751 7.32239C19.3393 7.15645 19.2983 6.99276 19.2518 6.83114C19.5956 6.62283 19.8283 6.2482 19.8283 5.81733C19.8283 5.16276 19.2958 4.63026 18.6414 4.63026C18.504 4.63026 18.3741 4.65839 18.2512 4.70133C18.1483 4.55245 18.0409 4.40695 17.9282 4.26558C18.0782 4.06664 18.1706 3.82176 18.1706 3.55364C18.1706 2.89908 17.6381 2.36658 16.9838 2.36658C16.6868 2.36658 16.4179 2.48001 16.2094 2.66058C16.0303 2.53964 15.8456 2.42695 15.6561 2.32158C15.6804 2.22689 15.6973 2.12958 15.6973 2.02739C15.6973 1.37283 15.1648 0.840326 14.5104 0.840326C14.0409 0.840326 13.6378 1.11595 13.4449 1.51158C13.2489 1.47333 13.0504 1.44295 12.8492 1.42026C12.7562 0.857951 12.2698 0.426514 11.6816 0.426514C11.0578 0.426514 10.5502 0.910826 10.5026 1.52189C10.3024 1.56276 10.1051 1.61095 9.91106 1.66739C9.71175 1.29126 9.32081 1.03158 8.86631 1.03158C8.21119 1.03158 7.67794 1.56408 7.67794 2.21864C7.67794 2.38026 7.71094 2.53439 7.76962 2.67501C7.56937 2.81189 7.37663 2.95795 7.19081 3.11301C7.00069 2.98345 6.77138 2.90733 6.52444 2.90733C5.86894 2.90733 5.33588 3.43983 5.33588 4.09439C5.33588 4.39495 5.45156 4.66645 5.63625 4.87589C5.52975 5.04314 5.42962 5.21451 5.33606 5.3902C5.26481 5.3767 5.19187 5.36808 5.11669 5.36808C4.46156 5.36808 3.92831 5.90058 3.92831 6.55514C3.92831 7.01433 4.19287 7.40901 4.57519 7.60683C4.54631 7.76901 4.52269 7.9327 4.50431 8.09826C3.94313 8.19295 3.51338 8.67839 3.51338 9.26526C3.51338 9.83489 3.9165 10.3113 4.45219 10.4263V10.7544C3.88444 10.8433 3.44737 11.3311 3.44737 11.9229C3.44737 12.5152 3.88444 13.0036 4.45219 13.0927V13.6226H3.96469C3.65194 13.6226 3.37875 13.8343 3.30019 14.1378L3.2295 14.4138C1.35619 15.033 0 16.7985 0 18.8756C0 21.4653 2.10975 23.5726 4.6995 23.5726ZM19.3005 19.8279C16.9832 19.8279 15.1009 17.9431 15.1009 15.6309C15.1009 13.8892 16.1651 12.3941 17.6771 11.76L17.4741 12.5516C17.4433 12.6731 17.4501 12.7965 17.4844 12.9125C16.6089 13.5 16.0309 14.4976 16.0309 15.6309C16.0309 17.4331 17.4982 18.9005 19.3005 18.9005C20.1135 18.9005 20.8564 18.6009 21.4292 18.1089L22.0841 18.7638C21.342 19.4233 20.3685 19.8279 19.3005 19.8279ZM23.5001 15.6309C23.5001 16.6968 23.0962 17.6688 22.4377 18.4104L21.7828 17.7555C22.2741 17.1832 22.5728 16.4418 22.5728 15.6309C22.5728 14.4982 21.993 13.4986 21.1159 12.9129C21.1502 12.7966 21.1569 12.6731 21.1258 12.5512L20.9231 11.7607C22.4346 12.3952 23.5001 13.8898 23.5001 15.6309ZM20.808 13.3076C21.5668 13.8011 22.0727 14.6574 22.0727 15.6309C22.0727 17.1556 20.8279 18.4006 19.3005 18.4006C17.7731 18.4006 16.5308 17.1558 16.5308 15.6309C16.5308 14.6572 17.0346 13.803 17.793 13.3081C17.8967 13.3693 18.0142 13.4056 18.1389 13.4056H20.4611C20.5864 13.4056 20.7041 13.3689 20.808 13.3076ZM20.0363 10.8783C20.1197 10.8783 20.1956 10.9374 20.2166 11.0178L20.6413 12.675C20.6711 12.7925 20.5828 12.9058 20.4611 12.9058H18.1391C18.0156 12.9058 17.9295 12.7899 17.9587 12.6753L18.3834 11.0188C18.4046 10.9374 18.4806 10.8783 18.564 10.8783H20.0363ZM19.3005 7.81533C19.6794 7.81533 19.9877 8.12358 19.9877 8.50233C19.9877 8.88201 19.6794 9.19064 19.3005 9.19064C18.9208 9.19064 18.6122 8.88183 18.6122 8.50233C18.6122 8.12358 18.921 7.81533 19.3005 7.81533ZM18.6414 5.13089C19.0204 5.13089 19.3284 5.43914 19.3284 5.81789C19.3284 6.19758 19.0204 6.5062 18.6414 6.5062C18.2616 6.5062 17.9528 6.19739 17.9528 5.81789C17.9528 5.43895 18.2616 5.13089 18.6414 5.13089ZM16.9836 2.8672C17.3625 2.8672 17.6706 3.17545 17.6706 3.5542C17.6706 3.93389 17.3625 4.2427 16.9836 4.2427C16.6039 4.2427 16.2952 3.9337 16.2952 3.5542C16.2952 3.17545 16.6041 2.8672 16.9836 2.8672ZM14.5103 1.34114C14.8892 1.34114 15.1973 1.64939 15.1973 2.02814C15.1973 2.40783 14.8892 2.71645 14.5103 2.71645C14.1304 2.71645 13.8216 2.40764 13.8216 2.02814C13.8216 1.64939 14.1304 1.34114 14.5103 1.34114ZM11.6814 0.927326C12.0604 0.927326 12.3686 1.23558 12.3686 1.61433C12.3686 1.99401 12.0604 2.30283 11.6814 2.30283C11.3017 2.30283 10.9931 1.99383 10.9931 1.61433C10.9931 1.23539 11.3019 0.927326 11.6814 0.927326ZM8.86612 1.53239C9.24506 1.53239 9.55313 1.84064 9.55313 2.21939C9.55313 2.59908 9.24506 2.90789 8.86612 2.90789C8.48644 2.90789 8.17781 2.59889 8.17781 2.21939C8.17763 1.84064 8.48644 1.53239 8.86612 1.53239ZM6.52425 3.40795C6.90319 3.40795 7.21125 3.7162 7.21125 4.09495C7.21125 4.47464 6.90319 4.78326 6.52425 4.78326C6.14438 4.78326 5.83556 4.47445 5.83556 4.09495C5.83556 3.7162 6.14438 3.40795 6.52425 3.40795ZM8.89913 18.8756C8.89913 19.9415 8.49581 20.9135 7.83769 21.6549L7.18219 20.9996C7.67306 20.4275 7.97156 19.6861 7.97156 18.8756C7.97156 17.7427 7.39369 16.7448 6.51656 16.1576C6.55088 16.0413 6.55744 15.9178 6.5265 15.7959L6.32363 15.0048C7.83525 15.6391 8.89913 17.1341 8.89913 18.8756ZM4.428 6.5557C4.428 6.17676 4.73681 5.8687 5.11631 5.8687C5.49525 5.8687 5.80331 6.17695 5.80331 6.5557C5.80331 6.93539 5.49525 7.24401 5.11631 7.24401C4.73681 7.2442 4.428 6.93539 4.428 6.5557ZM4.01306 9.26583C4.01306 8.88689 4.32187 8.57883 4.70137 8.57883C5.08031 8.57883 5.38838 8.88708 5.38838 9.26583C5.38838 9.64551 5.08031 9.95433 4.70137 9.95433C4.32187 9.95433 4.01306 9.64551 4.01306 9.26583ZM3.94725 11.9236C3.94725 11.5447 4.25606 11.2366 4.63556 11.2366C5.0145 11.2366 5.32275 11.5449 5.32275 11.9236C5.32275 12.3033 5.0145 12.612 4.63556 12.612C4.25587 12.612 3.94725 12.3031 3.94725 11.9236ZM3.35925 15.92L3.78394 14.2633C3.80494 14.1821 3.88087 14.1232 3.96431 14.1232H5.43675C5.52019 14.1232 5.59594 14.1823 5.61694 14.2629L6.042 15.9198C6.07162 16.0368 5.98406 16.1506 5.86162 16.1506H3.53944C3.41756 16.1506 3.32963 16.0368 3.35925 15.92ZM3.53944 16.6505H5.86162C5.98669 16.6505 6.10444 16.614 6.20831 16.5526C6.96806 17.0463 7.47169 17.9023 7.47169 18.8756C7.47169 20.403 6.22931 21.6453 4.6995 21.6453C3.17212 21.6453 1.92975 20.403 1.92975 18.8756C1.92975 17.9017 2.43394 17.0473 3.19256 16.5525C3.29663 16.6138 3.41438 16.6505 3.53944 16.6505ZM3.078 15.0048L2.87512 15.7963C2.844 15.918 2.85075 16.0413 2.88506 16.1576C2.00794 16.745 1.43006 17.7427 1.43006 18.8756C1.43006 20.6778 2.89744 22.1452 4.69969 22.1452C5.51288 22.1452 6.25613 21.8454 6.82894 21.353L7.48444 22.0083C6.7425 22.6678 5.769 23.0726 4.69969 23.0726C2.385 23.0726 0.500063 21.1878 0.500063 18.8756C0.499875 17.1341 1.566 15.6391 3.078 15.0048Z" fill="#333333"/>
</g>
<defs>
<clipPath id="clip0_3_277">
<rect width="24" height="24" fill="white"/>
</clipPath>
</defs>
</svg>
