<svg width="24" height="24" viewBox="0 0 24 24" fill="none" xmlns="http://www.w3.org/2000/svg">
<path d="M5.07056 10.782H6.53812V23.7499H5.07056V10.782Z" fill="#C69C6D"/>
<path d="M4.45276 22.6048H8.68201C9.53007 22.6048 10.3434 22.2681 10.9436 21.6681V16.1319C10.0581 15.2479 9.51638 14.706 8.71257 13.9022C8.49507 13.6847 8.20126 13.5626 7.89357 13.5626H6.53832V15.3711H3.99826C3.55201 15.3711 3.1502 15.6787 3.07257 16.1166C3.01857 16.4271 3.12807 16.7181 3.32476 16.9134C3.48695 17.0769 3.7142 17.1795 3.96357 17.1795H3.26513C2.76488 17.1795 2.36157 17.5854 2.36157 18.0831C2.36157 18.3324 2.46132 18.5597 2.62632 18.7219C2.78851 18.8854 3.01576 18.9879 3.26513 18.9879H3.82501C3.32607 18.9879 2.92013 19.3939 2.92013 19.8915C2.92013 20.1409 3.02401 20.3681 3.1862 20.5316C3.34838 20.6938 3.57563 20.7964 3.82501 20.7964H4.45276C3.9512 20.7964 3.54788 21.2023 3.54788 21.6999C3.54788 21.9493 3.64913 22.1766 3.81395 22.3401C3.97613 22.5022 4.20057 22.6048 4.45276 22.6048Z" fill="#FEDE58"/>
<g opacity="0.4">
<path d="M10.9427 16.1318V17.4017C10.0328 16.4918 9.17779 15.6443 8.28022 14.7467C8.10022 14.5691 7.85779 14.4668 7.60766 14.4668H6.5376V13.5619H7.89266C8.20016 13.5619 8.49772 13.687 8.71522 13.9043C9.51529 14.7068 10.0577 15.2468 10.9427 16.1318Z" fill="white"/>
</g>
<g opacity="0.1">
<path d="M10.9426 20.7622V21.6673C10.3426 22.2673 9.53017 22.6048 8.68267 22.6048H4.45267C4.20011 22.6048 3.97511 22.5022 3.81517 22.3398C3.65017 22.1773 3.54761 21.9498 3.54761 21.6999C3.54761 21.5349 3.59017 21.3798 3.67004 21.2475C3.70998 21.3174 3.75761 21.38 3.81498 21.435C3.97492 21.5975 4.19992 21.6999 4.45248 21.6999H8.68248C9.53017 21.6997 10.3426 21.3622 10.9426 20.7622Z" fill="black"/>
</g>
<path d="M10.9431 16.1323H12.0518V21.6684H10.9431V16.1323Z" fill="#F0F7FF"/>
<path d="M12.4057 22.0297H16.478V15.7717H12.4057C12.2103 15.7717 12.0522 15.9296 12.0522 16.1252V21.6752C12.0524 21.8704 12.2103 22.0297 12.4057 22.0297Z" fill="#BFBFBF"/>
<g opacity="0.4">
<path d="M16.4777 15.7717V16.8367H12.4052C12.2102 16.8367 12.0527 16.9942 12.0527 17.1917V16.1242C12.0527 15.9292 12.2102 15.7717 12.4052 15.7717H16.4777Z" fill="white"/>
</g>
<g opacity="0.1">
<path d="M16.4777 20.9647V22.0297H12.4052C12.2102 22.0297 12.0527 21.8722 12.0527 21.6772V20.6097C12.0527 20.8047 12.2102 20.9647 12.4052 20.9647H16.4777Z" fill="black"/>
</g>
<path d="M21.5952 10.0442C21.1977 11.4317 20.9451 12.8843 20.8326 14.3942C20.8152 14.6342 20.545 14.7617 20.35 14.6192C19.015 13.6292 17.455 12.9492 15.7099 12.5267C15.2524 12.4167 14.9899 11.9393 15.1274 11.4893L16.7048 6.40674C18.4022 7.20418 19.9847 8.00424 21.1574 8.81668C21.5526 9.0893 21.7251 9.5843 21.5952 10.0442Z" fill="#E56C63"/>
<path d="M21.5952 10.0442C21.1977 11.4317 20.9451 12.8843 20.8326 14.3942C20.8152 14.6342 20.545 14.7617 20.35 14.6192C19.015 13.6292 17.455 12.9492 15.7099 12.5267C15.385 12.4493 15.16 12.1868 15.1049 11.8793C15.0824 11.7542 15.0874 11.6219 15.1274 11.4893L16.7048 6.40674C18.0722 7.0493 19.3622 7.69168 20.4272 8.34174C20.6847 8.49924 20.9297 8.65674 21.1572 8.81668C21.5526 9.0893 21.7251 9.5843 21.5952 10.0442Z" fill="#E56C63"/>
<g opacity="0.1">
<path d="M20.4277 8.34168L19.5102 11.9267C19.4077 12.3317 18.9877 12.5666 18.5902 12.4442L18.3202 12.3641C17.5201 12.1217 16.4602 11.9591 15.1051 11.8791C15.0826 11.754 15.0877 11.6216 15.1276 11.4891L16.705 6.40649C18.0729 7.04924 19.3627 7.69181 20.4277 8.34168Z" fill="black"/>
</g>
<path d="M20.2362 5.05166L18.6113 11.4066C16.0538 10.629 11.5913 10.7442 6.76636 11.0292V0.821655C13.1387 1.80416 18.3662 2.42422 20.2362 5.05166Z" fill="#E56C63"/>
<g opacity="0.4">
<path d="M20.2351 5.05178L19.9351 6.22422C17.8552 3.90428 12.8276 3.29678 6.76514 2.36171V0.821777C13.1377 1.80428 18.365 2.42434 20.2351 5.05178Z" fill="white"/>
</g>
<g opacity="0.1">
<path d="M18.98 9.95676L18.6101 11.4067C16.0526 10.6291 11.5901 10.7443 6.76514 11.0293V9.48932C11.3626 9.21669 16.2577 9.04926 18.98 9.95676Z" fill="black"/>
</g>
<path d="M6.7663 0.561935V11.2275C6.7663 11.4015 6.62623 11.5416 6.45223 11.5416H5.15586C4.98186 11.5416 4.8418 11.4015 4.8418 11.2275V0.561935C4.8418 0.390185 4.98186 0.250122 5.15586 0.250122H6.45223C6.62642 0.249935 6.7663 0.389997 6.7663 0.561935Z" fill="#E56C63"/>
<g opacity="0.4">
<path d="M6.76618 0.561586V1.98152C6.76618 1.81146 6.62612 1.67159 6.45118 1.67159H5.15631C4.98137 1.67159 4.84131 1.81165 4.84131 1.98152V0.561586C4.84131 0.389086 4.98137 0.249023 5.15631 0.249023H6.45137C6.62631 0.249211 6.76618 0.389086 6.76618 0.561586Z" fill="white"/>
</g>
<g opacity="0.1">
<path d="M6.76618 9.8064V11.229C6.76618 11.4015 6.62612 11.5415 6.45118 11.5415H5.15631C4.98137 11.5415 4.84131 11.4015 4.84131 11.229V9.8064C4.84131 9.98133 4.98137 10.1214 5.15631 10.1214H6.45137C6.62631 10.1214 6.76618 9.98133 6.76618 9.8064Z" fill="black"/>
</g>
<path d="M21.3008 8.61056C20.8502 8.29988 20.3462 7.99556 19.8173 7.698L20.4782 5.1135C20.4966 5.04225 20.4824 4.96669 20.4396 4.90669C18.6387 2.37581 13.9954 1.6695 8.11675 0.775125C7.75506 0.72 7.38662 0.66375 7.0165 0.606937V0.561937C7.0165 0.252 6.76356 0 6.4525 0H5.15612C4.84506 0 4.59212 0.252 4.59212 0.561937V11.2273C4.59212 11.4122 4.68269 11.5751 4.82069 11.6781V15.1209H3.9985C3.41725 15.1209 2.92431 15.5212 2.82644 16.0736C2.77225 16.3858 2.84819 16.7034 3.03081 16.9534C2.50694 17.0619 2.11206 17.5271 2.11206 18.0827C2.11206 18.618 2.464 19.0372 2.91475 19.1824C2.76175 19.3781 2.67044 19.6243 2.67044 19.8913C2.67044 20.4084 3.01712 20.8703 3.53012 21.0071C3.38462 21.2001 3.29819 21.4401 3.29819 21.6996C3.29819 22.3414 3.81906 22.8546 4.45319 22.8546H4.82087V23.7499C4.82087 23.8879 4.93262 23.9998 5.07081 23.9998H6.53837C6.67656 23.9998 6.78831 23.8879 6.78831 23.7499V22.8546H8.68244C9.56669 22.8546 10.3979 22.521 11.0393 21.9184H11.8544C11.9481 22.1306 12.1594 22.2795 12.4056 22.2795H16.4779C16.6161 22.2795 16.7279 22.1676 16.7279 22.0296V15.7716C16.7279 15.6336 16.6161 15.5216 16.4779 15.5216H12.4056C12.1592 15.5216 11.9477 15.6703 11.8542 15.8824H11.0476L8.88944 13.7254C8.62337 13.4593 8.26956 13.3127 7.89362 13.3127H6.78812V11.6779C6.91619 11.5823 7.00094 11.4343 7.01256 11.2654C9.83612 11.1017 12.6494 10.9914 14.9796 11.1201L14.8885 11.4156C14.713 11.9869 15.0368 12.6197 15.6511 12.7706C17.4111 13.1957 18.9411 13.8857 20.2036 14.8206C20.5634 15.0881 21.055 14.8343 21.0811 14.4131C21.1936 12.9156 21.4461 11.4707 21.8361 10.1132C21.9959 9.54563 21.7808 8.94319 21.3008 8.61056ZM12.3023 16.125C12.3023 16.068 12.3486 16.0217 12.4056 16.0217H16.2278V21.7798H12.4056C12.3488 21.7798 12.3023 21.7327 12.3023 21.675V16.125ZM11.1936 16.3823H11.8015V21.4183H11.1936V16.3823ZM5.09219 0.561937C5.09219 0.527812 5.12106 0.500063 5.15612 0.500063H6.4525C6.48775 0.500063 6.51644 0.527812 6.51644 0.561937C6.51644 0.620812 6.51625 1.72688 6.51644 11.2273C6.51644 11.2631 6.48831 11.2914 6.4525 11.2914H5.15612C5.12031 11.2914 5.09219 11.2633 5.09219 11.2273V0.561937ZM6.28844 15.1211C6.25994 15.1211 5.29131 15.1211 5.32075 15.1211V11.7913H6.28825C6.28825 12.0863 6.28806 10.7098 6.28844 15.1211ZM6.28825 23.4999H5.32075V22.8547H6.28825V23.4999ZM7.61725 15.1211H6.78831V13.8127H7.89362C8.13606 13.8127 8.36425 13.9074 8.536 14.079L10.6932 16.2351V21.5625C10.1453 22.0742 9.43544 22.3549 8.68225 22.3549H4.453C4.0945 22.3549 3.79806 22.0644 3.79806 21.6999C3.79806 21.3396 4.09206 21.0465 4.453 21.0465H6.17762C6.31581 21.0465 6.42756 20.9346 6.42756 20.7966C6.42756 20.6586 6.31581 20.5466 6.17762 20.5466C6.11856 20.5466 3.78456 20.5466 3.82525 20.5466C3.46075 20.5466 3.17031 20.2476 3.17031 19.8917C3.17031 19.5313 3.46431 19.2381 3.82525 19.2381H6.84681C6.985 19.2381 7.09675 19.1261 7.09675 18.9881C7.09675 18.8501 6.985 18.7382 6.84681 18.7382C5.49756 18.7382 4.54487 18.7382 3.26519 18.7382C2.93012 18.7382 2.61194 18.4691 2.61194 18.0833C2.61194 17.7229 2.90481 17.4298 3.26519 17.4298H6.17762C6.31581 17.4298 6.42756 17.3179 6.42756 17.1799C6.42756 17.0419 6.31581 16.9299 6.17762 16.9299H3.96362C3.55975 16.9299 3.24869 16.5623 3.31862 16.1606C3.373 15.8533 3.66531 15.6214 3.99831 15.6214H7.61725C7.75544 15.6214 7.86719 15.5094 7.86719 15.3714C7.86719 15.2334 7.75544 15.1211 7.61725 15.1211ZM12.7122 10.5639C10.9186 10.5639 8.96894 10.6509 7.01631 10.7642V1.113C7.36169 1.16587 7.70369 1.218 8.04137 1.26937C13.7271 2.13431 18.2337 2.82 19.9645 5.10413L18.4324 11.0953C16.9696 10.701 14.9635 10.5639 12.7122 10.5639ZM21.3559 9.97556C20.956 11.3655 20.6984 12.8456 20.5834 14.3756C20.5795 14.4227 20.533 14.4428 20.4985 14.4182C19.1836 13.4432 17.5936 12.7256 15.7684 12.2831C15.4568 12.2104 15.2716 11.8828 15.3659 11.5631L15.4926 11.1533C16.6722 11.2397 17.7115 11.3944 18.5384 11.6458C18.6737 11.6873 18.8181 11.6072 18.8534 11.4686L19.6894 8.199C20.1634 8.46825 20.6146 8.74275 21.016 9.02325C21.3209 9.23306 21.4559 9.61556 21.3559 9.97556Z" fill="#333333"/>
</svg>
