<svg width="24" height="24" viewBox="0 0 24 24" fill="none" xmlns="http://www.w3.org/2000/svg">
<path d="M10.402 7.43005C10.4024 7.42987 10.4028 7.42969 10.4032 7.4295L10.6056 7.88672C10.8321 7.78516 11.0685 7.64258 11.3146 7.45898C11.5607 7.27539 11.7618 7.08594 11.9181 6.89062C12.0939 6.67188 12.2618 6.5625 12.422 6.5625H13.3536C13.588 6.5625 13.7052 6.67969 13.7052 6.91406V14.6484C13.7052 14.8828 13.588 15 13.3536 15H12.4161C12.1818 15 12.0646 14.8828 12.0646 14.6484V9.32176C12.0329 9.34821 12.0007 9.37386 11.9679 9.3987C11.8383 9.49675 11.7039 9.58179 11.5646 9.65209M10.402 7.43005C10.5881 7.34651 10.7926 7.22457 11.0156 7.05822C11.235 6.89455 11.4032 6.73382 11.5277 6.57828L11.5283 6.57743C11.7307 6.32561 12.0274 6.0625 12.422 6.0625H13.3536C13.5479 6.0625 13.7854 6.1114 13.9709 6.29684C14.1563 6.48227 14.2052 6.7198 14.2052 6.91406V14.6484C14.2052 14.8427 14.1563 15.0802 13.9709 15.2657C13.7854 15.4511 13.5479 15.5 13.3536 15.5H12.4161C12.2219 15.5 11.9843 15.4511 11.7989 15.2657C11.6135 15.0802 11.5646 14.8427 11.5646 14.6484V9.65209M10.402 7.43005C10.2344 7.50443 10.0291 7.63432 9.92145 7.868C9.80202 8.12734 9.86073 8.38145 9.95878 8.56628L10.4003 8.33213L9.95883 8.56639L10.3683 9.33847M10.402 7.43005L10.3683 9.33847M11.5646 9.65209C11.5172 9.67599 11.4692 9.6982 11.4207 9.71863L11.2267 9.25781M11.5646 9.65209V9.07617C11.5646 9.07504 11.5646 9.07391 11.5646 9.07278C11.4531 9.14823 11.3405 9.20991 11.2267 9.25781M11.2267 9.25781L11.4225 9.71789C11.2555 9.78892 11.0384 9.83037 10.813 9.74783C10.59 9.66615 10.4512 9.49679 10.3683 9.33847M11.2267 9.25781L10.3683 9.33847M10.3683 9.33847L10.3689 9.33972L10.8107 9.10547L10.3674 9.33675C10.3677 9.33732 10.368 9.33789 10.3683 9.33847Z" fill="#E56C63" stroke="#333333"/>
</svg>
