<svg width="24" height="24" viewBox="0 0 24 24" fill="none" xmlns="http://www.w3.org/2000/svg">
<g clip-path="url(#clip0_3_47)">
<path d="M23.7504 13.7023V15.9948C23.7504 16.4124 23.4129 16.7499 22.9954 16.7499H1.00799C0.590426 16.7499 0.250488 16.4124 0.250488 15.9948V12.5347C0.250488 12.1171 0.590426 11.7772 1.00799 11.7772H3.04555C3.27055 11.7772 3.48561 11.6773 3.62811 11.5048L4.60818 10.3173L6.14568 8.45976C6.35324 8.20982 6.65811 8.0647 6.98324 8.0647H14.0782C14.4007 8.0647 14.7082 8.20963 14.9158 8.45976L17.4934 11.5773C17.6034 11.7073 17.7508 11.7974 17.9184 11.8323L23.1559 12.9624C23.5029 13.0398 23.7504 13.3473 23.7504 13.7023Z" fill="#F0F7FF"/>
<path d="M17.9162 11.8329L3.04614 11.778C3.27114 11.778 3.48358 11.6781 3.62871 11.5029L6.24377 8.34037C6.38871 8.16543 6.60133 8.06531 6.82633 8.06531H14.2339C14.4589 8.06531 14.6713 8.16524 14.8165 8.34037L17.4938 11.5755C17.6012 11.7079 17.7512 11.7979 17.9162 11.8329Z" fill="#83CAFA"/>
<g opacity="0.1">
<path d="M1.46013 12.5358V15.9958C1.46013 16.4133 1.80006 16.7508 2.21762 16.7508H1.0075C0.589937 16.7508 0.25 16.4133 0.25 15.9958V12.5358C0.25 12.1183 0.589937 11.7783 1.0075 11.7783H2.21744C1.80006 11.7783 1.46013 12.1183 1.46013 12.5358Z" fill="black"/>
</g>
<g opacity="0.4">
<path d="M23.7504 13.7035V15.996C23.7504 16.4136 23.4129 16.7511 22.9954 16.7511H21.7854C22.203 16.7511 22.5405 16.4136 22.5405 15.996V13.7035C22.5405 13.3485 22.293 13.041 21.9455 12.9634L16.7081 11.8334C16.5407 11.7983 16.3931 11.7083 16.283 11.5784L13.7055 8.46098C13.4979 8.21104 13.1904 8.06592 12.8679 8.06592H14.0779C14.4004 8.06592 14.7079 8.21086 14.9154 8.46098L17.493 11.5785C17.603 11.7085 17.7504 11.7985 17.918 11.8335L23.1555 12.9636C23.5029 13.0409 23.7504 13.3484 23.7504 13.7035Z" fill="white"/>
</g>
<g opacity="0.1">
<path d="M8.1926 8.06592C7.86767 8.06592 7.5626 8.21086 7.35523 8.46098L5.81773 10.3185L4.83767 11.506C4.69517 11.6785 4.4801 11.7784 4.2551 11.7784H3.04517C3.27017 11.7784 3.48523 11.6785 3.62773 11.506L4.60779 10.3185L6.14529 8.46098C6.35285 8.21104 6.65773 8.06592 6.98285 8.06592H8.1926Z" fill="black"/>
</g>
<path d="M17.6754 18.5938C16.6557 17.5742 16.6557 15.927 17.6754 14.9074C18.6927 13.89 20.3399 13.89 21.3596 14.9097C22.3769 15.927 22.3769 17.5742 21.3596 18.5916C20.3399 19.6112 18.6927 19.6112 17.6754 18.5938Z" fill="#BFBFBF"/>
<g opacity="0.1">
<path d="M17.6762 18.5933C16.6562 17.5733 16.6546 15.9274 17.6746 14.9074C18.3428 14.2392 19.2833 14.0095 20.137 14.2199C19.6915 14.3295 19.2691 14.5575 18.919 14.9074C17.899 15.9274 17.8973 17.5733 18.9173 18.5933C19.2674 18.9434 19.6898 19.1714 20.1353 19.281C19.2812 19.4914 18.3426 19.2597 17.6762 18.5933Z" fill="black"/>
</g>
<path d="M2.69685 18.5937C1.67722 17.5741 1.67722 15.9269 2.69685 14.9073C3.71422 13.8899 5.36141 13.8899 6.38103 14.9095C7.39841 15.9269 7.39841 17.5741 6.38103 18.5915C5.36141 19.6111 3.71422 19.6111 2.69685 18.5937Z" fill="#BFBFBF"/>
<g opacity="0.1">
<path d="M2.6964 18.5943C1.6764 17.5743 1.6764 15.9267 2.6964 14.9067C3.36277 14.2403 4.30327 14.0105 5.15715 14.2208C4.70996 14.3286 4.28733 14.5602 3.93915 14.9086C2.92083 15.9269 2.91915 17.5726 3.93915 18.5926C4.28921 18.9426 4.71165 19.1706 5.15715 19.2803C4.30327 19.4905 3.36277 19.2608 2.6964 18.5943Z" fill="black"/>
</g>
<path d="M11.2836 7.26226V8.06551H9.67896V7.26226C9.67896 6.81976 10.038 6.46069 10.4822 6.46069C10.7035 6.46069 10.9035 6.55088 11.0494 6.69507C11.1934 6.84094 11.2836 7.04101 11.2836 7.26226Z" fill="#E56C63"/>
<g opacity="0.4">
<path d="M11.2825 7.26338V8.06588H10.6575V7.34082C10.6575 7.12088 10.5675 6.92082 10.425 6.77326C10.3275 6.68082 10.21 6.60826 10.0774 6.57076C10.195 6.50082 10.3348 6.46069 10.4824 6.46069C10.7023 6.46069 10.9024 6.55069 11.05 6.69563C11.1925 6.84094 11.2825 7.04082 11.2825 7.26338Z" fill="white"/>
</g>
<path d="M17.1423 11.5446C17.1385 11.5401 17.1359 11.5369 17.1344 11.535C17.134 11.5346 17.1334 11.5339 17.1331 11.5335C17.1304 11.5303 17.1351 11.5359 17.1423 11.5446Z" fill="#333333"/>
<path d="M23.2074 12.7183L17.97 11.5884C17.8573 11.5634 17.7486 11.4928 17.6865 11.4161L15.009 8.18094C14.8164 7.94863 14.5339 7.81551 14.2339 7.81551H11.5337V7.26219C11.5337 6.68207 11.0634 6.21069 10.4822 6.21069C9.90131 6.21069 9.429 6.68244 9.429 7.26219V7.81551H6.8265C6.5265 7.81551 6.24394 7.94863 6.05137 8.18132L3.43613 11.3433C3.34256 11.4566 3.1845 11.5278 3.04631 11.5278C3.04594 11.5278 3.04575 11.5278 3.04556 11.5278C3.04481 11.5278 3.04425 11.5282 3.0435 11.5282H1.00744C0.452438 11.5282 0 11.9782 0 12.5356V15.9956C0 16.5481 0.452438 17.0006 1.00744 17.0006H1.69425C1.8225 18.4578 3.04669 19.6049 4.53506 19.6049C6.02513 19.6049 7.25062 18.4578 7.37906 17.0006H16.6736C16.8019 18.4578 18.0261 19.6049 19.5144 19.6049C21.0045 19.6049 22.23 18.4578 22.3584 17.0006H22.9952C23.5502 17.0006 24.0002 16.5481 24.0002 15.9956V13.7034C24 13.2258 23.6751 12.8233 23.2074 12.7183ZM14.0775 8.31576C14.3258 8.31576 14.559 8.42469 14.7189 8.61482C16.4863 10.7516 17.0032 11.3765 17.1332 11.5334C17.1336 11.5338 17.1339 11.5344 17.1345 11.5349C17.1386 11.54 17.142 11.5441 17.1454 11.5483C17.1443 11.5469 17.1433 11.5458 17.1424 11.5445C17.1439 11.5462 17.1458 11.5484 17.1474 11.5507C17.1606 11.5664 17.1679 11.5754 17.1707 11.5786C17.1701 11.5781 17.1698 11.5775 17.169 11.5766C17.1701 11.5779 17.1707 11.5786 17.1718 11.5799C17.1728 11.5809 17.1726 11.5809 17.1718 11.5799L10.7314 11.5561V8.31576H14.0775ZM17.1504 11.5544C17.1551 11.5601 17.1611 11.5674 17.1683 11.5758C17.1639 11.5708 17.157 11.5625 17.1504 11.5544ZM9.92887 7.26219C9.92887 6.95807 10.1771 6.71076 10.4822 6.71076C10.7893 6.71076 11.0336 6.95938 11.0336 7.26219V7.81551H9.92887V7.26219ZM6.34275 8.61332C6.50269 8.42432 6.735 8.31576 6.9825 8.31576H10.2311V11.5544C8.57119 11.5483 5.50388 11.537 3.92981 11.5312L6.34275 8.61332ZM4.53506 19.1053C3.23719 19.1053 2.18156 18.0479 2.18156 16.7486C2.18156 15.4509 3.23719 14.3951 4.53506 14.3951C5.83463 14.3951 6.89175 15.4509 6.89175 16.7486C6.89175 18.0479 5.83463 19.1053 4.53506 19.1053ZM10.2311 16.5009H7.37925C7.25287 15.0431 6.02663 13.895 4.53506 13.895C3.04519 13.895 1.82025 15.0431 1.69406 16.5009H1.00744C0.7275 16.5009 0.499875 16.2734 0.499875 15.9959V12.5358C0.499875 12.2559 0.727313 12.0283 1.00744 12.0283C7.64138 12.0472 9.59194 12.0526 10.0849 12.0541H10.0909C10.0907 12.0541 10.0905 12.0541 10.0901 12.0541H10.0912H10.1246H10.1364C10.134 12.0541 10.1316 12.0541 10.1291 12.0541H10.1657C10.1629 12.0541 10.1599 12.0541 10.1571 12.0541H10.1891C10.1848 12.0541 10.1805 12.0541 10.176 12.0541H10.2051H10.2154H10.2231C10.2219 12.0541 10.2212 12.0541 10.2199 12.0541H10.2309V16.5009H10.2311ZM10.0937 12.0541H10.1183C10.1085 12.0541 10.1001 12.0541 10.0937 12.0541ZM19.5142 19.1053C18.2164 19.1053 17.1608 18.0479 17.1608 16.7486C17.1608 15.4509 18.2164 14.3951 19.5142 14.3951C20.8138 14.3951 21.8709 15.4509 21.8709 16.7486C21.8709 18.0479 20.8138 19.1053 19.5142 19.1053ZM23.4999 15.9958C23.4999 16.2733 23.2749 16.5007 22.995 16.5007H22.3584C22.2321 15.0429 21.0058 13.8948 19.5142 13.8948C18.0244 13.8948 16.7994 15.0429 16.6733 16.5007H10.7312V12.0564L17.8984 12.083L23.1002 13.2058C23.3351 13.2583 23.5001 13.4632 23.5001 13.7032L23.4999 15.9958Z" fill="#333333"/>
<path d="M19.5143 15.6451C18.9059 15.6451 18.4109 16.1403 18.4109 16.7486C18.4109 17.3587 18.9061 17.8552 19.5143 17.8552C20.1246 17.8552 20.621 17.3587 20.621 16.7486C20.621 16.1401 20.1246 15.6451 19.5143 15.6451Z" fill="#333333"/>
<path d="M4.53508 15.6451C3.92664 15.6451 3.43164 16.1403 3.43164 16.7486C3.43164 17.3587 3.92683 17.8552 4.53508 17.8552C5.1452 17.8552 5.6417 17.3587 5.6417 16.7486C5.64189 16.1401 5.1452 15.6451 4.53508 15.6451Z" fill="#333333"/>
<path d="M12.4228 12.5555H11.4811C11.343 12.5555 11.2312 12.6675 11.2312 12.8055C11.2312 12.9435 11.343 13.0554 11.4811 13.0554H12.4228C12.561 13.0554 12.6727 12.9435 12.6727 12.8055C12.6727 12.6675 12.561 12.5555 12.4228 12.5555Z" fill="#333333"/>
<path d="M9.48111 12.5555H8.53949C8.4013 12.5555 8.28955 12.6675 8.28955 12.8055C8.28955 12.9435 8.4013 13.0554 8.53949 13.0554H9.48111C9.6193 13.0554 9.73105 12.9435 9.73105 12.8055C9.73105 12.6675 9.6193 12.5555 9.48111 12.5555Z" fill="#333333"/>
<path d="M8.85489 6.06486C8.93889 6.17529 9.09564 6.19611 9.20514 6.11286C9.31521 6.02942 9.33677 5.87267 9.25333 5.76261L8.77633 5.13354C8.69308 5.02348 8.53558 5.00136 8.42627 5.08536C8.31621 5.16879 8.29446 5.32554 8.37789 5.43561L8.85489 6.06486Z" fill="#333333"/>
<path d="M10.481 5.68421C10.6191 5.68421 10.7309 5.57246 10.7311 5.43446V4.64453C10.7309 4.50653 10.619 4.39478 10.4811 4.39478C10.3431 4.39496 10.231 4.5069 10.2312 4.64509V5.43409C10.231 5.5719 10.343 5.68403 10.481 5.68421Z" fill="#333333"/>
<path d="M12.1075 6.0648L12.5845 5.43555C12.6679 5.32549 12.6462 5.16874 12.5361 5.0853C12.4257 5.0013 12.2691 5.02361 12.1861 5.13349L11.7091 5.76255C11.6256 5.87261 11.647 6.02936 11.7573 6.1128C11.8675 6.1968 12.0241 6.1743 12.1075 6.0648Z" fill="#333333"/>
</g>
<defs>
<clipPath id="clip0_3_47">
<rect width="24" height="24" fill="white"/>
</clipPath>
</defs>
</svg>
