<svg width="24" height="24" viewBox="0 0 24 24" fill="none" xmlns="http://www.w3.org/2000/svg">
<path d="M10.3301 8.36133C10.0957 8.5918 9.89453 8.58203 9.72656 8.33203L10.3301 8.36133ZM10.3301 8.36133L10.6793 8.71912C10.7843 8.61669 10.9457 8.51131 11.1849 8.41496C11.3928 8.33119 11.6604 8.28125 12 8.28125C12.358 8.28125 12.493 8.36113 12.5351 8.40234L12.535 8.40243L12.5431 8.40993C12.6211 8.48302 12.6602 8.56558 12.6602 8.69531C12.6602 8.86969 12.5983 9.00913 12.4311 9.14331L12.4311 9.1433L12.4284 9.14549C12.246 9.29402 12.0417 9.36719 11.7949 9.36719H11.4434C11.2578 9.36719 11.0255 9.40467 10.8347 9.56606C10.628 9.74098 10.5625 9.98104 10.5625 10.1895V10.834C10.5625 11.0446 10.632 11.2834 10.8417 11.4544C11.0319 11.6095 11.2613 11.6445 11.4434 11.6445H11.8945C12.2712 11.6445 12.4944 11.7524 12.6394 11.9104L12.6394 11.9104L12.6443 11.9156C12.8307 12.113 12.9062 12.3113 12.9062 12.5273C12.9062 12.7579 12.8357 12.9633 12.6814 13.1588C12.5902 13.2717 12.3982 13.3867 11.9648 13.3867C11.6378 13.3867 11.3552 13.3409 11.1115 13.2569C10.8469 13.1617 10.6156 13.0417 10.4144 12.8989L10.4125 12.8975C10.2323 12.7709 9.98776 12.6458 9.70956 12.6692C9.38911 12.6962 9.17747 12.9019 9.05897 13.1202C9.05874 13.1206 9.05851 13.121 9.05828 13.1215L8.78997 13.6114L8.78996 13.6114L8.78874 13.6137C8.69945 13.7787 8.62761 13.98 8.64164 14.1998C8.65691 14.439 8.76998 14.6391 8.93955 14.7831C9.29803 15.0882 9.76077 15.3108 10.3016 15.4683L10.3015 15.4683L10.306 15.4696C10.845 15.6212 11.3731 15.6992 11.8887 15.6992C13.0484 15.6992 14.0091 15.4638 14.6772 14.9023C15.3535 14.3338 15.6641 13.525 15.6641 12.5566C15.6641 11.872 15.4078 11.2815 14.9062 10.8188C14.7336 10.6581 14.5541 10.5165 14.3678 10.3956C14.492 10.2941 14.6123 10.1821 14.7287 10.0603L14.7306 10.0583C15.1412 9.62382 15.3711 9.11237 15.3711 8.53711C15.3711 7.79438 15.0478 7.16913 14.4557 6.68559C13.8386 6.17764 12.9558 5.96875 11.9004 5.96875C11.4236 5.96875 10.9412 6.04099 10.4547 6.18183C9.94714 6.32876 9.50876 6.56305 9.15928 6.8975C9.01407 7.03485 8.87685 7.21747 8.82943 7.44982C8.77833 7.70023 8.84689 7.93094 8.97411 8.11639C8.97431 8.11668 8.9745 8.11696 8.9747 8.11725L9.31266 8.61255C9.43954 8.80074 9.65517 9.01054 9.97917 9.02627C10.2861 9.04117 10.5247 8.87118 10.6806 8.71784L10.3301 8.36133Z" fill="#F0F7FF" stroke="#1D1D1F"/>
</svg>
