<svg width="24" height="24" viewBox="0 0 24 24" fill="none" xmlns="http://www.w3.org/2000/svg">
<path d="M15.2118 5.62316L11.7731 5.65691L14.7131 4.05378L14.0174 1.57128L15.9693 3.05253L17.9324 1.55066L17.4168 3.57191L20.6531 3.94316L17.2856 5.25566L15.9431 7.59941L15.2118 5.62316Z" fill="#FFE36C"/>
<path d="M17.3007 2.50692L17.1582 3.06192L16.9463 3.89629L17.8013 3.99379L19.1025 4.14192L17.2725 4.85629L17.025 4.95192L16.8938 5.18254L16.0163 6.71442L15.6563 5.73942L15.4725 5.24254L14.9438 5.25004L13.2732 5.26692L14.6307 4.52629L15.1557 4.23942L14.9944 3.66379L14.6813 2.54629L15.5138 3.17817L15.9694 3.52317L16.4232 3.17629L17.3007 2.50692ZM15.9675 2.58004L13.5919 0.778169C13.515 0.720044 13.4082 0.793169 13.4344 0.885044L14.2707 3.86817L10.6257 5.85567C10.5338 5.90629 10.5694 6.04504 10.6744 6.04317L14.9513 6.00004L15.795 8.28192C15.825 8.36254 15.9338 8.37004 15.9769 8.29692L17.5463 5.55567L21.825 3.88692C21.9225 3.84942 21.9038 3.70504 21.8007 3.69379L17.8875 3.24754L18.4913 0.875669C18.5157 0.783794 18.4088 0.712544 18.3338 0.770669L15.9675 2.58004Z" fill="#FF8F00"/>
<path d="M17.7356 8.30436C17.4975 8.27061 16.3106 9.45373 15.4538 8.71123L15.4519 8.71311C14.9496 8.30536 14.4008 7.95856 13.8169 7.67998C9.73876 5.73561 4.85438 7.46436 2.90813 11.5444C0.963758 15.6225 2.69251 20.5069 6.77251 22.4531C10.8506 24.3975 15.735 22.6687 17.6813 18.5887C18.3131 17.265 18.5569 15.8569 18.4575 14.4919C18.45 14.3962 18.4331 14.1844 18.48 14.0269C18.8006 12.9506 19.9669 12.4144 19.9425 12.3637C19.9181 12.3112 17.9756 8.33811 17.7356 8.30436Z" fill="#4D4D4D"/>
<path d="M19.9891 12.3375C20.5124 12.0363 20.4202 10.8951 19.7833 9.78848C19.1464 8.68187 18.2059 8.02892 17.6826 8.33008C17.1594 8.63123 17.2516 9.77245 17.8885 10.8791C18.5254 11.9857 19.4659 12.6386 19.9891 12.3375Z" fill="#757575"/>
<path d="M19.5203 10.9025C19.7256 10.7839 19.7444 10.4319 19.5621 10.1162C19.3798 9.80053 19.0656 9.64074 18.8603 9.75931C18.6549 9.87788 18.6361 10.2299 18.8184 10.5456C19.0007 10.8612 19.3149 11.021 19.5203 10.9025Z" fill="#212121"/>
<path opacity="0.9" d="M10.1062 9.85686C10.62 11.3156 9.8681 12.1856 8.89498 12.7425C8.42998 13.0087 7.88998 13.125 7.41935 13.3819C6.50435 13.8806 5.94935 14.8425 5.15248 15.5119C4.95373 15.6787 4.72685 15.8325 4.4681 15.8606C4.1231 15.8981 3.7856 15.6956 3.57935 15.4162C3.37498 15.135 2.53686 12.4687 5.59685 9.74061C6.96373 8.52186 9.54373 8.25749 10.1062 9.85686Z" fill="#757575"/>
<path d="M7.84875 7.26004C8.54063 7.28254 9.95438 7.29192 11.7431 7.99504C12.345 8.23129 12.8531 8.56129 13.3988 8.89879C13.8394 9.17067 14.34 9.39754 14.8556 9.34879C15.0375 9.33192 15.2381 9.26067 15.3094 9.09192C15.3525 8.98692 15.3488 8.88004 15.3113 8.77504C15.2663 8.65129 15.1125 8.47879 14.8763 8.28567C14.539 8.05822 14.1856 7.85581 13.8188 7.68004C11.8763 6.75379 9.75188 6.66192 7.84875 7.26004Z" fill="url(#paint0_linear_3_505)"/>
<path d="M19.1494 8.93248C19.14 8.92311 19.1306 8.91186 19.1213 8.90248C19.1194 8.90061 19.1194 8.89873 19.1175 8.89873C19.0744 8.85561 19.0313 8.81436 18.9881 8.77311C18.9825 8.76748 18.975 8.76186 18.9694 8.75436C18.495 8.32498 18.0094 8.14311 17.6831 8.32873C17.16 8.62873 17.2519 9.77061 17.8894 10.8769C18.0198 11.103 18.1684 11.3181 18.3338 11.52C18.315 11.4656 17.6138 9.35998 18.0506 8.79561C18.4238 8.31936 19.0838 8.87623 19.1494 8.93248Z" fill="url(#paint1_linear_3_505)"/>
<path d="M16.53 13.9744C16.0762 13.6763 15.6319 13.2713 15.3562 12.2532C15.3206 12.1238 15.2006 11.4807 15.5475 11.3776C15.8475 11.2876 16.0706 11.7807 16.3294 12.2138C16.6106 12.6882 17.0662 13.0988 17.5556 13.3669C17.6981 13.4438 18.36 13.7419 17.925 14.1582C17.6381 14.4301 16.7962 14.1507 16.53 13.9744Z" fill="#212121"/>
<path d="M18.9093 10.02C18.9281 10.0125 20.8312 9.14815 20.6662 7.89377C20.5575 7.06502 20.235 6.65252 18.5287 6.24752C16.86 5.8519 16.0443 5.07752 16.0106 5.04377C15.8437 4.88252 15.8381 4.6144 16.0012 4.44565C16.1625 4.27877 16.4287 4.27315 16.5975 4.4344C16.6106 4.44565 17.3043 5.0869 18.7256 5.4244C20.3793 5.81627 21.3112 6.3094 21.5062 7.78127C21.7237 9.42752 19.9087 10.4531 19.3893 10.725C19.0668 10.8956 18.6956 10.1138 18.9093 10.02Z" fill="#C69461"/>
<path d="M16.5938 4.43623C16.4269 4.27498 16.1588 4.2806 15.9976 4.44748C15.8363 4.61623 15.8401 4.88248 16.0069 5.0456C16.0313 5.06998 16.4757 5.48998 17.3663 5.86873L17.5444 5.55748L18.2307 5.28935C17.1413 4.9406 16.6051 4.4456 16.5938 4.43623Z" fill="#F6BC41"/>
<defs>
<linearGradient id="paint0_linear_3_505" x1="7.88982" y1="6.47854" x2="15.7148" y2="9.01186" gradientUnits="userSpaceOnUse">
<stop stop-color="#FFF9C4" stop-opacity="0.1"/>
<stop offset="0.002" stop-color="#FFF9C4" stop-opacity="0.101"/>
<stop offset="0.378" stop-color="#FFFCA6" stop-opacity="0.263"/>
<stop offset="0.701" stop-color="#FFFE94" stop-opacity="0.401"/>
<stop offset="0.93" stop-color="#FFFF8D" stop-opacity="0.5"/>
</linearGradient>
<linearGradient id="paint1_linear_3_505" x1="19.1305" y1="10.7441" x2="17.0886" y2="8.05029" gradientUnits="userSpaceOnUse">
<stop offset="0.11" stop-color="#FFF9C4" stop-opacity="0"/>
<stop offset="1" stop-color="#FFFF8D"/>
</linearGradient>
</defs>
</svg>
