<svg width="24" height="24" viewBox="0 0 24 24" fill="none" xmlns="http://www.w3.org/2000/svg">
<path d="M21.2954 13.7723H11.4772V4.37329H21.2954L19.7609 9.07279L21.2954 13.7723Z" fill="#E95353"/>
<path d="M3.45153 0C3.03755 0 2.70154 0.33601 2.70154 0.749992V24H4.20152V0.749992C4.20152 0.33601 3.86551 0 3.45153 0Z" fill="#FFBD49"/>
<path d="M15.6188 2.08496H2.70154V11.4832H15.6188V2.08496Z" fill="#ED6262"/>
<path d="M11.4772 13.7723L15.6187 11.484H11.4772V13.7723Z" fill="#CD484B"/>
<path d="M2.70154 4.22622C2.70154 4.4745 2.90403 4.67699 3.15231 4.67699C3.40131 4.67699 3.60008 4.4745 3.60008 4.22622V3.24521C3.60008 3.03745 3.77033 2.86647 3.97882 2.86947H4.01334C4.21883 2.85521 4.38985 3.02024 4.38985 3.22496V4.3492C4.38985 4.5952 4.5721 4.81196 4.81737 4.82622C5.07464 4.83748 5.29139 4.63271 5.29139 4.37545V3.8002C5.29139 3.59171 5.45865 3.42146 5.67014 3.42146L5.69638 3.42446H5.70238C5.92213 3.42146 6.10137 3.6007 6.10137 3.82046V4.32295C6.10137 4.56818 6.28362 4.78571 6.5259 4.79997C6.78616 4.81196 6.99992 4.60646 6.99992 4.3492V3.59249C6.99992 3.37573 7.18515 3.21374 7.40191 3.21674C7.40191 3.21674 7.40491 3.21674 7.4079 3.21674H7.4109C7.63065 3.21374 7.81289 3.37573 7.81289 3.59249V4.72499C7.81289 4.968 7.99514 5.18475 8.23742 5.19901C8.49768 5.21028 8.71144 5.00551 8.71144 4.74824L8.71221 3.66824C8.71221 3.41174 8.92669 3.20548 9.18623 3.21897C9.42923 3.23173 9.61225 3.44998 9.61225 3.69371V4.33344C9.61902 4.57567 9.81774 4.77145 10.0615 4.77145C10.3098 4.77145 10.5123 4.56895 10.5123 4.32068V3.24521C10.5123 3.04721 10.6555 2.86947 10.9225 2.86947C11.128 2.85521 11.3013 3.02024 11.3013 3.22496V4.3492C11.3013 4.5952 11.4835 4.81196 11.7265 4.82622C11.9868 4.83748 12.2006 4.63271 12.2006 4.37545V3.8002C12.2006 3.59171 12.3708 3.42146 12.5793 3.42146L12.6055 3.42446H12.6115C12.8313 3.42146 13.0105 3.6007 13.0105 3.82046V4.17822C13.0105 4.42422 13.1928 4.64098 13.4381 4.65524C13.6953 4.6665 13.9121 4.46173 13.9121 4.20447V3.73722C13.9121 3.52046 14.0943 3.35847 14.3111 3.36147C14.3141 3.36147 14.3141 3.36147 14.3171 3.36147C14.3201 3.36147 14.3201 3.36147 14.3231 3.36147C14.5398 3.35847 14.7221 3.52046 14.7221 3.73722V4.14748C14.7221 4.39048 14.9043 4.60724 15.1466 4.6215C15.4068 4.63276 15.6206 4.42799 15.6206 4.17073V2.08496H2.70154V4.22622Z" fill="#E95353"/>
<path d="M21.2955 4.37329H17.6048C17.3596 4.37329 17.1593 4.57356 17.1593 4.81956C17.1593 5.06557 17.3596 5.26279 17.6056 5.26279H19.6891C19.8945 5.26279 20.0641 5.43155 20.0611 5.63781C20.0611 5.91833 19.9006 6.04358 19.7093 6.04358H17.4841C17.2411 6.04358 17.0266 6.22432 17.0123 6.4666C17.0011 6.72159 17.2036 6.93535 17.4586 6.93535H19.1408C19.3471 6.93535 19.5159 7.10111 19.5159 7.31037L19.5129 7.33589V7.34116C19.5159 7.55864 19.3381 7.73566 19.1214 7.73566H17.5111C17.2681 7.73566 17.0536 7.91568 17.0394 8.15641C17.0281 8.41368 17.2306 8.62517 17.4856 8.62517H19.3479C19.5624 8.62517 19.7221 8.80818 19.7199 9.02266C19.7199 9.02266 19.7199 9.02566 19.7199 9.02866V9.03166C19.7229 9.24914 19.5624 9.42915 19.3479 9.42915H17.1136C16.8736 9.42915 16.6591 9.60917 16.6449 9.8499C16.6336 10.1072 16.8361 10.3187 17.0911 10.3187L19.2736 10.3194C19.5271 10.3194 19.7319 10.5317 19.7184 10.7882C19.7056 11.0289 19.4897 11.2097 19.2489 11.2097H17.5022C17.2622 11.2165 17.0687 11.413 17.0687 11.6544C17.0687 11.9004 17.2689 12.1007 17.5149 12.1007H19.6914C19.8969 12.1007 20.0664 12.2695 20.0634 12.4749V12.5065C20.0777 12.7097 19.9149 12.8807 19.7116 12.8807H17.4864C17.2434 12.8807 17.0289 13.0607 17.0147 13.3015C17.0034 13.5587 17.2059 13.7702 17.4609 13.7702H21.2987L19.7642 9.07071L21.2955 4.37329Z" fill="#E24D4D"/>
</svg>
