<svg width="24" height="24" viewBox="0 0 24 24" fill="none" xmlns="http://www.w3.org/2000/svg">
<g clip-path="url(#clip0_8_1832)">
<path d="M9.22852 13.1719C8.97461 13.1719 8.84766 13.0449 8.84766 12.791V12.0176C8.84766 11.7949 8.90625 11.6016 9.02344 11.4375L12.2695 6.86719C12.4141 6.66406 12.5957 6.5625 12.8145 6.5625H13.6758C13.9336 6.5625 14.0625 6.68945 14.0625 6.94336V11.7188H14.7715C15.0254 11.7188 15.1523 11.8457 15.1523 12.0996V12.791C15.1523 13.0449 15.0273 13.1719 14.7773 13.1719H14.0625V14.6191C14.0625 14.873 13.9355 15 13.6816 15H12.8027C12.5488 15 12.4219 14.873 12.4219 14.6191V13.1719H9.22852ZM10.4824 11.7188H12.4219V9.45117C12.4219 9.29492 12.4297 9.13867 12.4453 8.98242H12.4219L10.4824 11.7188Z" fill="black"/>
</g>
<defs>
<clipPath id="clip0_8_1832">
<rect width="24" height="24" fill="white"/>
</clipPath>
</defs>
</svg>
