<svg width="24" height="24" viewBox="0 0 24 24" fill="none" xmlns="http://www.w3.org/2000/svg">
<g clip-path="url(#clip0_3_560)">
<path d="M10.4004 8.33203C10.2988 8.14062 10.3672 7.99219 10.6055 7.88672C10.832 7.78516 11.0684 7.64258 11.3145 7.45898C11.5605 7.27539 11.7617 7.08594 11.918 6.89062C12.0938 6.67188 12.2617 6.5625 12.4219 6.5625H13.3535C13.5879 6.5625 13.7051 6.67969 13.7051 6.91406V14.6484C13.7051 14.8828 13.5879 15 13.3535 15H12.416C12.1816 15 12.0645 14.8828 12.0645 14.6484V9.07617C12.0645 8.91992 12.0723 8.76367 12.0879 8.60742H12.0645C11.9434 8.75977 11.8105 8.89062 11.666 9C11.5215 9.10938 11.375 9.19531 11.2266 9.25781C11.043 9.33594 10.9043 9.28516 10.8105 9.10547L10.4004 8.33203Z" fill="black"/>
</g>
<defs>
<clipPath id="clip0_3_560">
<rect width="24" height="24" fill="white"/>
</clipPath>
</defs>
</svg>
