<svg width="24" height="24" viewBox="0 0 24 24" fill="none" xmlns="http://www.w3.org/2000/svg">
<path d="M19.5667 9.20003C19.5667 7.40003 18.5792 5.72606 17.1334 5.33336C15.9906 5.02296 12.0001 5.13336 12.0001 5.13336L8.06552 5.10083C7.83219 5.10083 9.23339 7.20003 9.23339 9.20003V13.1C9.23917 13.2982 9.16922 13.4911 9.03778 13.6395C8.90633 13.7879 8.72326 13.8807 8.52585 13.8988L19.5667 13.8667V9.20003Z" fill="#61B2E4"/>
<path d="M11.5334 9.19998V13.1333C11.5395 13.23 11.5262 13.327 11.494 13.4184C11.4619 13.5098 11.4116 13.5938 11.3463 13.6654C11.2809 13.7369 11.2018 13.7946 11.1137 13.8349C11.0256 13.8752 10.9302 13.8974 10.8334 13.9H5.10005C5.00585 13.8936 4.91384 13.8688 4.82929 13.8267C4.74475 13.7847 4.66933 13.7264 4.60738 13.6552C4.54544 13.584 4.49817 13.5012 4.46831 13.4116C4.43845 13.3221 4.42658 13.2275 4.43338 13.1333V8.86665C4.45656 8.28067 4.60547 7.70653 4.87003 7.18316C5.13459 6.65979 5.50861 6.19944 5.96671 5.83332C6.53754 5.35802 7.25725 5.09845 8.00005 5.09998C8.22361 5.10567 8.44645 5.12796 8.66671 5.16665C10.3 5.53332 11.5334 7.19998 11.5334 9.19998Z" fill="#3F3F3F"/>
<path d="M13.4591 10.51V10.81C13.4516 10.9069 13.4823 11.003 13.5445 11.0777C13.6068 11.1524 13.6957 11.1999 13.7924 11.21H17.1258V11.91C17.1183 12.0069 17.149 12.103 17.2112 12.1777C17.2735 12.2524 17.3624 12.2999 17.4591 12.31H19.9258C20.0223 12.2994 20.111 12.2518 20.1731 12.1772C20.2353 12.1026 20.2661 12.0068 20.2591 11.91V10.51C20.2666 10.413 20.2359 10.317 20.1737 10.2423C20.1114 10.1676 20.0225 10.1201 19.9258 10.11H13.7924C13.6959 10.1206 13.6073 10.1682 13.5451 10.2428C13.4829 10.3173 13.4521 10.4131 13.4591 10.51Z" fill="#EA5A47"/>
<path d="M13.1001 19.8V13.8844L10.8291 13.8871L10.8334 15.4666V19.8" fill="white"/>
</svg>
