<svg width="24" height="24" viewBox="0 0 24 24" fill="none" xmlns="http://www.w3.org/2000/svg">
<g clip-path="url(#clip0_3_561)">
<path d="M9.43945 15C9.14648 15 9 14.873 9 14.6191V14.3379C9 14.1348 9.09375 13.9336 9.28125 13.7344L11.0332 11.8887C11.5605 11.3301 12.043 10.834 12.4805 10.4004C12.918 9.96289 13.1367 9.52148 13.1367 9.07617C13.1367 8.63086 13.0254 8.30469 12.8027 8.09766C12.584 7.88672 12.3047 7.78125 11.9648 7.78125C11.4258 7.78125 11.0508 7.90625 10.8398 8.15625C10.6289 8.40625 10.4766 8.67383 10.3828 8.95898C10.293 9.23633 10.1289 9.33594 9.89062 9.25781L9.29883 9.05859C9.10742 8.99219 9.05273 8.80859 9.13477 8.50781C9.28711 7.94922 9.59766 7.4707 10.0664 7.07227C10.5352 6.66992 11.2305 6.46875 12.1523 6.46875C13.1133 6.46875 13.8105 6.7168 14.2441 7.21289C14.6777 7.70508 14.8945 8.24023 14.8945 8.81836C14.8945 9.57617 14.5781 10.2422 13.9453 10.8164C13.3125 11.3867 12.7383 11.9434 12.2227 12.4863L11.2266 13.5352V13.5703C11.4609 13.5547 11.6562 13.5469 11.8125 13.5469H14.5488C14.8418 13.5469 14.9883 13.6738 14.9883 13.9277V14.6191C14.9883 14.873 14.8418 15 14.5488 15H9.43945Z" fill="black"/>
</g>
<defs>
<clipPath id="clip0_3_561">
<rect width="24" height="24" fill="white"/>
</clipPath>
</defs>
</svg>
