<svg width="24" height="24" viewBox="0 0 24 24" fill="none" xmlns="http://www.w3.org/2000/svg">
<g clip-path="url(#clip0_3_563)">
<path d="M9.26367 14.4023C9.11133 14.2734 9.09961 14.0898 9.22852 13.8516L9.49805 13.3594C9.62695 13.1211 9.83594 13.1035 10.125 13.3066C10.3672 13.4785 10.6406 13.6191 10.9453 13.7285C11.25 13.834 11.5898 13.8867 11.9648 13.8867C12.4805 13.8867 12.8496 13.748 13.0723 13.4707C13.2949 13.1895 13.4062 12.875 13.4062 12.5273C13.4062 12.1719 13.2734 11.8535 13.0078 11.5723C12.7461 11.2871 12.375 11.1445 11.8945 11.1445H11.4434C11.1895 11.1445 11.0625 11.041 11.0625 10.834V10.1895C11.0625 9.97461 11.1895 9.86719 11.4434 9.86719H11.7949C12.1543 9.86719 12.4707 9.75586 12.7441 9.5332C13.0215 9.31055 13.1602 9.03125 13.1602 8.69531C13.1602 8.43359 13.0684 8.2168 12.8848 8.04492C12.7051 7.86914 12.4102 7.78125 12 7.78125C11.6133 7.78125 11.2793 7.83789 10.998 7.95117C10.7168 8.06445 10.4941 8.20117 10.3301 8.36133C10.0957 8.5918 9.89453 8.58203 9.72656 8.33203L9.38672 7.83398C9.25781 7.64648 9.29688 7.45508 9.50391 7.25977C9.78516 6.99023 10.1484 6.79102 10.5938 6.66211C11.0391 6.5332 11.4746 6.46875 11.9004 6.46875C12.9043 6.46875 13.6504 6.66992 14.1387 7.07227C14.627 7.4707 14.8711 7.95898 14.8711 8.53711C14.8711 8.9668 14.7031 9.35938 14.3672 9.71484C14.0312 10.0664 13.6758 10.3086 13.3008 10.4414V10.4648C13.7461 10.5742 14.168 10.8145 14.5664 11.1855C14.9648 11.5527 15.1641 12.0098 15.1641 12.5566C15.1641 13.4121 14.8945 14.0664 14.3555 14.5195C13.8164 14.9727 12.9941 15.1992 11.8887 15.1992C11.4238 15.1992 10.9414 15.1289 10.4414 14.9883C9.94531 14.8438 9.55273 14.6484 9.26367 14.4023Z" fill="black"/>
</g>
<defs>
<clipPath id="clip0_3_563">
<rect width="24" height="24" fill="white"/>
</clipPath>
</defs>
</svg>
