<svg width="24" height="24" viewBox="0 0 24 24" fill="none" xmlns="http://www.w3.org/2000/svg">
<g clip-path="url(#clip0_3_204)">
<path d="M22.0394 6.54132C22.0416 6.74478 22.0004 6.94637 21.9186 7.13264C21.8367 7.31892 21.7161 7.48558 21.5647 7.62152C21.4133 7.75745 21.2346 7.85952 21.0407 7.92092C20.8467 7.98232 20.6418 8.00162 20.4398 7.97755C20.2378 7.95349 20.0432 7.88659 19.869 7.78134C19.6949 7.67609 19.5452 7.5349 19.43 7.36721C19.3148 7.19951 19.2367 7.00916 19.2009 6.80887C19.1651 6.60858 19.1724 6.40296 19.2224 6.20573C19.1746 6.2155 19.126 6.22043 19.0773 6.22045C18.9412 6.22074 18.8078 6.18217 18.6928 6.10927C18.5778 6.03637 18.4861 5.93218 18.4283 5.80892C18.3705 5.68567 18.349 5.54848 18.3665 5.41347C18.384 5.27847 18.4396 5.15125 18.5269 5.04678C18.6142 4.9423 18.7295 4.86491 18.8592 4.82369C18.9889 4.78246 19.1278 4.77913 19.2593 4.81407C19.3909 4.84901 19.5098 4.92077 19.602 5.02093C19.6942 5.12109 19.7559 5.24549 19.7798 5.3795C19.9931 5.22593 20.2448 5.1343 20.5069 5.11474C20.7691 5.09518 21.0315 5.14844 21.2653 5.26864C21.4991 5.38884 21.6951 5.57131 21.8317 5.7959C21.9683 6.02049 22.0401 6.27846 22.0394 6.54132ZM20.8142 9.40946C20.6777 9.40946 20.5442 9.44995 20.4307 9.5258C20.3171 9.60165 20.2287 9.70947 20.1764 9.83561C20.1242 9.96174 20.1105 10.1005 20.1371 10.2345C20.1638 10.3684 20.2295 10.4914 20.3261 10.5879C20.4226 10.6844 20.5456 10.7502 20.6795 10.7768C20.8134 10.8035 20.9522 10.7898 21.0784 10.7375C21.2045 10.6853 21.3123 10.5968 21.3882 10.4833C21.464 10.3698 21.5045 10.2363 21.5045 10.0998C21.5045 9.91671 21.4317 9.74115 21.3023 9.61172C21.1728 9.48228 20.9973 9.40946 20.8142 9.40946ZM19.1786 3.49123C19.3152 3.49124 19.4486 3.45076 19.5622 3.3749C19.6757 3.29904 19.7642 3.19121 19.8165 3.06506C19.8687 2.93891 19.8824 2.80009 19.8557 2.66618C19.8291 2.53226 19.7633 2.40925 19.6667 2.31271C19.5702 2.21617 19.4471 2.15044 19.3132 2.12383C19.1793 2.09722 19.0405 2.11093 18.9143 2.16321C18.7882 2.2155 18.6804 2.30402 18.6046 2.41758C18.5288 2.53113 18.4883 2.66463 18.4884 2.80117C18.4884 2.9842 18.5612 3.15972 18.6906 3.28913C18.82 3.41853 18.9956 3.49123 19.1786 3.49123Z" fill="#FFF350"/>
<path d="M16.701 9.25156L18.3579 7.59466C18.4006 7.55194 18.4346 7.50122 18.4577 7.44538C18.4808 7.38955 18.4928 7.3297 18.4928 7.26926C18.4928 7.20882 18.4808 7.14898 18.4577 7.09315C18.4346 7.03731 18.4006 6.98659 18.3579 6.94387L17.0562 5.6422C17.0135 5.59944 16.9628 5.56552 16.9069 5.54238C16.8511 5.51924 16.7913 5.50732 16.7308 5.50732C16.6704 5.50732 16.6105 5.51924 16.5547 5.54238C16.4989 5.56552 16.4481 5.59944 16.4054 5.6422L14.7485 7.29911C13.6009 8.44666 12.1394 9.22885 10.548 9.54711C8.9566 9.86538 7.49504 10.6476 6.34747 11.7951L0.134773 18.0079C0.0484788 18.0942 0 18.2113 0 18.3333C0 18.4553 0.0484788 18.5724 0.134773 18.6587L5.3414 23.8653C5.38411 23.9081 5.43484 23.942 5.49068 23.9652C5.54652 23.9883 5.60637 24.0002 5.66681 24.0002C5.72726 24.0002 5.78711 23.9883 5.84295 23.9652C5.89879 23.942 5.94952 23.9081 5.99223 23.8653L12.2049 17.6526C13.3524 16.5051 14.1346 15.0435 14.4529 13.4521C14.7712 11.8607 15.5534 10.3991 16.701 9.25156Z" fill="#00B248"/>
<path d="M18.3578 6.94401L17.0562 5.64234C16.9698 5.55605 16.8528 5.50757 16.7308 5.50757C16.6087 5.50757 16.4917 5.55605 16.4054 5.64234L14.7485 7.29925C13.6009 8.4468 12.1393 9.22899 10.5479 9.54725C10.0358 9.65145 9.5349 9.80428 9.05188 10.0037L13.9964 14.9482C14.1958 14.4652 14.3487 13.9643 14.4529 13.4522C14.7712 11.8608 15.5533 10.3992 16.7009 9.25165L18.3578 7.59474C18.4005 7.55203 18.4344 7.50131 18.4576 7.44549C18.4807 7.38966 18.4926 7.32982 18.4926 7.26939C18.4927 7.20895 18.4807 7.14911 18.4576 7.09328C18.4345 7.03745 18.4006 6.98673 18.3578 6.94401Z" fill="#FFC107"/>
<path d="M23.7709 1.08107L22.9147 0.224887C22.612 -0.0778363 22.1212 -0.0778363 21.8184 0.224887L20.9623 1.08107C20.6595 1.38379 20.6595 1.8746 20.9623 2.17732L21.8184 3.0335C22.1212 3.33623 22.612 3.33623 22.9147 3.0335L23.7709 2.17733C24.0736 1.8746 24.0736 1.38379 23.7709 1.08107Z" fill="#C79100"/>
<path d="M11.5243 13.8567C12.2869 13.8567 12.9051 13.2384 12.9051 12.4758C12.9051 11.7132 12.2869 11.095 11.5243 11.095C10.7617 11.095 10.1434 11.7132 10.1434 12.4758C10.1434 13.2384 10.7617 13.8567 11.5243 13.8567Z" fill="#FFF350"/>
<path d="M3.8457 14.2969L9.70213 20.1533L6.64403 23.2114L0.787603 17.355L3.8457 14.2969Z" fill="#66FFA6"/>
</g>
<defs>
<clipPath id="clip0_3_204">
<rect width="24" height="24" fill="white"/>
</clipPath>
</defs>
</svg>
