<svg width="23" height="24" viewBox="0 0 23 24" fill="none" xmlns="http://www.w3.org/2000/svg">
<g clip-path="url(#clip0_3_214)">
<path d="M21.6901 0H10.8451C10.5298 0 10.2743 0.255811 10.2743 0.57137V14.8556C10.2743 15.1712 10.5298 15.427 10.8451 15.427H21.6901C22.0054 15.427 22.2609 15.1712 22.2609 14.8556V0.57137C22.2609 0.255811 22.0054 0 21.6901 0Z" fill="#E53935"/>
<path d="M10.2743 0.697754V17.1436H11.4159C11.5673 17.1436 11.7124 17.0834 11.8195 16.9762C11.9265 16.8691 11.9867 16.7237 11.9867 16.5722V2.37861C11.9867 1.22016 10.2743 1.33957 10.2743 0.697754Z" fill="#D50000"/>
<path d="M0 1.71655H11.4158C11.5672 1.71655 11.7124 1.77675 11.8194 1.8839C11.9265 1.99106 11.9866 2.13639 11.9866 2.28792V16.5722C11.9866 16.7237 11.9265 16.869 11.8194 16.9762C11.7124 17.0833 11.5672 17.1435 11.4158 17.1435H0V1.71655Z" fill="#FF5252"/>
<path d="M1.14158 0.00219727H0.570792C0.255552 0.00219727 0 0.258008 0 0.573567V23.4284C0 23.7439 0.255552 23.9997 0.570792 23.9997H1.14158C1.45682 23.9997 1.71237 23.7439 1.71237 23.4284V0.573567C1.71237 0.258008 1.45682 0.00219727 1.14158 0.00219727Z" fill="#BCBCBC"/>
</g>
<defs>
<clipPath id="clip0_3_214">
<rect width="22.2609" height="24" fill="white"/>
</clipPath>
</defs>
</svg>
