<svg width="24" height="24" viewBox="0 0 24 24" fill="none" xmlns="http://www.w3.org/2000/svg">
<path d="M9.22852 13.6719H11.9219V14.6191C11.9219 14.8232 11.9732 15.068 12.1635 15.2583C12.3539 15.4487 12.5987 15.5 12.8027 15.5H13.6816C13.8857 15.5 14.1305 15.4487 14.3208 15.2583C14.5112 15.068 14.5625 14.8232 14.5625 14.6191V13.6719H14.7773C14.9814 13.6719 15.2258 13.6195 15.4149 13.4275C15.6025 13.2369 15.6523 12.9931 15.6523 12.791V12.0996C15.6523 11.8956 15.601 11.6507 15.4107 11.4604C15.2204 11.2701 14.9755 11.2188 14.7715 11.2188H14.5625V6.94336C14.5625 6.73739 14.5096 6.4915 14.3167 6.30147C14.1251 6.11283 13.8799 6.0625 13.6758 6.0625H12.8145C12.4095 6.0625 12.0854 6.26359 11.8621 6.57731L11.8619 6.57766L8.61657 11.1469C8.61643 11.1471 8.61628 11.1473 8.61614 11.1475C8.43237 11.405 8.34766 11.7024 8.34766 12.0176V12.791C8.34766 12.995 8.399 13.2399 8.58932 13.4302C8.77963 13.6205 9.02449 13.6719 9.22852 13.6719ZM11.9219 10.5525V11.2188H11.4497L11.9219 10.5525Z" fill="#E20059" stroke="#EBE1DC"/>
</svg>
