<svg width="24" height="24" viewBox="0 0 24 24" fill="none" xmlns="http://www.w3.org/2000/svg">
<path d="M10.4018 7.43005C10.4023 7.42987 10.4027 7.42969 10.4031 7.4295L10.6055 7.88672C10.832 7.78516 11.0684 7.64258 11.3144 7.45898C11.5605 7.27539 11.7617 7.08594 11.918 6.89062C12.0937 6.67188 12.2617 6.5625 12.4219 6.5625H13.3535C13.5879 6.5625 13.7051 6.67969 13.7051 6.91406V14.6484C13.7051 14.8828 13.5879 15 13.3535 15H12.416C12.1816 15 12.0644 14.8828 12.0644 14.6484V9.32176C12.0328 9.34821 12.0006 9.37386 11.9677 9.3987C11.8382 9.49675 11.7038 9.58179 11.5644 9.65209M10.4018 7.43005C10.588 7.34651 10.7925 7.22457 11.0155 7.05822C11.2349 6.89455 11.4031 6.73382 11.5275 6.57828L11.5282 6.57743C11.7306 6.32561 12.0272 6.0625 12.4219 6.0625H13.3535C13.5478 6.0625 13.7853 6.1114 13.9707 6.29684C14.1562 6.48227 14.2051 6.7198 14.2051 6.91406V14.6484C14.2051 14.8427 14.1562 15.0802 13.9707 15.2657C13.7853 15.4511 13.5478 15.5 13.3535 15.5H12.416C12.2218 15.5 11.9842 15.4511 11.7988 15.2657C11.6134 15.0802 11.5644 14.8427 11.5644 14.6484V9.65209M10.4018 7.43005C10.2342 7.50443 10.0289 7.63432 9.92133 7.868C9.80189 8.12734 9.86061 8.38145 9.95866 8.56628L10.4002 8.33213L9.95871 8.56639L10.3681 9.33847M10.4018 7.43005L10.3681 9.33847M11.5644 9.65209C11.5171 9.67599 11.4691 9.6982 11.4206 9.71863L11.2266 9.25781M11.5644 9.65209V9.07617C11.5644 9.07504 11.5644 9.07391 11.5645 9.07278C11.453 9.14823 11.3403 9.20991 11.2266 9.25781M11.2266 9.25781L11.4223 9.71789C11.2554 9.78892 11.0383 9.83037 10.8129 9.74783C10.5899 9.66615 10.4511 9.49679 10.3681 9.33847M11.2266 9.25781L10.3681 9.33847M10.3681 9.33847L10.3688 9.33972L10.8105 9.10547L10.3673 9.33675C10.3675 9.33732 10.3678 9.33789 10.3681 9.33847Z" fill="#FAFAFA" stroke="#FF3D00"/>
</svg>
