<svg width="28" height="24" viewBox="0 0 28 24" fill="none" xmlns="http://www.w3.org/2000/svg">
<g clip-path="url(#clip0_3_191)">
<path d="M20.4534 16.0237H7.05612C6.31798 16.0237 5.7196 16.6207 5.7196 17.3571V18.7624C5.7196 19.4988 6.31798 20.0958 7.05612 20.0958H20.4534C21.1915 20.0958 21.7899 19.4988 21.7899 18.7624V17.3571C21.7899 16.6207 21.1915 16.0237 20.4534 16.0237Z" fill="#212121"/>
<path d="M27.1858 23.0411L25.8 20.0662L17.7809 18.0582H17.6727L17.4455 17.5901C17.3067 17.3014 17.0679 17.0724 16.7731 16.9456C16.4783 16.8188 16.1475 16.8026 15.8417 16.9001C15.1723 17.1326 14.4718 17.2639 13.7634 17.2898C13.063 17.2645 12.3703 17.1344 11.7085 16.904C11.4039 16.8059 11.074 16.8206 10.7795 16.9455C10.4849 17.0704 10.2453 17.2971 10.1047 17.584L9.86712 18.0647H9.75772L1.74215 20.0644L0.0715004 23.035C0.0205175 23.1367 -0.00357108 23.2496 0.00152291 23.3632C0.00661691 23.4767 0.0407243 23.5871 0.100605 23.6838C0.160486 23.7805 0.244152 23.8603 0.343656 23.9156C0.44316 23.971 0.555197 24 0.669125 24H26.585C26.6984 24.0001 26.8099 23.9713 26.909 23.9165C27.0082 23.8617 27.0917 23.7826 27.1518 23.6867C27.2119 23.5908 27.2465 23.4812 27.2525 23.3683C27.2584 23.2554 27.2355 23.1428 27.1858 23.0411Z" fill="#FF5722"/>
<path d="M27.1857 23.0411L25.8001 20.0661L17.781 18.0581H17.6754L17.4464 17.5879C17.3073 17.2995 17.0685 17.071 16.7738 16.9444C16.4792 16.8179 16.1486 16.802 15.8431 16.8995C15.1732 17.1323 14.4723 17.2638 13.7634 17.2897C13.6347 17.2897 13.4979 17.283 13.3546 17.2691C13.036 17.2338 12.7152 17.3127 12.4495 17.4917C12.1839 17.6707 11.9907 17.9381 11.9045 18.2461L11.5548 19.5484C11.5051 19.7308 11.4949 19.9216 11.5249 20.1082C11.5548 20.2948 11.6243 20.4729 11.7286 20.6306C11.8329 20.7884 11.9697 20.9222 12.1298 21.0231C12.29 21.124 12.4698 21.1897 12.6574 21.2159C12.9791 21.2556 13.3028 21.2772 13.627 21.2807V23.9999H26.5851C26.6985 23.9999 26.8099 23.9711 26.9091 23.9163C27.0082 23.8614 27.0917 23.7824 27.1517 23.6865C27.2118 23.5906 27.2464 23.4811 27.2524 23.3682C27.2583 23.2552 27.2354 23.1427 27.1857 23.0411Z" fill="#DD2C00"/>
<path d="M1.74207 20.0644L3.08199 22.6301C3.14077 22.7427 3.23054 22.8362 3.34076 22.8997C3.45098 22.9631 3.57705 22.9938 3.70417 22.9882C3.83129 22.9826 3.95416 22.9409 4.05834 22.868C4.16252 22.7952 4.24368 22.6941 4.29228 22.5768L5.74701 19.0625" fill="#66FFA6"/>
<path d="M25.8001 20.0662L24.4557 22.633C24.3969 22.7454 24.307 22.8388 24.1968 22.9021C24.0865 22.9654 23.9605 22.996 23.8335 22.9903C23.7064 22.9846 23.5836 22.9428 23.4795 22.8699C23.3754 22.797 23.2943 22.696 23.2458 22.5787L21.7898 19.062" fill="#00E676"/>
<path d="M6.38851 17.4443H8.65625C8.76207 17.4443 8.86637 17.4694 8.96058 17.5175C9.05478 17.5656 9.13619 17.6353 9.19811 17.7209C9.26003 17.8065 9.30069 17.9056 9.31674 18.0099C9.33279 18.1142 9.32377 18.2209 9.29043 18.3211L8.19609 21.6093C8.15223 21.741 8.06822 21.8558 7.95579 21.9377C7.84336 22.0195 7.70812 22.0643 7.56895 22.0658C7.42978 22.0673 7.29363 22.0253 7.17949 21.9459C7.06535 21.8664 6.97892 21.7534 6.93228 21.6226L5.75868 18.3346C5.72277 18.234 5.71162 18.1263 5.72617 18.0204C5.74071 17.9146 5.78053 17.8139 5.84226 17.7266C5.90399 17.6393 5.98583 17.5681 6.08089 17.519C6.17596 17.4699 6.28146 17.4443 6.38851 17.4443ZM18.2091 18.3346L19.3824 21.6228C19.4291 21.7536 19.5155 21.8666 19.6296 21.9461C19.7438 22.0255 19.8799 22.0675 20.0191 22.066C20.1583 22.0645 20.2935 22.0197 20.4059 21.9379C20.5184 21.856 20.6024 21.7412 20.6462 21.6095L21.7406 18.3213C21.774 18.2211 21.783 18.1144 21.767 18.0101C21.7509 17.9057 21.7102 17.8067 21.6483 17.7211C21.5864 17.6355 21.505 17.5658 21.4107 17.5177C21.3165 17.4696 21.2122 17.4445 21.1064 17.4445H18.8382C18.7312 17.4446 18.6258 17.4702 18.5308 17.5194C18.4358 17.5685 18.3541 17.6397 18.2924 17.7269C18.2307 17.8141 18.1909 17.9149 18.1764 18.0206C18.1618 18.1264 18.1732 18.2341 18.2091 18.3346Z" fill="#373737"/>
<path d="M13.6271 0C11.4777 0.0360458 9.43022 0.920434 7.93307 2.45947C6.43591 3.99851 5.61113 6.06675 5.63937 8.21123C5.63937 9.90621 6.14057 13.0352 6.99908 14.6397C7.12872 14.8821 7.31187 15.092 7.53469 15.2534C8.46865 15.9338 11.4446 17.9904 13.6271 17.9992C15.6607 17.991 18.3831 16.2058 19.5007 15.4113C19.8345 15.173 20.0801 14.8312 20.199 14.4392C20.6218 13.0604 21.6148 9.6668 21.6148 8.21123C21.6431 6.06676 20.8183 3.99852 19.3212 2.45948C17.824 0.920438 15.7766 0.0360458 13.6271 0Z" fill="#FF3D00"/>
<path d="M6.83626 7.86889C6.99965 11.9253 10.5457 13.9443 13.6217 13.9834C16.6714 13.9126 20.3481 12.0092 20.4179 7.81782C20.4202 7.76466 20.4094 7.71175 20.3862 7.66381C20.3631 7.61587 20.3284 7.57438 20.2853 7.54305C20.2422 7.51171 20.192 7.49151 20.1392 7.48423C20.0863 7.47695 20.0325 7.48283 19.9825 7.50134C17.9621 8.36088 15.8124 8.87926 13.6215 9.03525C11.6217 9.02558 9.06464 8.20563 7.26969 7.51961C7.21702 7.5009 7.16041 7.496 7.10529 7.50536C7.05017 7.51473 6.99839 7.53806 6.95489 7.57311C6.9114 7.60816 6.87765 7.65376 6.85687 7.70555C6.8361 7.75734 6.829 7.81358 6.83626 7.86889Z" fill="#424242"/>
<path d="M6.83626 7.86889C6.99965 11.9253 10.5457 13.1735 13.6217 13.2126C16.6714 13.1418 20.3481 12.0092 20.4179 7.81782C20.4202 7.76466 20.4094 7.71175 20.3862 7.66381C20.3631 7.61587 20.3284 7.57438 20.2853 7.54305C20.2422 7.51171 20.192 7.49151 20.1392 7.48423C20.0863 7.47695 20.0325 7.48283 19.9825 7.50134C17.9621 8.36088 15.8124 8.87926 13.6215 9.03525C11.6217 9.02558 9.06464 8.20563 7.26969 7.51961C7.21702 7.5009 7.16041 7.496 7.10529 7.50536C7.05017 7.51473 6.99839 7.53806 6.95489 7.57311C6.9114 7.60816 6.87765 7.65376 6.85687 7.70555C6.8361 7.75734 6.829 7.81358 6.83626 7.86889Z" fill="#FAFAFA"/>
</g>
<defs>
<clipPath id="clip0_3_191">
<rect width="27.2542" height="24" fill="white"/>
</clipPath>
</defs>
</svg>
