<svg width="24" height="24" viewBox="0 0 24 24" fill="none" xmlns="http://www.w3.org/2000/svg">
<g clip-path="url(#clip0_3_29)">
<path d="M20.4844 3.375H3.51563C1.57711 3.375 0 4.95211 0 6.89063V19.9219C0 20.3102 0.314813 20.625 0.703126 20.625C1.09144 20.625 1.40625 20.3102 1.40625 19.9219V15.5625H22.5937V19.875C22.5937 20.2633 22.9086 20.5781 23.2969 20.5781C23.6852 20.5781 24 20.2633 24 19.875V6.89063C24 4.95211 22.4229 3.375 20.4844 3.375ZM4.26559 4.78125H5.67184V14.1563H4.26559V4.78125ZM7.07814 4.78125H8.48439V14.1563H7.07814V4.78125ZM9.8906 4.78125H11.2969V14.1563H9.8906V4.78125ZM12.7032 4.78125H14.1095V14.1563H12.7032V4.78125ZM15.5157 4.78125H16.922V14.1563H15.5157V4.78125ZM18.3282 4.78125H19.7345V14.1563H18.3282V4.78125ZM1.40625 6.89063C1.40625 5.95665 2.01666 5.16296 2.85933 4.88635V14.1563H1.40625V6.89063ZM21.1407 14.1563V4.88635C21.9833 5.163 22.5937 5.95665 22.5937 6.89063V14.1563H21.1407Z" fill="#392E6E"/>
<path d="M20.4843 3.375H12V15.5625H22.5938V19.875C22.5938 20.2633 22.9086 20.5781 23.2969 20.5781C23.6852 20.5781 24 20.2633 24 19.875V6.89063C24 4.95211 22.4229 3.375 20.4843 3.375ZM14.1094 14.1563H12.7031V4.78125H14.1094V14.1563ZM16.9219 14.1563H15.5157V4.78125H16.9219V14.1563ZM19.7344 14.1563H18.3282V4.78125H19.7344V14.1563ZM22.5937 14.1563H21.1407V4.88635C21.9833 5.163 22.5937 5.95665 22.5937 6.89063V14.1563Z" fill="#2B2256"/>
</g>
<defs>
<clipPath id="clip0_3_29">
<rect width="24" height="24" fill="white"/>
</clipPath>
</defs>
</svg>
