<svg width="24" height="24" viewBox="0 0 24 24" fill="none" xmlns="http://www.w3.org/2000/svg">
<g clip-path="url(#clip0_3_33)">
<path d="M23.2969 8.30493H10.0781C9.68981 8.30493 9.375 8.61974 9.375 9.00806V20.9531C9.375 21.3414 9.68981 21.6562 10.0781 21.6562H23.2969C23.6852 21.6562 24 21.3414 24 20.9531V9.00806C24 8.61974 23.6852 8.30493 23.2969 8.30493Z" fill="#525CDD"/>
<path d="M2.10938 4.21875C0.946266 4.21875 0 3.27248 0 2.10938C0 0.946266 0.946266 0 2.10938 0C3.27248 0 4.21875 0.946266 4.21875 2.10938C4.21875 3.27248 3.27248 4.21875 2.10938 4.21875Z" fill="#FF9D21"/>
<path d="M11.8125 24H9.75C9.36169 24 9.04688 23.6852 9.04688 23.2969V16.3185C9.04688 15.9302 9.36169 15.6154 9.75 15.6154H11.8125C12.2008 15.6154 12.5156 15.9302 12.5156 16.3185V23.2969C12.5156 23.6852 12.2008 24 11.8125 24Z" fill="#FFD321"/>
<path d="M11.8125 15.6154H10.7812V24H11.8125C12.2008 24 12.5156 23.6852 12.5156 23.2969V16.3185C12.5156 15.9302 12.2008 15.6154 11.8125 15.6154Z" fill="#FF9D21"/>
<path d="M18.4219 4.26562H2.4375V17.0156H18.4219C18.8102 17.0156 19.125 16.7008 19.125 16.3125V4.96875C19.125 4.58044 18.8102 4.26562 18.4219 4.26562Z" fill="#5CFFB3"/>
<path d="M3.51562 24H0.703125C0.314812 24 0 23.6852 0 23.2969V6.28125C0 5.11814 0.946266 4.17188 2.10938 4.17188C3.27248 4.17188 4.21875 5.11814 4.21875 6.28125V23.2969C4.21875 23.6852 3.90394 24 3.51562 24Z" fill="#FFD321"/>
<path d="M2.10938 0V4.21875C3.27248 4.21875 4.21875 3.27248 4.21875 2.10938C4.21875 0.946266 3.27248 0 2.10938 0Z" fill="#FF7D43"/>
<path d="M2.10938 4.17188V24H3.51562C3.90394 24 4.21875 23.6852 4.21875 23.2969V6.28125C4.21875 5.11814 3.27248 4.17188 2.10938 4.17188Z" fill="#FF9D21"/>
<path d="M18.4219 4.26562H10.7812V17.0156H18.4219C18.8102 17.0156 19.125 16.7008 19.125 16.3125V4.96875C19.125 4.58044 18.8102 4.26562 18.4219 4.26562Z" fill="#5CFFB3"/>
</g>
<defs>
<clipPath id="clip0_3_33">
<rect width="24" height="24" fill="white"/>
</clipPath>
</defs>
</svg>
