<svg width="24" height="24" viewBox="0 0 24 24" fill="none" xmlns="http://www.w3.org/2000/svg">
<g clip-path="url(#clip0_3_2)">
<path d="M0.703125 13.1205C0.314812 13.1205 0 12.8056 0 12.4173V5.10938C0 4.72106 0.314812 4.40625 0.703125 4.40625C1.09144 4.40625 1.40625 4.72106 1.40625 5.10938V12.4173C1.40625 12.8057 1.09144 13.1205 0.703125 13.1205Z" fill="#392E6E"/>
<path d="M23.2969 14.0245C22.9086 14.0245 22.5938 13.7097 22.5938 13.3214V5.44641C22.5938 5.0581 22.9086 4.74329 23.2969 4.74329C23.6852 4.74329 24 5.0581 24 5.44641V13.3214C24 13.7098 23.6852 14.0245 23.2969 14.0245Z" fill="#2B2256"/>
<path d="M23.2969 6H0.703125C0.314812 6 0 5.68519 0 5.29688V0.703125C0 0.314812 0.314812 0 0.703125 0H23.2969C23.6852 0 24 0.314812 24 0.703125V5.29688C24 5.68519 23.6852 6 23.2969 6Z" fill="#FFF4F4"/>
<path d="M7.89324 24H4.14746C3.9533 24 3.7959 23.8426 3.7959 23.6485V17.9313C3.7959 17.7371 3.9533 17.5797 4.14746 17.5797H7.89324C8.0874 17.5797 8.2448 17.7371 8.2448 17.9313V23.6485C8.2448 23.8426 8.0874 24 7.89324 24Z" fill="#4793FF"/>
<path d="M7.89311 17.5797H6.02026V24H7.89311C8.08726 24 8.24467 23.8426 8.24467 23.6485V17.9313C8.24467 17.7371 8.08726 17.5797 7.89311 17.5797Z" fill="#525CDD"/>
<path d="M8.73106 18.3288H3.79583V14.947L0.263936 14.0297C0.108967 13.9894 0.000732422 13.8495 0.000732422 13.6894V12.2108C0.000732422 12.0167 0.158373 11.8593 0.352529 11.8593C1.83528 11.8593 6.32797 11.8626 7.253 11.863C8.26344 11.8634 9.08258 12.6827 9.08258 13.6931V17.9773C9.08262 18.1714 8.92522 18.3288 8.73106 18.3288Z" fill="#FF4A4A"/>
<path d="M15.7561 23.6485V17.9313C15.7561 17.7371 15.9135 17.5797 16.1077 17.5797H19.8534C20.0476 17.5797 20.205 17.7371 20.205 17.9313V23.6485C20.205 23.8426 20.0476 24 19.8534 24H16.1077C15.9135 24 15.7561 23.8426 15.7561 23.6485Z" fill="#4793FF"/>
<path d="M19.8534 17.5797H17.9805V24H19.8534C20.0476 24 20.205 23.8426 20.205 23.6485V17.9313C20.205 17.7371 20.0476 17.5797 19.8534 17.5797Z" fill="#525CDD"/>
<path d="M14.9182 17.9773V13.6931C14.9182 12.6827 15.7373 11.8634 16.7478 11.863C17.6728 11.8626 22.1655 11.8593 23.6483 11.8593C23.8424 11.8593 24.0001 12.0167 24.0001 12.2108V13.6894C24.0001 13.8495 23.8919 13.9894 23.7369 14.0297L20.205 14.947V18.3288H15.2698C15.0756 18.3289 14.9182 18.1715 14.9182 17.9773Z" fill="#BEE75E"/>
<path d="M23.2969 0H12V6H23.2969C23.6852 6 24 5.68519 24 5.29688V0.703125C24 0.314812 23.6852 0 23.2969 0Z" fill="#F6EFEA"/>
<path d="M7.25303 11.8629C7.02545 11.8628 6.58187 11.8626 6.02026 11.8622V18.3288H8.731C8.92515 18.3288 9.08256 18.1714 9.08256 17.9773V13.6931C9.08261 12.6826 8.26351 11.8634 7.25303 11.8629Z" fill="#D01273"/>
<path d="M6.02026 11.8845C4.95339 11.8845 4.08545 11.0166 4.08545 9.94971C4.08545 8.88283 4.95339 8.01489 6.02026 8.01489C7.08714 8.01489 7.95507 8.88283 7.95507 9.94971C7.95507 11.0166 7.08714 11.8845 6.02026 11.8845Z" fill="#FFE4C1"/>
<path d="M6.02026 8.01489V11.8845C7.08714 11.8845 7.95508 11.0166 7.95508 9.94971C7.95508 8.88283 7.08709 8.01489 6.02026 8.01489Z" fill="#FDD1A3"/>
<path d="M23.6482 11.8593C22.5303 11.8593 19.7013 11.8612 17.9805 11.8623V18.3289H20.2049V14.947L23.7368 14.0297C23.8918 13.9894 24 13.8496 24 13.6894V12.2108C24 12.0166 23.8424 11.8593 23.6482 11.8593Z" fill="#00CB75"/>
<path d="M16.0457 9.94971C16.0457 8.88283 16.9136 8.01489 17.9805 8.01489C19.0473 8.01489 19.9153 8.88283 19.9153 9.94971C19.9153 11.0166 19.0473 11.8845 17.9805 11.8845C16.9136 11.8845 16.0457 11.0166 16.0457 9.94971Z" fill="#EA9B8C"/>
<path d="M17.9805 8.01489V11.8845C19.0473 11.8845 19.9153 11.0166 19.9153 9.94971C19.9153 8.88283 19.0473 8.01489 17.9805 8.01489Z" fill="#D68778"/>
</g>
<defs>
<clipPath id="clip0_3_2">
<rect width="24" height="24" fill="white"/>
</clipPath>
</defs>
</svg>
