<svg width="40" height="40" viewBox="0 0 40 40" fill="none" xmlns="http://www.w3.org/2000/svg">
<g clip-path="url(#clip0_4_920)">
<path d="M38.8047 9.07463C38.2628 8.38647 37.4517 7.99292 36.5774 7.99292C36.5724 7.99292 36.5682 7.99292 36.5632 7.99292L7.88574 8.1215L7.89282 9.57601L13.8133 9.54948V13.4482H9.03988V14.9027H13.8133V19.1754H10.8381V20.6299H13.8133V24.8671H15.2678V20.6299H19.7217V24.8671H21.1762V20.6299H25.6307V24.8671H27.0852V20.6299H31.5397V24.8671H32.9942V20.6299H35.577L34.5731 24.6924L35.985 25.0418L39.3294 11.5085C39.5405 10.6535 39.3494 9.76644 38.8047 9.07463ZM36.5703 9.44751C37.0057 9.47591 37.3962 9.63794 37.6619 9.97453C37.9268 10.3112 38.0199 10.7437 37.9176 11.1599L37.3521 13.4482H32.9943V9.46362L36.5703 9.44751ZM27.0852 9.49007L31.5397 9.47005V13.4482H27.0852V9.49007ZM25.6307 13.4482H21.1762V9.51652L25.6307 9.49658V13.4482ZM15.2678 9.54305L19.7217 9.52311V13.4482H15.2678V9.54305ZM15.2678 19.1755V14.9028H19.7217V19.1755H15.2678ZM21.1761 19.1755V14.9028H25.6306V19.1755H21.1761ZM27.0852 19.1755V14.9028H31.5397V19.1755H27.0852ZM32.9943 19.1755V14.9028H36.9925L35.9366 19.1755H32.9943Z" fill="#E1E6E9"/>
<path d="M35.828 32.4831H11.61V31.0286H35.828C37.3266 31.0286 38.5453 29.8098 38.5453 28.3119C38.5453 26.8134 37.3266 25.5946 35.828 25.5946H13.7904C12.5269 25.5946 11.4154 24.7424 11.0865 23.5222L5.81738 3.94466C5.68457 3.45109 5.23429 3.10588 4.7229 3.10588H4.15479V1.65137H4.7229C5.89054 1.65137 6.91821 2.43897 7.22225 3.56689L12.4914 23.1443C12.649 23.7302 13.1832 24.1401 13.7904 24.1401H35.828C38.1285 24.1401 39.9999 26.0115 39.9999 28.3119C39.9999 30.6116 38.1285 32.4831 35.828 32.4831Z" fill="#64798A"/>
<path d="M1.0909 1.28784C0.488444 1.28784 0 1.77629 0 2.37874C0 2.9812 0.488444 3.46965 1.0909 3.46965H4.15487V1.28784H1.0909Z" fill="#2D93BA"/>
<path d="M15.7501 38.7123C17.14 38.7123 18.2668 37.5856 18.2668 36.1956C18.2668 34.8057 17.14 33.679 15.7501 33.679C14.3602 33.679 13.2334 34.8057 13.2334 36.1956C13.2334 37.5856 14.3602 38.7123 15.7501 38.7123Z" fill="#2F4859"/>
<path d="M15.75 37.8489C16.6631 37.8489 17.4033 37.1087 17.4033 36.1956C17.4033 35.2825 16.6631 34.5422 15.75 34.5422C14.8369 34.5422 14.0967 35.2825 14.0967 36.1956C14.0967 37.1087 14.8369 37.8489 15.75 37.8489Z" fill="#3A556A"/>
<path d="M15.7501 36.8385C16.1051 36.8385 16.393 36.5507 16.393 36.1956C16.393 35.8406 16.1051 35.5527 15.7501 35.5527C15.395 35.5527 15.1072 35.8406 15.1072 36.1956C15.1072 36.5507 15.395 36.8385 15.7501 36.8385Z" fill="#EBF0F3"/>
<path d="M34.6541 38.7123C36.0441 38.7123 37.1708 37.5856 37.1708 36.1956C37.1708 34.8057 36.0441 33.679 34.6541 33.679C33.2642 33.679 32.1375 34.8057 32.1375 36.1956C32.1375 37.5856 33.2642 38.7123 34.6541 38.7123Z" fill="#2F4859"/>
<path d="M34.6541 37.8489C35.5672 37.8489 36.3074 37.1087 36.3074 36.1956C36.3074 35.2825 35.5672 34.5422 34.6541 34.5422C33.7409 34.5422 33.0007 35.2825 33.0007 36.1956C33.0007 37.1087 33.7409 37.8489 34.6541 37.8489Z" fill="#3A556A"/>
<path d="M34.6541 36.8385C35.0092 36.8385 35.297 36.5507 35.297 36.1956C35.297 35.8406 35.0092 35.5527 34.6541 35.5527C34.2991 35.5527 34.0112 35.8406 34.0112 36.1956C34.0112 36.5507 34.2991 36.8385 34.6541 36.8385Z" fill="#EBF0F3"/>
</g>
<defs>
<clipPath id="clip0_4_920">
<rect width="40" height="40" fill="white"/>
</clipPath>
</defs>
</svg>
