<svg width="18" height="18" viewBox="0 0 18 18" fill="none" xmlns="http://www.w3.org/2000/svg">
<path d="M0 2.8125C0 2.66332 0.0592632 2.52024 0.164752 2.41475C0.270242 2.30926 0.413316 2.25 0.5625 2.25H2.25C2.37547 2.25003 2.49733 2.29202 2.5962 2.36928C2.69506 2.44654 2.76526 2.55463 2.79563 2.67637L3.25125 4.5H16.3125C16.3979 4.50002 16.4823 4.51951 16.559 4.55698C16.6358 4.59446 16.7031 4.64893 16.7557 4.71627C16.8083 4.78361 16.8448 4.86204 16.8626 4.94562C16.8803 5.0292 16.8788 5.11572 16.8581 5.19862L15.1706 11.9486C15.1403 12.0704 15.0701 12.1785 14.9712 12.2557C14.8723 12.333 14.7505 12.375 14.625 12.375H4.5C4.37453 12.375 4.25267 12.333 4.1538 12.2557C4.05494 12.1785 3.98474 12.0704 3.95438 11.9486L1.81125 3.375H0.5625C0.413316 3.375 0.270242 3.31574 0.164752 3.21025C0.0592632 3.10476 0 2.96168 0 2.8125ZM3.5325 5.625L4.095 7.875H5.625V5.625H3.5325ZM6.75 5.625V7.875H9V5.625H6.75ZM10.125 5.625V7.875H12.375V5.625H10.125ZM13.5 5.625V7.875H15.03L15.5925 5.625H13.5ZM14.7488 9H13.5V11.25H14.1863L14.7488 9ZM12.375 9H10.125V11.25H12.375V9ZM9 9H6.75V11.25H9V9ZM5.625 9H4.37625L4.93875 11.25H5.625V9ZM5.625 14.625C5.32663 14.625 5.04048 14.7435 4.82951 14.9545C4.61853 15.1655 4.5 15.4516 4.5 15.75C4.5 16.0484 4.61853 16.3345 4.82951 16.5455C5.04048 16.7565 5.32663 16.875 5.625 16.875C5.92337 16.875 6.20952 16.7565 6.4205 16.5455C6.63147 16.3345 6.75 16.0484 6.75 15.75C6.75 15.4516 6.63147 15.1655 6.4205 14.9545C6.20952 14.7435 5.92337 14.625 5.625 14.625ZM3.375 15.75C3.375 15.1533 3.61205 14.581 4.03401 14.159C4.45597 13.7371 5.02826 13.5 5.625 13.5C6.22174 13.5 6.79403 13.7371 7.21599 14.159C7.63795 14.581 7.875 15.1533 7.875 15.75C7.875 16.3467 7.63795 16.919 7.21599 17.341C6.79403 17.7629 6.22174 18 5.625 18C5.02826 18 4.45597 17.7629 4.03401 17.341C3.61205 16.919 3.375 16.3467 3.375 15.75ZM13.5 14.625C13.2016 14.625 12.9155 14.7435 12.7045 14.9545C12.4935 15.1655 12.375 15.4516 12.375 15.75C12.375 16.0484 12.4935 16.3345 12.7045 16.5455C12.9155 16.7565 13.2016 16.875 13.5 16.875C13.7984 16.875 14.0845 16.7565 14.2955 16.5455C14.5065 16.3345 14.625 16.0484 14.625 15.75C14.625 15.4516 14.5065 15.1655 14.2955 14.9545C14.0845 14.7435 13.7984 14.625 13.5 14.625ZM11.25 15.75C11.25 15.1533 11.4871 14.581 11.909 14.159C12.331 13.7371 12.9033 13.5 13.5 13.5C14.0967 13.5 14.669 13.7371 15.091 14.159C15.5129 14.581 15.75 15.1533 15.75 15.75C15.75 16.3467 15.5129 16.919 15.091 17.341C14.669 17.7629 14.0967 18 13.5 18C12.9033 18 12.331 17.7629 11.909 17.341C11.4871 16.919 11.25 16.3467 11.25 15.75Z" fill="white"/>
</svg>
