<svg width="40" height="40" viewBox="0 0 40 40" fill="none" xmlns="http://www.w3.org/2000/svg">
<path d="M30.969 10.683V10.6677H9.59576C4.57077 10.6677 0.24696 14.5294 0.0106315 19.5489C-0.241647 24.908 4.02862 29.3321 9.33225 29.3321C12.5398 29.3321 15.363 27.7097 17.0419 25.2445C17.2927 24.8762 17.7177 24.6659 18.1633 24.6659H21.8349C22.2764 24.6659 22.7029 24.8687 22.9508 25.234C24.8236 27.9919 28.1272 29.6983 31.8003 29.2651C36.0213 28.7673 39.4363 25.3533 39.9332 21.1322C40.5872 15.5745 36.3522 10.8552 30.969 10.683Z" fill="#64798A"/>
<path d="M9.33252 27.1504C5.38932 27.1504 2.18188 23.9426 2.18188 19.9998C2.18188 16.0573 5.38932 12.8496 9.33252 12.8496C13.275 12.8496 16.4823 16.0573 16.4823 19.9998C16.4823 23.9426 13.275 27.1504 9.33252 27.1504Z" fill="#E1E6E9"/>
<path d="M30.6676 27.1504C26.7244 27.1504 23.5171 23.9426 23.5171 19.9998C23.5171 16.0573 26.7244 12.8496 30.6676 12.8496C34.6108 12.8496 37.8182 16.0573 37.8182 19.9998C37.8181 23.9426 34.6108 27.1504 30.6676 27.1504Z" fill="#E1E6E9"/>
<path d="M18.5531 11.8323H15.1382C14.9457 11.8323 14.7898 11.9882 14.7898 12.1806V13.2186C14.7898 13.411 14.9457 13.567 15.1382 13.567H18.5531C18.7454 13.567 18.9014 13.411 18.9014 13.2186V12.1806C18.9014 11.9882 18.7454 11.8323 18.5531 11.8323Z" fill="#FCD462"/>
<path d="M23.9311 11.8323H20.5161C20.3237 11.8323 20.1677 11.9882 20.1677 12.1806V13.2186C20.1677 13.411 20.3237 13.567 20.5161 13.567H23.9311C24.1235 13.567 24.2795 13.411 24.2795 13.2186V12.1806C24.2794 11.9882 24.1234 11.8323 23.9311 11.8323Z" fill="#27A2DB"/>
<path d="M13.5656 18.5396H10.7927V15.7667C10.7927 15.5373 10.6068 15.3513 10.3774 15.3513H8.28678C8.05737 15.3513 7.87142 15.5373 7.87142 15.7667V18.5396H5.09871C4.86922 18.5396 4.68335 18.7255 4.68335 18.9548V21.0455C4.68335 21.2749 4.86922 21.4608 5.09871 21.4608H7.87142V24.2337C7.87142 24.4631 8.05737 24.649 8.28678 24.649H10.3774C10.6068 24.649 10.7927 24.4631 10.7927 24.2337V21.4608H13.5656C13.7951 21.4608 13.9809 21.2749 13.9809 21.0455V18.9548C13.9809 18.7255 13.7951 18.5396 13.5656 18.5396Z" fill="#64798A"/>
<path d="M9.33219 16.2141L8.66113 16.8853H10.0033L9.33219 16.2141Z" fill="#3A556A"/>
<path d="M9.33219 23.7861L10.0033 23.115H8.66113L9.33219 23.7861Z" fill="#3A556A"/>
<path d="M13.1182 20L12.447 19.3289V20.6711L13.1182 20Z" fill="#3A556A"/>
<path d="M5.54614 20L6.21729 20.6711V19.3289L5.54614 20Z" fill="#3A556A"/>
<path d="M9.33211 20.8705C9.81284 20.8705 10.2026 20.4808 10.2026 20.0001C10.2026 19.5193 9.81284 19.1296 9.33211 19.1296C8.85138 19.1296 8.46167 19.5193 8.46167 20.0001C8.46167 20.4808 8.85138 20.8705 9.33211 20.8705Z" fill="#3A556A"/>
<path d="M30.6667 18.4668C31.8703 18.4668 32.8459 17.4911 32.8459 16.2876C32.8459 15.0841 31.8703 14.1084 30.6667 14.1084C29.4632 14.1084 28.4875 15.0841 28.4875 16.2876C28.4875 17.4911 29.4632 18.4668 30.6667 18.4668Z" fill="#FCD462"/>
<path d="M30.6667 25.8931C31.8703 25.8931 32.8459 24.9174 32.8459 23.7139C32.8459 22.5103 31.8703 21.5347 30.6667 21.5347C29.4632 21.5347 28.4875 22.5103 28.4875 23.7139C28.4875 24.9174 29.4632 25.8931 30.6667 25.8931Z" fill="#E56353"/>
<path d="M34.3833 22.1792C35.5868 22.1792 36.5625 21.2035 36.5625 20C36.5625 18.7965 35.5868 17.8208 34.3833 17.8208C33.1798 17.8208 32.2041 18.7965 32.2041 20C32.2041 21.2035 33.1798 22.1792 34.3833 22.1792Z" fill="#27A2DB"/>
<path d="M26.9541 22.1792C28.1576 22.1792 29.1333 21.2035 29.1333 20C29.1333 18.7965 28.1576 17.8208 26.9541 17.8208C25.7506 17.8208 24.7749 18.7965 24.7749 20C24.7749 21.2035 25.7506 22.1792 26.9541 22.1792Z" fill="#44C4A1"/>
</svg>
