<svg width="24" height="24" viewBox="0 0 24 24" fill="none" xmlns="http://www.w3.org/2000/svg">
<g clip-path="url(#clip0_3_238)">
<path d="M12 24C11.777 24 11.5672 23.8942 11.4346 23.7148L4.66105 14.5503C3.60491 13.1213 2.98808 11.4557 2.87732 9.73359C2.7734 8.11744 3.11038 6.48623 3.85185 5.01609C4.59332 3.54605 5.70486 2.30545 7.0663 1.42847C8.51704 0.493969 10.2231 0 12 0C13.777 0 15.483 0.493969 16.9338 1.42852C18.2952 2.3055 19.4068 3.54609 20.1483 5.01619C20.8897 6.48623 21.2267 8.11748 21.1228 9.73364C21.012 11.4557 20.3953 13.1213 19.3391 14.5503L12.5655 23.7149C12.4329 23.8942 12.2231 24 12 24Z" fill="#E20059"/>
<path d="M20.1482 5.01619C19.4067 3.54609 18.2952 2.3055 16.9337 1.42852C15.483 0.493969 13.7769 0 12 0V24C12.223 24 12.4328 23.8942 12.5655 23.7148L19.339 14.5503C20.3951 13.1214 21.012 11.4558 21.1227 9.73369C21.2266 8.11748 20.8897 6.48623 20.1482 5.01619Z" fill="#9D3B6E"/>
<path d="M12 6C11.6117 6 11.2969 5.68519 11.2969 5.29688V3.51562C11.2969 3.12731 11.6117 2.8125 12 2.8125C12.3883 2.8125 12.7031 3.12731 12.7031 3.51562V5.29688C12.7031 5.68519 12.3883 6 12 6Z" fill="#FFF5F5"/>
<path d="M12.7031 3.51562C12.7031 3.12731 12.3883 2.8125 12 2.8125V6C12.3883 6 12.7031 5.68519 12.7031 5.29688V3.51562Z" fill="#EBE1DC"/>
<path d="M15.0469 9.375H8.95312V5.39062C8.95312 5.00231 9.26794 4.6875 9.65625 4.6875H14.3438C14.7321 4.6875 15.0469 5.00231 15.0469 5.39062V9.375Z" fill="#EBE1DC"/>
<path d="M14.3438 4.6875H12V9.375H15.0469V5.39062C15.0469 5.00231 14.7321 4.6875 14.3438 4.6875Z" fill="#C8BEB9"/>
<path d="M9.01379 14.1137L7.13879 9.89497C6.98105 9.54013 7.1409 9.12458 7.49574 8.96689L11.7145 7.09189C11.8963 7.01104 12.1038 7.01104 12.2857 7.09189L16.5044 8.96689C16.8593 9.12458 17.0191 9.54013 16.8614 9.89497L14.9864 14.1137H9.01379Z" fill="#FFF5F5"/>
<path d="M12 14.1137H14.9863L16.8613 9.89494C17.019 9.54009 16.8592 9.12455 16.5044 8.96686L12.2856 7.09186C12.1947 7.05145 12.0974 7.0312 12 7.03125L12 14.1137Z" fill="#EBE1DC"/>
<path d="M15.75 14.5312H8.25C7.86169 14.5312 7.54688 14.2164 7.54688 13.8281C7.54688 13.4398 7.86169 13.125 8.25 13.125H15.75C16.1383 13.125 16.4531 13.4398 16.4531 13.8281C16.4531 14.2164 16.1383 14.5312 15.75 14.5312Z" fill="#BEEBFA"/>
<path d="M12 14.5312H15.75C16.1383 14.5312 16.4531 14.2164 16.4531 13.8281C16.4531 13.4398 16.1383 13.125 15.75 13.125H12V14.5312Z" fill="#8CBCFF"/>
</g>
<defs>
<clipPath id="clip0_3_238">
<rect width="24" height="24" fill="white"/>
</clipPath>
</defs>
</svg>
