<svg width="24" height="24" viewBox="0 0 24 24" fill="none" xmlns="http://www.w3.org/2000/svg">
<path d="M12 23.2969C17.1777 23.2969 21.375 21.1982 21.375 18.6094C21.375 16.0205 17.1777 13.9219 12 13.9219C6.82233 13.9219 2.625 16.0205 2.625 18.6094C2.625 21.1982 6.82233 23.2969 12 23.2969Z" fill="#BEE75E"/>
<path d="M21.375 18.6094C21.375 16.0205 17.1777 13.9219 12 13.9219V23.2969C17.1777 23.2969 21.375 21.1982 21.375 18.6094Z" fill="#70BE6B"/>
<path d="M12 24C9.38878 24 6.92288 23.4861 5.05645 22.5528C3.03511 21.5422 1.92188 20.1417 1.92188 18.6094C1.92188 17.0771 3.03511 15.6766 5.05645 14.6659C6.92288 13.7327 9.38878 13.2188 12 13.2188C14.6112 13.2188 17.0771 13.7327 18.9435 14.6659C20.9649 15.6766 22.0781 17.0771 22.0781 18.6094C22.0781 20.1417 20.9649 21.5422 18.9435 22.5528C17.0771 23.4861 14.6112 24 12 24ZM12 14.625C9.60286 14.625 7.36031 15.0862 5.68533 15.9237C4.1873 16.6727 3.32812 17.6516 3.32812 18.6094C3.32812 19.5672 4.1873 20.546 5.68533 21.295C7.36031 22.1325 9.60286 22.5938 12 22.5938C14.3971 22.5938 16.6397 22.1325 18.3147 21.295C19.8127 20.546 20.6719 19.5672 20.6719 18.6094C20.6719 17.6516 19.8127 16.6727 18.3147 15.9237C16.6397 15.0862 14.3971 14.625 12 14.625Z" fill="#70BE6B"/>
<path d="M22.0781 18.6094C22.0781 17.0771 20.9649 15.6766 18.9435 14.6659C17.0771 13.7327 14.6112 13.2188 12 13.2188V14.625C14.3971 14.625 16.6397 15.0862 18.3147 15.9237C19.8127 16.6727 20.6719 17.6516 20.6719 18.6094C20.6719 19.5672 19.8127 20.546 18.3147 21.295C16.6397 22.1325 14.3971 22.5938 12 22.5938V24C14.6112 24 17.0771 23.4861 18.9435 22.5528C20.9649 21.5422 22.0781 20.1417 22.0781 18.6094Z" fill="#009398"/>
<path d="M12 21.1875C10.3041 21.1875 8.70042 20.9814 7.4843 20.6072C5.59889 20.0271 5.20312 19.2006 5.20312 18.6094C5.20312 18.0182 5.59889 17.1916 7.4843 16.6115C8.70042 16.2373 10.3041 16.0312 12 16.0312C13.6959 16.0312 15.2996 16.2373 16.5157 16.6115C18.4011 17.1916 18.7969 18.0182 18.7969 18.6094C18.7969 19.2006 18.4011 20.0271 16.5157 20.6072C15.2996 20.9814 13.6959 21.1875 12 21.1875ZM6.62198 18.6094C6.71025 18.7347 7.10147 19.0485 8.13202 19.3312C9.1898 19.6215 10.5635 19.7812 12 19.7812C13.4365 19.7812 14.8102 19.6215 15.868 19.3312C16.8985 19.0485 17.2897 18.7347 17.378 18.6094C17.2897 18.484 16.8985 18.1703 15.868 17.8875C14.8102 17.5973 13.4365 17.4375 12 17.4375C10.5635 17.4375 9.1898 17.5973 8.13202 17.8875C7.10152 18.1703 6.71025 18.484 6.62198 18.6094Z" fill="#70BE6B"/>
<path d="M15.868 17.8875C16.8985 18.1703 17.2897 18.4841 17.378 18.6094C17.2897 18.7347 16.8985 19.0485 15.868 19.3312C14.8102 19.6215 13.4365 19.7812 12 19.7812V21.1875C13.6959 21.1875 15.2996 20.9814 16.5157 20.6072C18.4011 20.0271 18.7969 19.2006 18.7969 18.6094C18.7969 18.0182 18.4011 17.1916 16.5157 16.6115C15.2996 16.2373 13.6959 16.0312 12 16.0312V17.4375C13.4365 17.4375 14.8102 17.5973 15.868 17.8875Z" fill="#009398"/>
<path d="M21.375 9.46875H12.2812C11.8929 9.46875 11.5781 9.15394 11.5781 8.76562V2.20312C11.5781 1.81481 11.8929 1.5 12.2812 1.5H21.375C21.7633 1.5 22.0781 1.81481 22.0781 2.20312V8.76562C22.0781 9.15394 21.7633 9.46875 21.375 9.46875Z" fill="#E20059"/>
<path d="M21.375 9.46875H11.5781V5.48438H22.0781V8.76562C22.0781 9.15394 21.7633 9.46875 21.375 9.46875Z" fill="#9D3B6E"/>
<path d="M12 18.375C11.6117 18.375 11.2969 18.0602 11.2969 17.6719V0.703125C11.2969 0.314812 11.6117 0 12 0C12.3883 0 12.7031 0.314812 12.7031 0.703125V17.6719C12.7031 18.0602 12.3883 18.375 12 18.375Z" fill="#0A617D"/>
<path d="M12.7031 17.6719V0.703125C12.7031 0.314812 12.3883 0 12 0V18.375C12.3883 18.375 12.7031 18.0602 12.7031 17.6719Z" fill="#08475E"/>
</svg>
