<svg width="24" height="24" viewBox="0 0 24 24" fill="none" xmlns="http://www.w3.org/2000/svg">
<g clip-path="url(#clip0_3_178)">
<path d="M23.25 12.0469C23.25 18.2601 18.2132 23.2969 12 23.2969C5.78681 23.2969 0.75 18.2601 0.75 12.0469H23.25Z" fill="#BEEBFA"/>
<path d="M12 23.2969C18.2132 23.2969 23.25 18.2601 23.25 12.0469H12V23.2969Z" fill="#8CBCFF"/>
<path d="M23.25 11.3438H0.75C0.361687 11.3438 0.046875 11.6586 0.046875 12.0469C0.046875 15.2397 1.29019 18.2414 3.54788 20.499C5.80556 22.7566 8.8072 24 12 24C15.1928 24 18.1945 22.7567 20.4521 20.499C22.7098 18.2413 23.9531 15.2397 23.9531 12.0469C23.9531 11.6586 23.6383 11.3438 23.25 11.3438ZM16.3373 16.9688H12.7031V12.75H16.9109C16.8639 14.2408 16.6678 15.6704 16.3373 16.9688ZM8.65139 19.6874C8.44598 19.2766 8.25933 18.8377 8.09217 18.375H11.2969V22.4747C10.3314 22.1508 9.39511 21.1748 8.65139 19.6874ZM12.7031 22.4747V18.375H15.9078C15.7406 18.8377 15.554 19.2766 15.3486 19.6874C14.6049 21.1748 13.6686 22.1508 12.7031 22.4747ZM11.2969 12.75V16.9688H7.66275C7.33223 15.6704 7.13611 14.2408 7.08919 12.75H11.2969ZM5.68252 12.75C5.72662 14.2537 5.91136 15.675 6.21328 16.9688H2.67445C1.99889 15.694 1.57655 14.2654 1.47628 12.75H5.68252ZM3.56855 18.375H6.60337C7.06866 19.8084 7.68998 21.033 8.42644 21.9698C6.47719 21.2656 4.7932 20.0026 3.56855 18.375ZM15.5736 21.9698C16.31 21.033 16.9313 19.8084 17.3966 18.375H20.4315C19.2068 20.0026 17.5228 21.2656 15.5736 21.9698ZM21.3255 16.9688H17.7867C18.0886 15.675 18.2733 14.2537 18.3174 12.75H22.5237C22.4234 14.2654 22.0011 15.694 21.3255 16.9688Z" fill="#8CBCFF"/>
<path d="M23.9531 12.0469C23.9531 11.6586 23.6383 11.3438 23.25 11.3438H12V24C15.1928 24 18.1945 22.7567 20.4521 20.499C22.7098 18.2413 23.9531 15.2397 23.9531 12.0469ZM18.3175 12.75H22.5237C22.4235 14.2654 22.0011 15.694 21.3255 16.9688H17.7867C18.0886 15.675 18.2734 14.2537 18.3175 12.75ZM12.7031 12.75H16.9109C16.8639 14.2408 16.6678 15.6704 16.3373 16.9688H12.7031V12.75ZM12.7031 22.4747V18.375H15.9078C15.7406 18.8377 15.554 19.2766 15.3486 19.6874C14.6049 21.1748 13.6686 22.1508 12.7031 22.4747ZM15.5736 21.9698C16.31 21.033 16.9313 19.8084 17.3966 18.375H20.4315C19.2068 20.0026 17.5228 21.2656 15.5736 21.9698Z" fill="#4895FF"/>
<path d="M12 12.75C11.7771 12.75 11.5675 12.6444 11.4349 12.4653L8.03375 7.87228C6.91794 6.36544 6.74886 4.38909 7.59252 2.71467C8.43618 1.04016 10.125 0 12 0C13.8749 0 15.5638 1.04016 16.4074 2.71462C17.2511 4.38909 17.082 6.36539 15.9662 7.87223L12.565 12.4653C12.4325 12.6444 12.2228 12.75 12 12.75Z" fill="#E20059"/>
<path d="M12.5651 12.4653L15.9662 7.87228C17.082 6.36544 17.2511 4.38909 16.4075 2.71467C15.5638 1.04016 13.875 0 12 0V12.75C12.2228 12.75 12.4325 12.6444 12.5651 12.4653Z" fill="#9D3B6E"/>
<path d="M12 7.07812C10.8369 7.07812 9.89062 6.13186 9.89062 4.96875C9.89062 3.80564 10.8369 2.85938 12 2.85938C13.1631 2.85938 14.1094 3.80564 14.1094 4.96875C14.1094 6.13186 13.1631 7.07812 12 7.07812Z" fill="#FFF5F5"/>
<path d="M14.1094 4.96875C14.1094 3.80564 13.1631 2.85938 12 2.85938V7.07812C13.1631 7.07812 14.1094 6.13186 14.1094 4.96875Z" fill="#EBE1DC"/>
</g>
<defs>
<clipPath id="clip0_3_178">
<rect width="24" height="24" fill="white"/>
</clipPath>
</defs>
</svg>
