<svg width="24" height="24" viewBox="0 0 24 24" fill="none" xmlns="http://www.w3.org/2000/svg">
<g clip-path="url(#clip0_3_390)">
<path d="M8.52926 15.9068L5.4401 12.8176L5.4402 10.4217C5.39585 6.82046 8.30539 3.82974 11.9065 3.77958C15.5725 3.72854 18.5604 6.68499 18.5604 10.3393L18.5489 12.8287L15.4708 15.9068L14.8203 18.0028H9.17979L8.52926 15.9068Z" fill="#D8D7DA"/>
<path d="M11.1287 12.6645H9.28633C9.07773 12.5023 8.93505 12.3913 8.72645 12.229L8.34766 10.7376C8.62727 10.378 8.74497 10.2267 9.02463 9.86719H11.4468C11.7264 10.2267 11.8441 10.378 12.1238 10.7376L11.7588 12.1745C11.524 12.357 11.3635 12.4819 11.1287 12.6645Z" fill="#ACABB1"/>
<path d="M14.7462 12.6645H16.5886C16.7972 12.5023 16.9399 12.3913 17.1485 12.229L17.5273 10.7376C17.2477 10.378 17.13 10.2267 16.8503 9.86719H14.4281C14.1485 10.2267 14.0308 10.378 13.7512 10.7376L14.1161 12.1745C14.3509 12.357 14.5115 12.4819 14.7462 12.6645Z" fill="#ACABB1"/>
<path d="M12.9374 15.3991L11.658 14.8736L12.9374 12.8402L14.2169 14.8736L12.9374 15.3991Z" fill="#ACABB1"/>
<path d="M15.4708 15.9069L14.8203 18.0029H9.17984L8.52931 15.9069L7.78198 15.1595V19.374C8.11273 19.7047 8.29817 19.8902 8.62897 20.221H15.3293C15.675 19.8753 15.8725 19.6778 16.2181 19.3321V15.1595L15.4708 15.9069Z" fill="#D8D7DA"/>
<path d="M23.6484 19.0915H21.1878L16.7369 14.6406L16.218 15.1596V18.3145L19.0915 21.1879V23.6485H21.4767V21.4768H23.6484V19.0915Z" fill="#D8D7DA"/>
<path d="M7.78191 15.1596L7.263 14.6406L2.81208 19.0915H0.351562V21.4768H2.52319V23.6485H4.90847V21.1879L7.78191 18.3145V15.1596Z" fill="#D8D7DA"/>
<path d="M10.1913 12.6645H8.34883C8.14023 12.5023 7.99755 12.3913 7.78895 12.229L7.41016 10.7376C7.68977 10.378 7.80747 10.2267 8.08713 9.86719H10.5093C10.7889 10.2267 10.9066 10.378 11.1863 10.7376L10.8213 12.1745C10.5865 12.357 10.426 12.4819 10.1913 12.6645Z" fill="#787680"/>
<path d="M13.8087 12.6645H15.6511C15.8597 12.5023 16.0024 12.3913 16.211 12.229L16.5898 10.7376C16.3102 10.378 16.1925 10.2267 15.9128 9.86719H13.4906C13.211 10.2267 13.0933 10.378 12.8137 10.7376L13.1786 12.1745C13.4134 12.357 13.574 12.4819 13.8087 12.6645Z" fill="#787680"/>
<path d="M11.9999 15.3991L10.7205 14.8736L11.9999 12.8402L13.2794 14.8736L11.9999 15.3991Z" fill="#787680"/>
<path d="M21.4767 2.52319V0.351562H19.0915V2.81208L16.4155 5.48803C17.1618 6.16772 17.7506 7.01714 18.1209 7.97541L21.1878 4.90847H23.6483V2.52323L21.4767 2.52319Z" fill="#D8D7DA"/>
<path d="M7.5907 5.49436L4.90842 2.81208V0.351562H2.52319V2.52319H0.351562V4.90842H2.81208L5.88286 7.9792C6.25462 7.02441 6.84431 6.17517 7.5907 5.49436Z" fill="#D8D7DA"/>
<path d="M2.24423 13.1306H0.820312C0.820312 11.3658 2.25098 9.93518 4.01573 9.93518H5.43966C5.43966 11.7 4.00903 13.1306 2.24423 13.1306Z" fill="#FF7956"/>
<path d="M3.22882 7.72437H2.24365C2.24365 8.94541 3.23351 9.93527 4.45456 9.93527H5.43973C5.43973 8.71422 4.44987 7.72437 3.22882 7.72437Z" fill="#FF7956"/>
<path d="M5.45728 9.86722H18.5433C18.2991 6.43391 15.4132 3.73086 11.9066 3.7797C8.49206 3.82728 5.69981 6.51861 5.45728 9.86722Z" fill="#FF7956"/>
<path d="M6.84635 12.8177L6.84645 10.4218C6.80464 7.02564 9.39003 4.17287 12.7049 3.8169C12.443 3.78892 12.1767 3.77594 11.9065 3.77969C8.30539 3.82984 5.39585 6.82056 5.4402 10.4218L5.4401 12.8177L8.52926 15.9069L9.17979 18.0029H10.586L9.93551 15.9069L6.84635 12.8177Z" fill="#ACABB1"/>
<path d="M9.18823 18.0028H9.17984L8.52931 15.9068L7.78198 15.1595V19.374L8.62897 20.221H10.0352L9.18823 19.374V18.0028Z" fill="#ACABB1"/>
<path d="M16.2182 15.1595L15.4708 15.9068L14.8203 18.0028H16.2182V15.1595Z" fill="#ACABB1"/>
<path d="M17.6243 18.3145V15.528L16.7369 14.6406L16.218 15.1596V18.3145L19.0915 21.1879V23.6485H20.4977V21.1879L17.6243 18.3145Z" fill="#ACABB1"/>
<path d="M7.78184 15.528V15.1596L7.26293 14.6406L2.81201 19.0915H4.21826L7.78184 15.528Z" fill="#ACABB1"/>
<path d="M1.75781 21.4768V19.0916H0.351562V21.4768H2.52319V23.6485H3.92944V21.4768H1.75781Z" fill="#ACABB1"/>
<path d="M8.81641 10.7376C9.09602 10.378 9.21372 10.2267 9.49333 9.86719H8.08708C7.80747 10.2267 7.68977 10.378 7.41016 10.7376L7.78895 12.229C7.99755 12.3913 8.14023 12.5023 8.34883 12.6645H9.75508C9.54648 12.5023 9.4038 12.3913 9.1952 12.229L8.81641 10.7376Z" fill="#57565C"/>
<path d="M14.22 10.7376C14.4996 10.378 14.6173 10.2267 14.8969 9.86719H13.4906C13.211 10.2267 13.0933 10.378 12.8137 10.7376L13.1786 12.1745C13.4134 12.357 13.5739 12.4819 13.8087 12.6645H15.2149C14.9802 12.4819 14.8196 12.357 14.5849 12.1745L14.22 10.7376Z" fill="#57565C"/>
<path d="M11.658 14.8736L12.4687 13.5852L11.9999 12.8402L10.7205 14.8736L11.9999 15.3991L12.4687 15.2066L11.658 14.8736Z" fill="#57565C"/>
<path d="M17.8218 5.48803L20.4977 2.81208V0.351562H19.0915V2.81208L16.4155 5.48803C17.1618 6.16772 17.7506 7.01714 18.1209 7.97541L19.0689 7.02736C18.7322 6.45281 18.3112 5.93372 17.8218 5.48803Z" fill="#ACABB1"/>
<path d="M3.92944 2.52319V0.351562H2.52319V2.52319H0.351562V4.90847H1.75781V2.52319H3.92944Z" fill="#ACABB1"/>
<path d="M4.21826 4.90845H2.81201L5.88279 7.97923C6.01086 7.65026 6.1654 7.33423 6.34268 7.03287L4.21826 4.90845Z" fill="#ACABB1"/>
<path d="M5.42198 9.93518H4.01573C2.25094 9.93518 0.820312 11.3659 0.820312 13.1306H2.22656C2.22656 11.3658 3.65723 9.93518 5.42198 9.93518Z" fill="#FF3F62"/>
<path d="M3.65093 7.7651C3.51425 7.73866 3.37325 7.72437 3.22882 7.72437H2.24365C2.24365 8.94541 3.23351 9.93527 4.45456 9.93527H5.43973C5.43973 9.92163 5.43893 9.90813 5.4387 9.89454C4.43257 9.69996 3.67011 8.82349 3.65093 7.7651Z" fill="#FF3F62"/>
<path d="M12.7053 3.81663C12.4433 3.78865 12.1768 3.77595 11.9065 3.7797C8.49201 3.82727 5.69976 6.5186 5.45728 9.86721H6.86353C7.09153 6.71951 9.57248 4.15287 12.7053 3.81663Z" fill="#FF3F62"/>
<path d="M11.1567 18.8099H10.4536V19.5131H11.1567V18.8099Z" fill="#1D1D1F"/>
<path d="M12.3286 18.8099H11.6255V19.5131H12.3286V18.8099Z" fill="#1D1D1F"/>
<path d="M13.5005 18.8099H12.7974V19.5131H13.5005V18.8099Z" fill="#1D1D1F"/>
<path d="M11.468 7.01904H10.7649V7.72217H11.468V7.01904Z" fill="#1D1D1F"/>
<path d="M13.8118 7.01904H13.1086V7.72217H13.8118V7.01904Z" fill="#1D1D1F"/>
<path d="M12.6399 7.01904H11.9368V7.72217H12.6399V7.01904Z" fill="#1D1D1F"/>
<path d="M15.2787 6.51593C15.356 6.5823 15.4321 6.65182 15.5051 6.7226L15.9946 6.21785C15.9116 6.13727 15.8248 6.05805 15.7368 5.98249C15.6362 5.89605 15.5311 5.81201 15.4246 5.73279L15.0049 6.29683C15.0984 6.36644 15.1905 6.44013 15.2787 6.51593Z" fill="white"/>
<path d="M16.2033 7.56438L16.7898 7.17658C16.6526 6.96911 16.5005 6.76858 16.3376 6.58057L15.8062 7.04097C15.9492 7.20607 16.0829 7.38218 16.2033 7.56438Z" fill="white"/>
<path d="M14.6424 6.05114L15.0113 5.45254C14.0823 4.88001 13.0106 4.58292 11.9177 4.59994L11.9277 5.30297C12.8878 5.28928 13.8272 5.54878 14.6424 6.05114Z" fill="white"/>
<path d="M13.7996 15.0401L12 12.1802L10.2004 15.0401L12 15.7792L13.7996 15.0401ZM12 13.5004L12.7593 14.7072L12 15.0191L11.2407 14.7072L12 13.5004Z" fill="#1D1D1F"/>
<path d="M6.40144 6.29938L5.1705 5.06844L4.6733 5.5656L6.01045 6.90276C5.53697 7.72269 5.23556 8.63333 5.13061 9.58363H4.45448C3.54937 9.58363 2.79328 8.93361 2.62847 8.07585H3.22875C3.7163 8.07585 4.17731 8.26363 4.52681 8.60465L5.01783 8.1014C4.53628 7.63152 3.90089 7.37277 3.22875 7.37277H1.89202V7.72433C1.89202 8.5551 2.2897 9.29446 2.90442 9.76297C1.49147 10.2305 0.46875 11.563 0.46875 13.1307V13.4822H2.24423C3.19092 13.4822 4.08122 13.1137 4.75106 12.4446L4.25409 11.9471C3.71705 12.4836 3.00319 12.7791 2.24419 12.7791H1.19348C1.36716 11.3762 2.56664 10.2868 4.01578 10.2868H4.31348L2.37623 11.6269L2.77622 12.2052L5.63962 10.2244L5.63578 10.2188H7.36828L7.02708 10.6575L7.47783 12.4325L8.22816 13.0161H10.3118L11.1323 12.3779L11.5692 10.6575L11.2281 10.2188H12.772L12.4308 10.6575L12.8677 12.3779L13.6882 13.0161H15.7718L16.5222 12.4325L16.9729 10.6575L16.6317 10.2188H18.9207L18.894 9.84229C18.6368 6.2271 15.6176 3.42749 11.9994 3.42749C11.9669 3.42749 11.9342 3.42772 11.9016 3.42815C10.1682 3.45229 8.5163 4.12794 7.25025 5.33066C6.93544 5.62968 6.6518 5.9541 6.40144 6.29938ZM10.8031 10.8177L10.5102 11.971L10.0706 12.3129H8.46942L8.09995 12.0256L7.7932 10.8177L8.259 10.2188H10.3373L10.8031 10.8177ZM16.2068 10.8177L15.9 12.0256L15.5306 12.313H13.9294L13.4898 11.9711L13.1969 10.8178L13.6627 10.2188H15.741L16.2068 10.8177ZM7.51547 6.06669H9.20466V5.36357H8.30902C9.32475 4.60569 10.5732 4.14988 11.9114 4.13122C11.9409 4.1308 11.9699 4.13062 11.9993 4.13062C14.5494 4.13062 16.7682 5.67885 17.7172 7.91408H15.1094V8.61721H17.9665C18.0502 8.90821 18.1136 9.20812 18.1543 9.51566H5.84686C5.91553 9.00679 6.04711 8.51727 6.23283 8.05471H9.70312V7.35158H6.56827C6.82884 6.8833 7.14802 6.45168 7.51547 6.06669Z" fill="#1D1D1F"/>
<path d="M18.215 17.7823L17.7178 17.2852L17.2206 17.7823L17.7178 18.2795L18.215 17.7823Z" fill="#1D1D1F"/>
<path d="M18.8786 19.4397L19.3757 19.9369L19.8729 19.4397L19.3757 18.9425L18.8786 19.4397Z" fill="#1D1D1F"/>
<path d="M19.0445 18.6113L18.5474 18.1141L18.0502 18.6113L18.5474 19.1085L19.0445 18.6113Z" fill="#1D1D1F"/>
<path d="M7.0526 17.6312L6.55542 17.134L4.90866 18.7808L5.40584 19.278L7.0526 17.6312Z" fill="#1D1D1F"/>
<path d="M19.3986 3.55348L19.8958 4.05066L20.3929 3.55348L19.8958 3.0563L19.3986 3.55348Z" fill="white"/>
<path d="M18.7372 5.20983L18.24 4.71265L17.4865 5.46611L17.9837 5.96329L18.7372 5.20983Z" fill="white"/>
<path d="M19.566 4.38121L19.0688 3.88403L18.5717 4.38121L19.0688 4.87839L19.566 4.38121Z" fill="white"/>
<path d="M21.8284 2.17162V0H18.74V2.66648L16.8281 4.57837L17.3253 5.07553L19.4431 2.95772V0.703125H21.1253V2.37755L20.5913 2.9115L21.0886 3.4087L21.6225 2.87475H23.2969V4.55691H21.0423L18.5875 7.0117L19.0848 7.50886L21.3336 5.26003H24V2.17162H21.8284Z" fill="#1D1D1F"/>
<path d="M4.91648 7.51003L5.41369 7.01288L3.30928 4.90847L3.96131 4.25639L3.46406 3.75923L2.66644 4.55691H0.703125V2.87475H2.37755L2.90372 3.40092L3.40097 2.90377L2.87475 2.37755V0.703125H4.55691V2.95772L6.67528 5.07614L7.17253 4.57894L5.26003 2.66648V0H2.17162V2.17162H0V5.26003H2.66648L4.91648 7.51003Z" fill="#1D1D1F"/>
<path d="M4.90847 20.6907L4.21828 20.0006L3.72108 20.4978L4.55691 21.3336V23.2969H2.87475V21.6224L3.25247 21.2447L2.75522 20.7476L2.37755 21.1252H0.703125V19.4431H2.95772L6.84867 15.5521L6.35147 15.0549L2.66648 18.74H0V21.8284H2.17162V24H5.26003V21.3335L7.09303 19.5005L6.59583 19.0034L4.90847 20.6907Z" fill="#1D1D1F"/>
<path d="M17.6485 15.0549L17.1513 15.5521L21.0423 19.4431H23.2969V21.1252H21.6225L20.7722 20.275L20.275 20.7721L21.1253 21.6224V23.2969H19.4431V21.0423L17.4042 19.0034L16.907 19.5005L18.74 21.3335V24H21.8284V21.8284H24V18.74H21.3335L17.6485 15.0549Z" fill="#1D1D1F"/>
<path d="M15.8665 19.1865L15.3203 19.7327V18.8672H14.6172V19.8694H8.77451L8.13354 19.2284V16.6617H7.43042V19.5196L8.48333 20.5725H15.4749L16.5696 19.4777V16.6617H15.8665V19.1865Z" fill="#1D1D1F"/>
<path d="M15.7809 16.0941L18.8998 12.9751L18.9099 10.8064L18.2067 10.8031L18.1981 12.6825L15.1609 15.7198L14.5613 17.6514H13.9787V16.7614H13.2756V17.6514H12.3517V16.7614H11.6485V17.6514H10.7246V16.7614H10.0215V17.6514H9.43886L8.83933 15.7198L7.18061 14.0611H8.49915V13.3579H6.47748L5.79175 12.6721L5.79184 10.8047H5.08872L5.08862 12.9634L8.21936 16.0941L8.92089 18.3545H15.0793L15.7809 16.0941Z" fill="#1D1D1F"/>
</g>
<defs>
<clipPath id="clip0_3_390">
<rect width="24" height="24" fill="white"/>
</clipPath>
</defs>
</svg>
