<svg width="24" height="24" viewBox="0 0 24 24" fill="none" xmlns="http://www.w3.org/2000/svg">
<g clip-path="url(#clip0_3_459)">
<path d="M23.2976 7.15161L22.1449 8.6916L23.2976 10.2316L22.1449 11.7713L23.2976 13.3109L22.1449 14.8506L23.2976 16.3903L22.1449 17.9299L23.2976 19.4692H7.86144V13.4282H2.36694V1.1106H16.9194V7.15161H23.2976Z" fill="#787680"/>
<path d="M2.367 0.352661H0.351562V23.6472H2.367V0.352661Z" fill="#FFB655"/>
<path d="M2.36694 1.1106V13.4282H7.86144H16.9194V1.1106H2.36694Z" fill="#787680"/>
<path d="M9.48519 8.16172V9.70161C9.6125 9.82292 9.68708 9.89403 9.81435 10.0153H12.2803C12.4077 9.89399 12.4822 9.82288 12.6096 9.70161V8.16585L13.477 7.355V6.35558C13.477 5.00221 12.3704 3.90725 11.0127 3.92614C9.67902 3.94471 8.60146 5.05236 8.61786 6.3861L8.61768 7.35514L9.48519 8.16172Z" fill="#57565C"/>
<path d="M16.9196 13.4281L7.86157 19.4692V13.4281H16.9196Z" fill="#57565C"/>
<path d="M8.07894 8.16172V9.70161C8.20625 9.82292 8.28083 9.89403 8.4081 10.0153H10.8741C11.0014 9.89399 11.076 9.82288 11.2033 9.70161V8.16585L12.0708 7.355V6.35558C12.0708 5.00221 10.9642 3.90725 9.60646 3.92614C8.27277 3.94471 7.19521 5.05236 7.21161 6.3861L7.21143 7.35514L8.07894 8.16172Z" fill="#D8D7DA"/>
<path d="M1.28897 0.352661H0.351562V23.6472H1.28897V0.352661Z" fill="#FF7956"/>
<path d="M3.77305 1.1106H2.36694V13.4281H3.77305V1.1106Z" fill="#57565C"/>
<path d="M9.26768 13.4282H7.86157V19.4693L9.26768 18.5315V13.4282Z" fill="#3E3D42"/>
<path d="M9.485 8.1618L8.61753 7.35522L8.61772 6.38617C8.60413 5.28363 9.33843 4.33628 10.3467 4.03028C10.1128 3.95941 9.86422 3.92266 9.60646 3.92627C8.27277 3.94483 7.19521 5.05249 7.21161 6.38622L7.21143 7.35527L8.07889 8.16185V9.70174C8.20621 9.82305 8.28079 9.89416 8.40805 10.0154H9.81416C9.68685 9.89411 9.61227 9.823 9.485 9.70174V8.1618Z" fill="#ACABB1"/>
<path d="M14.5134 17.4335H13.8103V18.1365H14.5134V17.4335Z" fill="#1D1D1F"/>
<path d="M13.3417 17.4335H12.6387V18.1365H13.3417V17.4335Z" fill="#1D1D1F"/>
<path d="M16.8569 17.4335H16.1538V18.1365H16.8569V17.4335Z" fill="#1D1D1F"/>
<path d="M15.6853 17.4335H14.9822V18.1365H15.6853V17.4335Z" fill="#1D1D1F"/>
<path d="M1.71089 6.37158H1.00781V7.07466H1.71089V6.37158Z" fill="white"/>
<path d="M1.71089 7.54333H1.00781V8.24641H1.71089V7.54333Z" fill="white"/>
<path d="M1.71089 8.71509H1.00781V13.2001H1.71089V8.71509Z" fill="white"/>
<path d="M15.9243 4.18652H15.2212V4.8896H15.9243V4.18652Z" fill="white"/>
<path d="M15.9243 3.01477H15.2212V3.71785H15.9243V3.01477Z" fill="white"/>
<path d="M15.9243 5.35828H15.2212V11.5245H15.9243V5.35828Z" fill="white"/>
<path d="M7.50998 19.8208H24.0001L22.5841 17.9299L23.7369 16.3904L22.5841 14.8507L23.7369 13.311L22.5841 11.7713L23.7368 10.2315L22.5841 8.69155L23.9999 6.8001H17.8569V7.50317H22.5955L21.969 8.34003H21.0619V9.04311H21.969L22.8586 10.2315L21.969 11.4198H19.6714V12.1229H21.969L22.8586 13.3111L21.7058 14.8508L22.5954 16.0389H21.3109V16.742H22.5954L21.7059 17.93L22.5954 19.1179H9.02221L17.2711 13.6164V0.759033H3.30444V1.46211H16.5679V13.0767H3.30444V13.7798H7.50998V19.8208ZM15.7589 13.7797L8.21305 18.8123V16.9518H9.15557V16.2487H8.21305V15.5172H9.78323V14.8141H8.21305V13.7797H15.7589Z" fill="#1D1D1F"/>
<path d="M5.25206 7.24303V6.53996H2.71847V4.63767H3.97162V3.93464H2.71847V0.0012207H0V23.9989H2.71847V7.24303H5.25206ZM0.703078 23.2958V5.78972H1.14834V5.08664H0.703078V4.40705H1.53502V3.70397H0.703078V0.704299H2.01544V18.1011H1.35923V18.8041H2.01544V19.476H0.949125V20.179H2.01544V23.2959H0.703078V23.2958Z" fill="#1D1D1F"/>
<path d="M9.18086 5.35482L8.89656 4.71179C8.63064 4.8294 8.3942 5.0125 8.21289 5.24143L8.764 5.67798C8.87477 5.5382 9.01886 5.42645 9.18086 5.35482Z" fill="white"/>
<path d="M10.7139 6.35553L11.417 6.35563C11.4171 5.83981 11.1943 5.34805 10.8058 5.00647L10.3416 5.53447C10.5782 5.74259 10.714 6.04185 10.7139 6.35553Z" fill="white"/>
<path d="M9.60253 5.26254L9.62085 5.2624C9.76696 5.2624 9.90881 5.29081 10.0424 5.34692L10.3144 4.69859C10.0942 4.6062 9.86085 4.55933 9.61813 4.55933L9.59503 4.55951C9.54988 4.56012 9.50418 4.56247 9.45923 4.5665L9.52185 5.26676C9.54923 5.26433 9.57712 5.26292 9.60253 5.26254Z" fill="white"/>
<path d="M5.97066 2.72937V3.59435H5.10572V4.29743H6.17658L7.10175 5.2226C6.94228 5.57815 6.8551 5.97223 6.86016 6.38604L6.85993 7.50828L7.72744 8.3149V8.68573L6.17185 10.2413H5.1001V10.9444H5.96503V11.8094H6.66811V10.7394L7.72749 9.68004V9.85226L8.26753 10.3669H11.0148L11.5549 9.85226V9.67573L12.6185 10.7394V11.8093H13.3216V10.9444H14.1865V10.2413H13.1147L11.5548 8.68137V8.31842L12.4223 7.50753V6.35548C12.4223 5.95887 12.3392 5.57571 12.1828 5.22443L13.11 4.29729H14.1808V3.59426H13.3159V2.72942H12.6128V3.80032L11.8047 4.60845C11.7391 4.52759 11.6691 4.4495 11.5939 4.37525C11.0597 3.84856 10.3502 3.5651 9.60155 3.57467C8.74468 3.58662 7.98216 3.98801 7.48013 4.60685L6.6736 3.80032V2.72937H5.97066ZM10.7335 9.66378H8.54883L8.43052 9.551V9.16882H10.8518V9.551L10.7335 9.66378ZM9.61144 4.27765C9.62143 4.27751 9.63136 4.27746 9.6413 4.27746C10.1912 4.27746 10.7083 4.48934 11.1003 4.87587C11.4995 5.26953 11.7193 5.79504 11.7193 6.35562V7.20242L10.8518 8.01331V8.46579H8.43052V8.00862L7.5631 7.20204L7.56319 6.38182C7.54908 5.23751 8.46793 4.29359 9.61144 4.27765Z" fill="#1D1D1F"/>
<path d="M9.1899 6.51489H8.52808V7.21797H9.1899V6.51489Z" fill="#1D1D1F"/>
<path d="M10.7705 6.51489H10.1086V7.21797H10.7705V6.51489Z" fill="#1D1D1F"/>
<path d="M10.0112 7.45374H9.30811V8.29739H10.0112V7.45374Z" fill="#1D1D1F"/>
</g>
<defs>
<clipPath id="clip0_3_459">
<rect width="24" height="24" fill="white"/>
</clipPath>
</defs>
</svg>
