<svg width="24" height="24" viewBox="0 0 24 24" fill="none" xmlns="http://www.w3.org/2000/svg">
<g clip-path="url(#clip0_3_121)">
<path d="M16.3014 11.2744H2.11439L0.351562 13.0372V16.7868H3.70162V22.867H14.7142V16.7868H18.0639L18.0643 13.0372L16.3014 11.2744Z" fill="#787680"/>
<path d="M3.52064 11.2744H2.11439L0.351562 13.0373V16.7869H1.75781V13.0373L3.52064 11.2744Z" fill="#57565C"/>
<path d="M5.10791 16.7869H3.70166V22.867H5.10791V16.7869Z" fill="#57565C"/>
<path d="M4.49487 4.60645C4.32856 5.10838 4.23828 5.64491 4.23828 6.20263C4.23828 9.0036 6.50891 11.2743 9.30992 11.2743C12.1109 11.2743 14.3816 9.00365 14.3816 6.20263C14.3816 5.64491 14.2913 5.10834 14.125 4.60645H4.49487Z" fill="#FFDAAA"/>
<path d="M4.49609 4.60684C5.16509 2.58873 7.06766 1.13293 9.31025 1.13293C11.5528 1.13293 13.4553 2.58864 14.1243 4.60665L4.49609 4.60684Z" fill="#FF7956"/>
<path d="M2.1127 6.77583H1.11328C1.11328 5.53712 2.11744 4.53296 3.35616 4.53296H4.35562C4.35562 5.77163 3.35142 6.77583 2.1127 6.77583Z" fill="#FF7956"/>
<path d="M2.69251 2.86987H1.95142C1.95142 3.78834 2.69598 4.53295 3.61449 4.53295H4.35559C4.35559 3.61444 3.61098 2.86987 2.69251 2.86987Z" fill="#FF7956"/>
<path d="M3.70172 16.7869H0.351562V22.867H3.70172V16.7869Z" fill="#FFDAAA"/>
<path d="M18.0638 16.7869H14.7136V22.867H18.0638V16.7869Z" fill="#FFDAAA"/>
<path d="M14.7145 16.131H3.70166V18.5609H14.7145V16.131Z" fill="white"/>
<path d="M14.7145 20.9911H3.70166V22.867H14.7145V20.9911Z" fill="white"/>
<path d="M2.11439 11.2744L0.351562 13.0372V13.701H18.0642L18.0643 13.0372L16.3014 11.2744H2.11439Z" fill="white"/>
<path d="M23.4131 16.1311H18.0642V17.2355H23.4131V16.1311Z" fill="#FFB655"/>
<path d="M21.2489 21.1952H20.2282L19.998 17.2355H21.4791L21.2489 21.1952Z" fill="#FF7956"/>
<path d="M20.738 22.8672C21.1996 22.8672 21.5738 22.493 21.5738 22.0313C21.5738 21.5697 21.1996 21.1954 20.738 21.1954C20.2763 21.1954 19.9021 21.5697 19.9021 22.0313C19.9021 22.493 20.2763 22.8672 20.738 22.8672Z" fill="#FFB655"/>
<path d="M21.8167 16.131L22.7406 10.0459C23.0983 7.68958 21.9763 5.35469 19.9129 4.16187L20.2571 5.22551C20.659 6.46736 20.4663 7.8251 19.7349 8.90608L19.8299 16.131H21.8167Z" fill="#D8D7DA"/>
<path d="M5.64453 6.20263C5.64453 5.64491 5.73481 5.10838 5.90112 4.60645H4.49487C4.32856 5.10838 4.23828 5.64491 4.23828 6.20263C4.23828 9.0036 6.50891 11.2743 9.30992 11.2743C9.54856 11.2743 9.78322 11.2574 10.013 11.2255C7.54489 10.8831 5.64453 8.76501 5.64453 6.20263Z" fill="#FF9478"/>
<path d="M10.0133 1.18229C9.78341 1.15037 9.54889 1.13293 9.3102 1.13293C7.06766 1.13293 5.16509 2.58873 4.49609 4.60684H5.90234C6.50014 2.80351 8.08316 1.45014 10.0133 1.18229Z" fill="#FF3F62"/>
<path d="M4.29366 4.53296H3.35616C2.11744 4.53296 1.11328 5.53711 1.11328 6.77583H2.05078C2.05078 5.53716 3.05494 4.53296 4.29366 4.53296Z" fill="#FF3F62"/>
<path d="M2.88924 2.88187C2.8247 2.87428 2.75912 2.86987 2.69251 2.86987H1.95142C1.95142 3.78834 2.69598 4.53295 3.61449 4.53295H4.35559C4.35559 4.52892 4.35531 4.52498 4.35531 4.521C3.53345 4.42406 2.89524 3.72834 2.88924 2.88187Z" fill="#FF3F62"/>
<path d="M1.75781 16.7869H0.351562V22.867H1.75781V16.7869Z" fill="#FF9478"/>
<path d="M16.1199 16.7869H14.7136V22.867H16.1199V16.7869Z" fill="#FF9478"/>
<path d="M5.10791 16.1311H3.70166V18.5611H5.10791V16.1311Z" fill="#D8D7DA"/>
<path d="M5.10791 20.9911H3.70166V22.867H5.10791V20.9911Z" fill="#D8D7DA"/>
<path d="M3.52064 11.2744H2.11439L0.351562 13.0372V13.7011H1.75781V13.0372L3.52064 11.2744Z" fill="#D8D7DA"/>
<path d="M19.4705 16.1311H18.0642V17.2355H19.4705V16.1311Z" fill="#FF7956"/>
<path d="M19.998 17.2355L20.2282 21.1952H20.697L20.4668 17.2355H19.998Z" fill="#FF3F62"/>
<path d="M21.0844 22.6221C20.758 22.2957 20.758 21.7664 21.0844 21.44C21.1226 21.4019 21.1637 21.3686 21.2067 21.3394C20.8815 21.1184 20.4352 21.1517 20.1469 21.44C19.8205 21.7664 19.8205 22.2957 20.1469 22.6221C20.4352 22.9104 20.8815 22.9437 21.2067 22.7228C21.1637 22.6936 21.1226 22.6603 21.0844 22.6221Z" fill="#FF7956"/>
<path d="M21.8305 5.95994C21.3475 5.23633 20.6987 4.61613 19.9129 4.16187L20.2571 5.22551C20.659 6.46736 20.4663 7.8251 19.7349 8.90608L19.8299 16.131H21.2361L21.1411 8.90608C21.7304 8.03524 21.9697 6.98477 21.8305 5.95994Z" fill="#ACABB1"/>
<path d="M13.1058 6.23658L12.4026 6.23035C12.4008 6.44128 12.3775 6.65199 12.3333 6.85664L13.0205 7.00505C13.0748 6.75375 13.1035 6.49514 13.1058 6.23658Z" fill="white"/>
<path d="M9.84106 9.2499L9.96144 9.94267C10.8507 9.78817 11.659 9.31717 12.2377 8.61653L11.6955 8.16882C11.2236 8.74018 10.5651 9.12409 9.84106 9.2499Z" fill="white"/>
<path d="M12.877 7.50155L12.2165 7.26038C12.1445 7.45739 12.0518 7.64803 11.9409 7.82691L12.5385 8.19741C12.6747 7.97775 12.7886 7.74366 12.877 7.50155Z" fill="white"/>
<path d="M10.6846 2.20251H9.98145V2.90564H10.6846V2.20251Z" fill="#1D1D1F"/>
<path d="M9.5127 2.20251H8.80957V2.90564H9.5127V2.20251Z" fill="#1D1D1F"/>
<path d="M13.6125 12.0421H12.9094V12.7452H13.6125V12.0421Z" fill="#1D1D1F"/>
<path d="M12.4407 12.0421H11.7375V12.7452H12.4407V12.0421Z" fill="#1D1D1F"/>
<path d="M15.9563 12.0421H15.2532V12.7452H15.9563V12.0421Z" fill="#1D1D1F"/>
<path d="M14.7844 12.0421H14.0813V12.7452H14.7844V12.0421Z" fill="#1D1D1F"/>
<path d="M24 19.4037C24 18.6904 23.7016 18.0459 23.2238 17.587H23.7645V15.7794H22.2257L23.0883 10.0987C23.2745 8.87237 23.0889 7.63323 22.5517 6.51531C22.0144 5.39734 21.1628 4.47831 20.089 3.8575L19.2968 3.39953L19.9228 5.33378C20.2939 6.48053 20.1193 7.71076 19.4437 8.70906L19.382 8.80042L19.4737 15.7794H18.4156L18.4157 14.0526L18.4158 12.8916L16.4471 10.9228H11.9776C13.6215 9.99015 14.7331 8.22386 14.7331 6.20261C14.7331 5.97081 14.7177 5.734 14.6871 5.49878L13.9898 5.58943C14.0165 5.79465 14.03 6.00095 14.03 6.20261C14.03 8.80525 11.9126 10.9226 9.30998 10.9226C7.30706 10.9226 5.59177 9.66854 4.90748 7.90445H5.96109V7.20132H4.69659C4.62694 6.87925 4.58991 6.54517 4.58991 6.20256C4.58991 5.95525 4.60603 5.36336 4.62834 5.1677C4.64569 5.09898 4.65998 5.02904 4.67175 4.95831L14.6114 4.95812L14.4581 4.49593C13.7215 2.27415 11.6527 0.781372 9.31031 0.781372C7.27097 0.781372 5.43956 1.91312 4.5135 3.67201C4.19006 2.99068 3.49552 2.51828 2.6925 2.51828H1.59984V2.86984C1.59984 3.48311 1.87566 4.0329 2.3093 4.4027C1.3988 4.80592 0.761672 5.71759 0.761672 6.77579V7.12736H2.11266C2.80069 7.12736 3.42656 6.85764 3.89142 6.41898C3.96759 8.34939 5.05734 10.0236 6.64228 10.9228H1.9688L0 12.8916V23.2186H18.4155V17.587H19.6664L19.8773 21.2135C19.4357 21.6781 19.4425 22.415 19.8983 22.8707C20.1297 23.1022 20.4338 23.2179 20.7379 23.2179C21.042 23.2179 21.3461 23.1022 21.5776 22.8707C21.8461 22.6022 21.9586 22.2359 21.9156 21.8853C23.0981 21.6782 24 20.6447 24 19.4037ZM5.47116 3.4562H7.85995V2.75308H6.087C6.94083 1.95573 8.08233 1.4845 9.31031 1.4845C10.676 1.4845 11.9344 2.068 12.8093 3.03418H11.557V3.73731H13.3354C13.4367 3.90297 13.529 4.07547 13.6102 4.25509L5.01023 4.25528C5.13863 3.97122 5.29378 3.70436 5.47116 3.4562ZM2.6925 3.22145C3.29395 3.22145 3.80213 3.62842 3.9562 4.1814H3.61453C3.01308 4.1814 2.50491 3.77443 2.35083 3.22145H2.6925ZM2.1127 6.42428H1.49761C1.6628 5.54879 2.43338 4.88448 3.35611 4.88448H3.97125C3.80602 5.75997 3.03548 6.42428 2.1127 6.42428ZM20.9172 20.8436H20.56L20.5156 20.0807H20.9616L20.9172 20.8436ZM21.0025 19.3776H20.4748L20.442 18.8147H21.0352L21.0025 19.3776ZM20.0879 9.00939C20.8342 7.84782 21.0185 6.43586 20.5917 5.11726L20.5726 5.0582C21.8182 6.12775 22.5106 7.69806 22.4521 9.35471H21.4792V10.0578H22.3833L21.5145 15.7794H21.2145V11.4023H20.5114V15.7794H20.1769L20.0879 9.00939ZM0.703125 13.1829L2.26003 11.6259H16.1558L17.7127 13.1829V13.3495H0.703125V13.1829ZM0.703125 14.0526H17.7126L17.7124 16.4353H15.0658V14.6641H14.3626V15.7794H4.05323V14.6641H3.35011V16.4353H0.703125V14.0526ZM4.05323 16.4826H14.3623V18.2094H4.05323V17.6976H5.54686V16.9944H4.05323V16.4826ZM4.05323 18.9126H14.3623V20.6394H4.05323V18.9126ZM3.35011 22.5154H0.703125V17.1384H3.35011V18.4842H2.02659V19.1873H3.35006L3.35011 22.5154ZM4.05323 22.5154V21.3426H14.3623V22.5154H4.05323ZM17.7123 22.5154H15.0658V17.1384H17.7123V22.5154ZM18.4158 16.8839V16.4825H23.0614V16.8839C23.0572 16.8839 18.42 16.8839 18.4158 16.8839ZM21.1065 17.587L21.076 18.1116H20.4011L20.3706 17.587H21.1065ZM21.0804 22.3736C20.8916 22.5624 20.5843 22.5624 20.3955 22.3736C20.2066 22.1848 20.2066 21.8775 20.3955 21.6887C20.4899 21.5942 20.6139 21.5471 20.738 21.5471C20.862 21.5471 20.986 21.5943 21.0804 21.6887C21.2693 21.8775 21.2692 22.1847 21.0804 22.3736ZM21.6011 21.2162C21.6007 21.2158 21.6003 21.2154 21.5999 21.2149L21.8091 17.6171C22.6543 17.7725 23.2969 18.5142 23.2969 19.4037C23.2969 20.3648 22.5467 21.1535 21.6011 21.2162Z" fill="#1D1D1F"/>
<path d="M17.2266 17.8453H16.5234V18.5485H17.2266V17.8453Z" fill="white"/>
<path d="M17.2266 20.1891H16.5234V21.8088H17.2266V20.1891Z" fill="white"/>
<path d="M17.2266 19.0172H16.5234V19.7203H17.2266V19.0172Z" fill="white"/>
<path d="M12.6052 19.3777H11.9021V20.0808H12.6052V19.3777Z" fill="white"/>
<path d="M13.7771 19.3777H13.074V20.0808H13.7771V19.3777Z" fill="white"/>
<path d="M11.4333 19.3777H8.43335V20.0808H11.4333V19.3777Z" fill="white"/>
<path d="M12.4264 14.5702H9.76025V15.2733H12.4264V14.5702Z" fill="#1D1D1F"/>
</g>
<defs>
<clipPath id="clip0_3_121">
<rect width="24" height="24" fill="white"/>
</clipPath>
</defs>
</svg>
