<svg width="24" height="24" viewBox="0 0 24 24" fill="none" xmlns="http://www.w3.org/2000/svg">
<g clip-path="url(#clip0_3_631)">
<path d="M20.3292 0.361938H3.68219C3.58277 0.361938 3.54283 0.489016 3.62369 0.546859C5.23759 1.70035 4.24352 5.42796 6.17536 5.79016C8.22819 6.17505 7.1376 7.39398 8.89381 8.22792C10.1718 8.83486 10.4263 10.1638 10.4701 10.7916C10.8162 10.9918 11.2754 11.0773 11.838 10.791C12.7555 10.324 13.0646 10.7738 13.5362 10.8827C13.5619 10.2914 13.7746 8.86575 15.1177 8.22792C16.8738 7.39398 15.7833 6.1751 17.8361 5.79016C19.768 5.42791 18.7739 1.70035 20.3877 0.546859C20.4687 0.489016 20.4287 0.361938 20.3292 0.361938Z" fill="#FEE55A"/>
<path d="M10.6873 8.22792C9.20416 7.39398 10.1252 6.1751 8.3915 5.79016C6.75993 5.42791 7.5995 1.70035 6.23648 0.546859C6.16819 0.489062 6.20194 0.361938 6.28589 0.361938H3.68219C3.58277 0.361938 3.54283 0.489016 3.62369 0.546859C5.23759 1.70035 4.24352 5.42796 6.17536 5.79016C8.22819 6.17505 7.1376 7.39398 8.89381 8.22792C10.1718 8.83486 10.4263 10.1638 10.4701 10.7916C10.8162 10.9918 11.2754 11.0773 11.838 10.791C11.899 10.76 11.9571 10.7332 12.0129 10.7099C11.9622 10.0549 11.7221 8.80978 10.6873 8.22792Z" fill="#FFD301"/>
<path d="M22.2839 22.864C18.2135 20.2835 16.1405 16.8787 15.0864 14.1737C14.7816 14.3051 14.4281 14.3189 14.136 14.1657C13.6444 13.9079 13.3569 13.2411 12.8018 13.2301C12.5091 13.2243 12.246 13.4171 11.9544 13.4434C11.5116 13.4833 11.1334 13.1411 10.8435 12.804C10.5535 12.4671 10.2494 12.0856 9.81297 12.0007C9.74917 11.9883 9.68514 11.9835 9.6213 11.9842C8.92863 14.7776 7.01024 19.5141 1.72901 22.8629C1.35284 23.1014 1.52909 23.6587 1.98125 23.6587H22.0301C22.4811 23.6588 22.6592 23.1019 22.2839 22.864Z" fill="#BC7C63"/>
<path d="M11.2598 13.2069C11.1063 13.0915 10.9668 12.9474 10.8435 12.804C10.5535 12.4671 10.2494 12.0856 9.81297 12.0007C9.74917 11.9883 9.68514 11.9835 9.6213 11.9842C8.92863 14.7776 7.01024 19.5141 1.72901 22.8629C1.35284 23.1014 1.52909 23.6587 1.98125 23.6587H5.36184C9.09513 20.854 10.7188 15.7574 11.2598 13.2069Z" fill="#AB6B51"/>
<path d="M9.81298 12.0944C10.2493 12.1793 10.5536 12.5608 10.8435 12.8978C11.1334 13.2347 11.5117 13.577 11.9544 13.5371C12.246 13.5108 12.5092 13.318 12.8018 13.3238C13.3569 13.3349 13.6444 14.0016 14.136 14.2594C14.4382 14.4179 14.8061 14.3981 15.1177 14.2538C14.6017 12.9481 14.3229 11.8004 14.1733 10.9797C14.1505 10.855 14.0244 10.7702 13.894 10.7952C13.174 10.9334 12.9652 10.1234 11.838 10.6971C11.1618 11.0413 10.6347 10.8484 10.2742 10.5645C10.1312 10.4519 9.91385 10.5306 9.8854 10.7051C9.82414 11.081 9.73282 11.5462 9.59778 12.0781C9.66936 12.0757 9.74131 12.0805 9.81298 12.0944Z" fill="#FF656F"/>
<path d="M11.8352 10.6985C11.1603 11.0408 10.6342 10.8481 10.2742 10.5646C10.1312 10.4519 9.91385 10.5306 9.8854 10.7052C9.82414 11.081 9.73282 11.5462 9.59778 12.0781C9.6694 12.0757 9.74135 12.0805 9.81298 12.0944C10.2493 12.1793 10.5536 12.5608 10.8435 12.8978C10.9622 13.0357 11.0959 13.1741 11.2426 13.2873C11.4016 12.553 11.4736 12.0171 11.4816 11.7888C11.5007 11.2451 11.6615 10.9069 11.8352 10.6985Z" fill="#FF4756"/>
<path d="M10.3545 15.2665C10.1671 15.2159 9.97403 15.327 9.9235 15.5144C9.91703 15.5384 9.26098 17.9316 7.79928 19.9102C7.68393 20.0664 7.71697 20.2865 7.87316 20.4018C8.0293 20.5172 8.24942 20.4842 8.36478 20.328C9.90452 18.2437 10.5746 15.8004 10.6023 15.6975C10.6529 15.51 10.5419 15.317 10.3545 15.2665Z" fill="black"/>
<path d="M10.4156 20.1344C10.593 20.2135 10.8008 20.1338 10.8799 19.9565C11.2468 19.1339 11.5493 18.2171 11.7788 17.2314C11.8228 17.0424 11.7052 16.8534 11.5161 16.8093C11.3269 16.7651 11.1379 16.8829 11.0939 17.072C10.8746 18.0142 10.5865 18.8883 10.2377 19.6701C10.1586 19.8474 10.2383 20.0553 10.4156 20.1344Z" fill="black"/>
<path d="M12.9151 8.11047C13.0901 8.11047 13.2417 7.97983 13.2636 7.80166C13.5202 5.70918 13.96 6.70259 14.2908 4.79193C14.3757 4.30162 14.4364 4.01822 14.6975 3.89517C14.8731 3.81239 14.9484 3.60296 14.8656 3.42732C14.7828 3.25168 14.5733 3.17649 14.3977 3.25918C13.7932 3.54408 13.6895 4.14333 13.598 4.67207C13.5295 5.06742 13.4588 5.47621 13.1966 5.78919C12.8898 6.15533 12.6776 6.80365 12.5656 7.71611C12.54 7.92513 12.7029 8.11047 12.9151 8.11047Z" fill="black"/>
<path d="M9.74974 4.79204C10.0788 6.69248 10.5176 5.71655 10.7754 7.80205C10.7992 7.9948 10.9748 8.13167 11.1674 8.10781C11.3601 8.084 11.4969 7.9085 11.4731 7.7158C11.36 6.80076 11.1483 6.15258 10.8439 5.78921C10.5817 5.47627 10.5109 5.06748 10.4425 4.67214C10.351 4.14339 10.2473 3.54414 9.64273 3.25924C9.46704 3.17641 9.25756 3.25174 9.17487 3.42738C9.09209 3.60302 9.16737 3.8125 9.34301 3.89524C9.60415 4.01828 9.6649 4.30169 9.74974 4.79204Z" fill="black"/>
<path d="M19.6772 8.11105C19.6732 7.91694 19.5128 7.76281 19.3185 7.7668C17.1933 7.81063 15.6454 9.39813 15.5805 9.46568C15.4462 9.6056 15.4508 9.82764 15.5905 9.96217C15.6586 10.0278 15.7464 10.0604 15.8342 10.0604C15.9263 10.0604 16.0184 10.0244 16.0874 9.95294C16.1013 9.9385 17.5043 8.50747 19.333 8.46973C19.5271 8.46579 19.6812 8.3052 19.6772 8.11105Z" fill="black"/>
<path d="M16.2492 10.4057C16.0672 10.4728 15.9742 10.6745 16.0411 10.8566C16.1081 11.039 16.3102 11.132 16.492 11.0656C16.5009 11.0623 17.4003 10.7391 18.2709 10.8812C18.4629 10.9124 18.6432 10.7823 18.6744 10.5907C18.7056 10.3991 18.5756 10.2184 18.384 10.1872C17.3265 10.0148 16.2927 10.3897 16.2492 10.4057Z" fill="black"/>
<path d="M8.40948 9.96271C8.5495 9.82823 8.55409 9.60567 8.41961 9.46566C8.35473 9.39811 6.80684 7.81061 4.68164 7.76678C4.48692 7.7634 4.32694 7.91692 4.32295 8.11103C4.31892 8.30518 4.47305 8.46577 4.6672 8.46976C6.49358 8.50744 7.89522 9.93482 7.91271 9.95292C7.98175 10.0246 8.07386 10.0607 8.16606 10.0607C8.25363 10.0607 8.34133 10.0282 8.40948 9.96271Z" fill="black"/>
<path d="M7.75092 10.4057C7.70737 10.3897 6.67351 10.0148 5.61606 10.1872C5.42444 10.2185 5.29446 10.3991 5.32567 10.5907C5.35689 10.7823 5.53698 10.9123 5.72922 10.8812C6.59879 10.7395 7.49672 11.0615 7.50806 11.0656C7.69012 11.1324 7.89197 11.0392 7.95904 10.8572C8.02626 10.675 7.93308 10.4729 7.75092 10.4057Z" fill="black"/>
<path d="M22.4664 22.5567C20.5703 21.3547 18.9551 19.8642 17.6656 18.1266C17.5498 17.9706 17.3296 17.9381 17.1738 18.0538C17.0178 18.1695 16.9853 18.3897 17.101 18.5456C18.4421 20.3528 20.1207 21.9022 22.0899 23.1506C22.1683 23.2002 22.1241 23.2969 22.0243 23.2969H1.9754C1.87458 23.2969 1.83201 23.1998 1.91147 23.1495C7.04532 19.8942 9.06294 15.3434 9.8509 12.4626C10.2494 12.6232 10.5087 13.1293 10.9544 13.5012C11.1036 13.6256 11.3253 13.6056 11.4496 13.4565C11.5739 13.3074 11.554 13.0857 11.4048 12.9613C10.9995 12.6233 10.6743 11.9846 10.0241 11.7774C10.1286 11.3235 10.1867 10.9816 10.1955 10.9347C10.7198 11.2776 11.3372 11.3318 11.9917 11.0002C12.913 10.5314 13.0501 11.2271 13.8427 11.1466C13.9907 11.9262 14.2364 12.9095 14.6437 14.0072C13.9469 14.0496 13.7221 13.0126 12.8395 12.9639C12.6463 12.9536 12.4798 13.1016 12.4692 13.2956C12.4584 13.4894 12.6069 13.6553 12.8008 13.666C13.3108 13.6941 13.6672 14.9346 14.9081 14.6784C15.2369 15.4681 15.6492 16.3039 16.1669 17.1567C16.2678 17.3227 16.484 17.3755 16.6499 17.2747C16.8159 17.1739 16.8687 16.9577 16.768 16.7917C15.6478 14.9469 14.8756 12.8936 14.5133 10.9065C14.4605 10.6167 14.1997 10.4214 13.9175 10.4299C14.013 9.80977 14.324 8.98098 15.2626 8.53525C16.1935 8.09322 16.4391 7.52866 16.6364 7.07506C16.84 6.6072 16.9744 6.29811 17.8951 6.12552C19.1772 5.88515 19.4027 4.51059 19.612 3.28018C19.809 2.12266 19.9949 1.02931 20.8509 0.676859C21.0305 0.602938 21.1161 0.397486 21.0422 0.217909C20.9682 0.0384265 20.7626 -0.0472603 20.5832 0.0267078C19.3672 0.52747 19.129 1.92724 18.9188 3.16229C18.694 4.48364 18.5042 5.29598 17.7655 5.43449C16.4785 5.6758 16.2199 6.27022 15.9917 6.79465C15.818 7.19403 15.6539 7.57123 14.9611 7.90019C13.7472 8.47666 13.3543 9.55416 13.2307 10.2831C13.1952 10.2675 13.1583 10.252 13.12 10.2371H13.1199C12.0002 9.80171 11.6109 10.7666 10.7947 10.4568C10.7089 9.77752 10.3672 8.53099 9.03885 7.90019C8.34604 7.57118 8.18193 7.19398 8.00821 6.79465C7.78008 6.27022 7.52147 5.67585 6.23439 5.43449C5.49569 5.29598 5.30585 4.48369 5.08108 3.16234C4.87099 1.92729 4.63282 0.527516 3.4167 0.0267547C3.23713 -0.0471666 3.03172 0.0384734 2.95775 0.217956C2.88388 0.397533 2.96947 0.602985 3.149 0.676906C4.00498 1.0294 4.19098 2.12271 4.38795 3.28028C4.59682 4.50797 4.82172 5.88501 6.10487 6.12561C7.02549 6.29825 7.15997 6.6073 7.3635 7.07515C7.56084 7.52881 7.80647 8.09336 8.7373 8.53539C9.54519 8.91901 9.88597 9.59382 10.0266 10.1586C9.98309 10.1651 9.93992 10.1753 9.89811 10.1916C9.70255 10.2676 9.56595 10.4347 9.53272 10.6386C8.78258 15.2441 6.03479 19.7027 1.53502 22.5559C0.857724 22.9854 1.17722 24.0002 1.9755 24.0002H22.0243C22.8224 24 23.1423 22.9852 22.4664 22.5567Z" fill="black"/>
</g>
<defs>
<clipPath id="clip0_3_631">
<rect width="24" height="24" fill="white"/>
</clipPath>
</defs>
</svg>
