<svg width="23" height="24" viewBox="0 0 23 24" fill="none" xmlns="http://www.w3.org/2000/svg">
<g clip-path="url(#clip0_3_647)">
<path d="M17.8147 9.19146C17.771 9.11149 17.771 9.0131 17.8147 8.93313L19.0926 6.59572C19.1788 6.43813 19.0884 6.22982 18.9162 6.21149C18.9074 6.21055 18.8984 6.21008 18.8893 6.21008H16.1023V8.89526C16.1023 9.04784 15.9845 9.17149 15.8392 9.17149H13.1155V11.6384C13.1155 11.791 13.2333 11.9146 13.3786 11.9146H18.8893C18.8984 11.9146 18.9074 11.9141 18.9162 11.9132C19.0884 11.8948 19.1788 11.6865 19.0926 11.529L17.8147 9.19146Z" fill="#FF656F"/>
<path d="M16.5389 23.1318L14.2445 17.3516C14.1882 17.2098 14.0563 17.1174 13.91 17.1174H6.39938C6.25309 17.1174 6.12117 17.2098 6.06487 17.3516L3.77046 23.1318C3.67095 23.3825 3.84635 23.6588 4.10497 23.6588H16.2044C16.463 23.6588 16.6384 23.3825 16.5389 23.1318Z" fill="#43CB8E"/>
<path d="M7.12509 23.1318L9.41955 17.3516C9.47584 17.2098 9.60776 17.1174 9.75405 17.1174H6.39942C6.25313 17.1174 6.12121 17.2098 6.06492 17.3516L3.77046 23.1318C3.67095 23.3825 3.84635 23.6588 4.10497 23.6588H7.4596C7.20098 23.6588 7.02558 23.3825 7.12509 23.1318Z" fill="#00BA66"/>
<path d="M13.1155 9.17151V11.6384C13.1155 11.7084 13.1405 11.7721 13.1814 11.8208L15.9285 9.26526L13.1155 9.17151Z" fill="#FF4756"/>
<path d="M15.9285 3.56067H10.827V9.26519H15.9285C16.0738 9.26519 16.1916 9.14149 16.1916 8.98896V3.8369C16.1916 3.68432 16.0738 3.56067 15.9285 3.56067Z" fill="#FF8188"/>
<path d="M10.8271 3.56067H13.1156V9.26519H10.8271V3.56067Z" fill="#FF656F"/>
<path d="M10.1548 3.37324C9.87725 3.37324 9.61729 3.29491 9.39319 3.15874V19.8836C9.39319 20.128 9.58185 20.3261 9.81457 20.3261H10.4951C10.7278 20.3261 10.9165 20.128 10.9165 19.8836V3.15869C10.6923 3.29491 10.4323 3.37324 10.1548 3.37324Z" fill="#DFEBFA"/>
<path d="M10.286 19.8836V3.36658C10.2427 3.37047 10.1991 3.37319 10.1548 3.37319C9.87725 3.37319 9.61725 3.29486 9.39319 3.15869V19.8836C9.39319 20.1279 9.58185 20.326 9.81453 20.326H10.4951C10.5318 20.326 10.5672 20.3206 10.6012 20.3113C10.42 20.2618 10.286 20.0893 10.286 19.8836Z" fill="#B1DBFC"/>
<path d="M11.0887 3.22564C11.7516 2.68239 11.8696 1.67772 11.3522 0.981656C10.8348 0.28559 9.87801 0.161708 9.21509 0.704958C8.55217 1.24821 8.43419 2.25287 8.95157 2.94894C9.46895 3.645 10.4258 3.76889 11.0887 3.22564Z" fill="#FEE55A"/>
<path d="M9.99713 1.96123C9.99713 1.33578 10.3393 0.794518 10.8375 0.531597C10.6321 0.423222 10.4003 0.361816 10.1547 0.361816C9.31348 0.361816 8.63147 1.07788 8.63147 1.96123C8.63147 2.84459 9.31343 3.56065 10.1547 3.56065C10.4003 3.56065 10.6321 3.49924 10.8375 3.39087C10.3393 3.12795 9.99713 2.58668 9.99713 1.96123Z" fill="#FFD301"/>
<path d="M6.39394 16.7556C6.11162 16.7556 5.85903 16.9324 5.75042 17.206L3.45592 22.9863C3.26462 23.4682 3.6023 24 4.09949 24H9.36799C9.55295 24 9.70281 23.8426 9.70281 23.6484C9.70281 23.4543 9.55295 23.2969 9.36799 23.2969H4.09949C4.09507 23.2969 4.08471 23.2969 4.07654 23.284C4.06833 23.2711 4.0723 23.2611 4.07399 23.2568L6.36845 17.4765C6.37274 17.4657 6.38269 17.4587 6.39385 17.4587H9.05273V19.8733C9.05273 20.3111 9.39197 20.6673 9.80888 20.6673H10.4894C10.9064 20.6673 11.2456 20.3111 11.2456 19.8733V17.4587H13.9044C13.9156 17.4587 13.9256 17.4657 13.9298 17.4765L16.2243 23.2568C16.226 23.2611 16.23 23.2711 16.2218 23.284C16.2136 23.2969 16.2032 23.2969 16.1988 23.2969H10.9305C10.7455 23.2969 10.5957 23.4543 10.5957 23.6484C10.5957 23.8426 10.7455 24 10.9305 24H16.199C16.6963 24 17.0338 23.468 16.8426 22.9863L14.5481 17.2061C14.4395 16.9324 14.1869 16.7556 13.9045 16.7556H11.2457V14.3865C11.2457 14.1923 11.0958 14.0349 10.9108 14.0349C10.7259 14.0349 10.576 14.1923 10.576 14.3865V19.8733C10.576 19.9234 10.5372 19.9642 10.4895 19.9642H9.80897C9.76125 19.9642 9.72245 19.9234 9.72245 19.8733C9.72245 19.6562 9.72245 4.18662 9.72245 3.84969C9.99558 3.91728 10.2895 3.92061 10.5761 3.84969V12.7459C10.5761 12.94 10.7259 13.0974 10.9109 13.0974C11.0958 13.0974 11.2457 12.94 11.2457 12.7459V9.60648H12.7753V11.628C12.7753 11.9685 13.0404 12.2559 13.3732 12.2559H18.8839C19.3322 12.2559 19.5958 11.7428 19.3776 11.3436L18.1248 9.05204L19.3776 6.76047C19.5957 6.36157 19.3324 5.84824 18.8839 5.84824H16.521V3.82663C16.521 3.48046 16.2527 3.19878 15.9231 3.19878H11.5762C11.8452 2.8603 12.0073 2.42516 12.0073 1.95093C12.0073 0.8752 11.1738 0 10.1492 0C9.12469 0 8.29117 0.8752 8.29117 1.95098C8.29117 2.59644 8.59143 3.16939 9.05281 3.52471V16.7555H6.39394V16.7556ZM16.0721 9.58595C16.3297 9.5161 16.521 9.27071 16.521 8.97868V6.55132H18.7197L17.5189 8.74787C17.4164 8.93546 17.4164 9.16862 17.5189 9.35621L18.7197 11.5527H13.9578L16.0721 9.58595ZM13.4449 11.0906V9.60653H15.0402L13.4449 11.0906ZM15.8513 3.90195V8.9034C14.9087 8.9034 12.1903 8.9034 11.2457 8.9034V3.90195H15.8513ZM8.96081 1.95098C8.96081 1.2629 9.49393 0.703122 10.1492 0.703122C10.8045 0.703122 11.3377 1.2629 11.3377 1.95098C11.3377 2.41677 11.0932 2.82355 10.732 3.03786C9.94469 3.50431 8.96081 2.90511 8.96081 1.95098Z" fill="black"/>
</g>
<defs>
<clipPath id="clip0_3_647">
<rect width="22.8571" height="24" fill="white"/>
</clipPath>
</defs>
</svg>
