<svg width="24" height="24" viewBox="0 0 24 24" fill="none" xmlns="http://www.w3.org/2000/svg">
<g clip-path="url(#clip0_3_606)">
<path d="M21.2816 9.02756C21.3571 8.65636 21.2091 8.2478 20.9134 8.01101C20.7296 7.86385 20.4936 7.78687 20.2582 7.78687C20.1149 7.78687 19.9718 7.81542 19.841 7.87402C19.7947 7.89475 19.7499 7.91894 19.7066 7.94233C19.639 7.9788 19.5752 8.01331 19.5063 8.03562C19.191 8.13773 18.8878 7.9698 18.567 7.79194C18.4235 7.71233 18.275 7.63006 18.1246 7.57348C17.8517 7.47085 17.5579 7.45304 17.2737 7.43583C17.0643 7.42313 16.8478 7.41005 16.6435 7.36275C16.3399 7.29247 16.0483 7.08184 15.9178 6.83858C15.8352 6.68477 15.8208 6.52561 15.8758 6.37836C15.9131 6.27892 15.9784 6.19388 16.0476 6.10387C16.1085 6.02465 16.1715 5.9427 16.2149 5.8488C16.3104 5.64215 16.2975 5.41417 16.2851 5.19369C16.2769 5.0493 16.2685 4.90004 16.2912 4.76038C16.3279 4.53634 16.4464 4.32702 16.561 4.12459C16.7011 3.8773 16.8458 3.62161 16.8488 3.3311C16.8503 3.17991 16.8124 3.03355 16.7757 2.89197C16.7582 2.82427 16.74 2.75423 16.7268 2.68551C16.6722 2.4016 16.6995 2.10255 16.8056 1.81771L16.8312 1.77795C15.7715 1.33751 14.6575 1.06913 13.5314 0.971802C13.4205 1.28721 13.1062 1.61926 12.9775 1.92469C12.9162 2.0703 12.9008 2.23138 12.8467 2.37985C12.7926 2.52832 12.6818 2.67393 12.5254 2.69624C12.4774 2.70309 12.4268 2.69812 12.3823 2.7172C12.2603 2.76942 12.2714 2.94335 12.2154 3.0636C12.1565 3.18999 12.0124 3.25899 11.8733 3.26771C11.7342 3.27643 11.5972 3.23551 11.4638 3.19496C11.2917 3.14268 11.1067 3.08141 11.0031 2.9343C10.9462 2.85367 10.9205 2.75513 10.8699 2.67046C10.7802 2.5204 10.6225 2.42743 10.4814 2.3242C10.164 2.092 9.90869 1.68237 9.73983 1.2979C9.08458 1.47042 8.44223 1.70416 7.82144 1.99848L7.84718 2.03701C7.86092 2.18366 7.93293 2.31783 8.04938 2.41102L8.86181 3.06097C8.96949 3.14714 9.03123 3.27564 9.03123 3.41351V4.33677C9.03123 4.63741 9.27581 4.88194 9.57645 4.88194H9.95613C10.2051 4.88194 10.4076 5.08446 10.4076 5.3334V5.77056C10.4076 5.91293 10.3393 6.04856 10.2249 6.13331L7.99584 7.78444C7.91867 7.84163 7.82323 7.87313 7.72712 7.87313H6.34912C6.04848 7.87313 5.80395 8.11771 5.80395 8.4183V9.32722C5.80395 9.47283 5.86063 9.60976 5.96363 9.71276L6.92941 10.6785C7.03236 10.7815 7.16929 10.8382 7.31495 10.8382H8.67466C8.9236 10.8382 9.12612 11.0407 9.12612 11.2897V11.693C9.12612 11.9937 9.37069 12.2382 9.67129 12.2382H10.6205C10.8694 12.2382 11.0719 12.4408 11.0719 12.6897C11.0719 12.9903 11.3165 13.2349 11.6171 13.2349H12.8511C13.1 13.2349 13.3025 13.4374 13.3025 13.6863V14.9909C13.3025 15.1278 13.2415 15.2558 13.1349 15.3419L11.2744 16.8461C11.1457 16.9502 11.0719 17.1047 11.0719 17.2701V17.9076C11.0719 18.0321 11.0198 18.1522 10.9289 18.2373L10.2302 18.891C10.1205 18.9937 10.0575 19.1388 10.0575 19.2891V20.7103C10.0575 20.9592 9.85497 21.1618 9.60608 21.1618H8.86453C8.61559 21.1618 8.41312 20.9592 8.41312 20.7103V19.8036C8.41312 19.7222 8.39446 19.6404 8.35911 19.5671L7.84081 18.4906C7.81155 18.4299 7.79613 18.3622 7.79613 18.2948V16.2434C7.79613 16.0685 7.71142 15.9031 7.56951 15.8009L5.61085 14.3907C5.49333 14.306 5.42319 14.1691 5.42319 14.0243V12.6054C5.42319 12.5288 5.44288 12.4529 5.48015 12.3859L5.58357 12.2002C5.7019 11.9875 5.66388 11.7193 5.49108 11.5479L3.77099 9.84234C3.68614 9.75819 3.63743 9.64131 3.63743 9.52177V8.4357C3.63743 8.28334 3.57307 8.13693 3.46079 8.03398L2.6138 7.25689L2.57625 7.22698C0.605219 11.3468 1.32539 16.4322 4.73851 19.8453C9.06569 24.1724 16.0815 24.1724 20.4087 19.8453C20.6988 19.5551 20.9689 19.2525 21.22 18.9398H21.1607C20.8143 18.6906 20.5515 18.4666 20.336 18.237C19.7961 17.6619 19.4365 16.9152 19.3235 16.1344C19.3037 15.9979 19.2909 15.8574 19.2785 15.7214C19.2569 15.4847 19.2346 15.2398 19.1748 15.004C19.0928 14.6806 18.9411 14.3757 18.7943 14.0807C18.5982 13.6867 18.413 13.3145 18.3743 12.8961C18.3189 12.2976 18.6026 11.6902 19.0971 11.3486C19.3872 11.1482 19.7365 11.0421 20.0742 10.9396C20.3928 10.8429 20.7223 10.7428 21.0097 10.5634C21.0826 10.5179 21.1621 10.4594 21.199 10.3708C21.2508 10.2461 21.2021 10.1233 21.1551 10.0046C21.1351 9.95429 21.1163 9.9068 21.1049 9.85954C21.0624 9.68383 21.1251 9.5085 21.1914 9.32281C21.2257 9.22708 21.2611 9.12798 21.2816 9.02756Z" fill="#23A8FE"/>
<path d="M8.86448 21.1619C8.61555 21.1619 8.41307 20.9593 8.41307 20.7104V20.6428C8.1068 20.3957 7.81057 20.1299 7.52605 19.8454C4.96611 17.2855 3.92101 13.7847 4.38991 10.4562L3.77099 9.84241C3.68614 9.75826 3.63743 9.64138 3.63743 9.52184V8.43576C3.63743 8.2834 3.57307 8.137 3.46079 8.03405L2.6138 7.25696L2.57625 7.22705C0.605219 11.3468 1.32539 16.4323 4.73851 19.8453C7.25733 22.3642 10.6871 23.4162 13.9673 23.0027C12.258 22.7872 10.5894 22.1735 9.11135 21.1618H8.86448V21.1619Z" fill="#0193FA"/>
<path d="M9.74017 1.29883C9.08493 1.47149 8.44225 1.70411 7.82141 1.99861L7.84715 2.03714C7.86088 2.18379 7.93289 2.31796 8.04934 2.41116L8.84467 3.04741C9.30794 2.70988 9.79174 2.41359 10.2906 2.15683C10.0612 1.92168 9.87369 1.60261 9.74017 1.29883Z" fill="#0193FA"/>
<path d="M12.8512 13.188H11.6172C11.342 13.188 11.1189 12.9649 11.1189 12.6897C11.1189 12.4145 10.8958 12.1914 10.6206 12.1914H9.67139C9.39615 12.1914 9.17305 11.9682 9.17305 11.693V11.2896C9.17305 11.0144 8.94995 10.7913 8.67471 10.7913H7.31495C7.18275 10.7913 7.05604 10.7388 6.96256 10.6453L5.99678 9.67956C5.90334 9.58612 5.85084 9.45936 5.85084 9.3272V8.41829C5.85084 8.14306 6.07394 7.91995 6.34918 7.91995H7.72713C7.83392 7.91995 7.93795 7.88564 8.02374 7.82207L10.2527 6.17099C10.3796 6.077 10.4544 5.92843 10.4544 5.77054V5.33338C10.4544 5.05815 10.2313 4.83505 9.95604 4.83505H9.57636C9.30113 4.83505 9.07803 4.61194 9.07803 4.33671V3.41359C9.07803 3.26222 9.00921 3.11904 8.89097 3.02449L8.07854 2.37454C7.96031 2.27998 7.89149 2.13681 7.89149 1.98543V1.96448C6.75005 2.49633 5.68048 3.2331 4.73842 4.17516C3.81296 5.10062 3.08612 6.14929 2.55652 7.26808L3.42901 8.06856C3.53186 8.16293 3.59046 8.29617 3.59046 8.43578V9.5218C3.59046 9.65471 3.64353 9.78208 3.7379 9.87565L5.45784 11.5813C5.61648 11.7386 5.65103 11.9823 5.54237 12.1775L5.439 12.3632C5.39774 12.4373 5.37608 12.5207 5.37608 12.6056V14.0245C5.37608 14.1847 5.45315 14.3352 5.58325 14.4289L7.5419 15.8391C7.67199 15.9327 7.74907 16.0833 7.74907 16.2435V18.295C7.74907 18.3698 7.7659 18.4437 7.79838 18.5111L8.31669 19.5876C8.34918 19.6551 8.36601 19.7289 8.36601 19.8038V20.7105C8.36601 20.9857 8.58911 21.2088 8.86435 21.2088H9.6059C9.88113 21.2088 10.1042 20.9857 10.1042 20.7105V19.2893C10.1042 19.1514 10.1614 19.0196 10.2621 18.9254L10.9608 18.2716C11.0615 18.1774 11.1187 18.0457 11.1187 17.9077V17.2703C11.1187 17.1198 11.1867 16.9774 11.3037 16.8827L13.1643 15.3785C13.2813 15.2839 13.3493 15.1414 13.3493 14.9909V13.6864C13.3495 13.4111 13.1264 13.188 12.8512 13.188Z" fill="#43CB8E"/>
<path d="M7.89161 1.98536V1.96497C5.49026 3.08343 3.58669 5.04945 2.55664 7.26806L3.42913 8.06849C3.53198 8.16286 3.59054 8.29609 3.59054 8.4357V9.52173C3.59054 9.65463 3.64361 9.78201 3.73798 9.87558L4.38216 10.5144C4.6963 8.19572 5.74375 5.95733 7.52599 4.17509C7.95401 3.74707 8.4086 3.36204 8.88402 3.01883L8.07857 2.37446C7.96043 2.27995 7.89161 2.13678 7.89161 1.98536Z" fill="#00BA66"/>
<path d="M23.6542 12.0103C23.6542 9.17455 22.5724 6.33881 20.4088 4.1752C19.3368 3.10314 18.0996 2.29708 16.7793 1.75623C16.6599 2.05232 16.6204 2.38067 16.6809 2.69449C16.7218 2.90704 16.8042 3.1143 16.802 3.33074C16.7968 3.84455 16.3279 4.24585 16.2451 4.75295C16.1866 5.11079 16.3246 5.50013 16.1724 5.82923C16.0837 6.02115 15.9062 6.16404 15.832 6.36202C15.6573 6.82857 16.1476 7.29611 16.633 7.40848C17.1183 7.52085 17.6419 7.44209 18.1082 7.61743C18.5848 7.79665 19.0364 8.23709 19.5208 8.08023C19.6404 8.0415 19.7455 7.96823 19.8602 7.91685C20.1905 7.7689 20.6017 7.8214 20.8842 8.04765C21.1667 8.27389 21.3078 8.66356 21.2357 9.01825C21.1771 9.30624 20.9904 9.58499 21.0594 9.87063C21.0989 10.0338 21.2202 10.1978 21.1558 10.3528C21.1244 10.4285 21.0544 10.4804 20.9849 10.5237C20.3975 10.8904 19.6403 10.9165 19.0705 11.3101C18.5659 11.6587 18.2711 12.2897 18.3277 12.9004C18.3975 13.6547 18.9433 14.2812 19.1295 15.0155C19.2225 15.3827 19.2229 15.7663 19.2771 16.1411C19.3918 16.9325 19.7547 17.6861 20.3019 18.2691C20.5619 18.5461 20.8595 18.7827 21.1695 19.0036C22.8256 16.9726 23.6528 14.4914 23.6527 12.0101H23.6542V12.0103Z" fill="#43CB8E"/>
<path d="M19.5208 8.08018C19.6404 8.04146 19.7454 7.96818 19.8602 7.9168C20.1905 7.76885 20.6016 7.82135 20.8841 8.0476C21.1667 8.27384 21.3078 8.66351 21.2357 9.01821C21.1771 9.30624 20.9903 9.58494 21.0594 9.87058C21.0989 10.0338 21.2201 10.1978 21.1557 10.3528C21.1538 10.3573 21.1514 10.3615 21.1493 10.3659C21.6627 10.1322 22.2592 10.0603 22.7414 9.75929C22.8109 9.71592 22.8808 9.66403 22.9122 9.58841C22.9766 9.43333 22.8554 9.26939 22.8159 9.10615C22.7468 8.82047 22.9336 8.54176 22.9922 8.25378C22.9931 8.2489 22.9937 8.24393 22.9946 8.23901C22.872 7.89936 22.7321 7.56455 22.5752 7.23582C22.2971 7.05055 21.9224 7.01548 21.6167 7.15242C21.502 7.2038 21.3969 7.27708 21.2773 7.3158C20.7928 7.47261 20.3413 7.03222 19.8646 6.85295C19.3983 6.67762 18.8748 6.75633 18.3894 6.644C17.9041 6.53163 17.4138 6.0641 17.5885 5.59754C17.6626 5.39952 17.8401 5.25663 17.9289 5.06475C18.081 4.7356 17.943 4.34631 18.0015 3.98847C18.0783 3.51873 18.486 3.13971 18.5498 2.67798C17.9827 2.31415 17.39 2.00643 16.7792 1.75623C16.6598 2.05232 16.6204 2.38067 16.6808 2.69449C16.7217 2.90704 16.8042 3.1143 16.802 3.33074C16.7968 3.84455 16.3279 4.24585 16.245 4.75295C16.1866 5.11079 16.3245 5.50013 16.1724 5.82923C16.0837 6.02115 15.9061 6.16404 15.832 6.36202C15.6573 6.82857 16.1476 7.29611 16.633 7.40848C17.1183 7.52081 17.6419 7.44209 18.1082 7.61743C18.5848 7.79656 19.0363 8.23699 19.5208 8.08018Z" fill="#00BA66"/>
<path d="M22.0584 17.5048C21.5111 16.9218 21.1482 16.1682 21.0336 15.3768C20.9793 15.002 20.979 14.6183 20.8859 14.2512C20.6998 13.5168 20.1539 12.8904 20.0841 12.1361C20.0351 11.6066 20.2505 11.0621 20.6375 10.6993C20.119 10.9133 19.5329 10.9907 19.0704 11.3102C18.5658 11.6588 18.271 12.2898 18.3276 12.9005C18.3974 13.6548 18.9433 14.2813 19.1294 15.0156C19.2224 15.3828 19.2228 15.7664 19.277 16.1412C19.3917 16.9326 19.7546 17.6862 20.3018 18.2692C20.5618 18.5462 20.8594 18.7829 21.1694 19.0037C21.5356 18.5546 21.8611 18.0834 22.1463 17.5951C22.1166 17.5655 22.0872 17.5355 22.0584 17.5048Z" fill="#00BA66"/>
<path d="M12.8468 2.42684C12.9009 2.27837 12.9163 2.11729 12.9776 1.97168C13.1086 1.66091 13.4322 1.32253 13.5376 1.00219C13.5408 0.992488 13.5432 0.982737 13.5459 0.972986C13.2225 0.944671 12.8981 0.92981 12.5737 0.92981V0.931216C11.6143 0.931216 10.6549 1.05535 9.72144 1.30284C9.88983 1.69916 10.1525 2.13055 10.4815 2.37128C10.6225 2.47451 10.7802 2.56748 10.8699 2.71754C10.9205 2.80221 10.9463 2.9007 11.0031 2.98138C11.1067 3.12849 11.2917 3.18976 11.4639 3.24204C11.5973 3.28254 11.7342 3.32351 11.8733 3.31479C12.0125 3.30607 12.1565 3.23707 12.2154 3.11068C12.2714 2.99043 12.2604 2.8165 12.3823 2.76428C12.4268 2.7452 12.4774 2.75017 12.5254 2.74332C12.6819 2.72092 12.7927 2.57531 12.8468 2.42684Z" fill="#43CB8E"/>
<path d="M13.5459 0.973005C13.2172 0.94422 12.8914 0.929688 12.5737 0.929688V0.931094C11.6418 0.931094 10.6651 1.05172 9.72144 1.30271C9.85012 1.60556 10.034 1.92856 10.2603 2.17164C11.2897 1.638 12.3852 1.27655 13.5043 1.08753C13.5316 1.0249 13.5375 1.00306 13.5459 0.973005Z" fill="#00BA66"/>
<path d="M12.3783 13.1243L11.7117 12.4577C11.635 12.381 11.5862 12.2868 11.5652 12.1879C9.42181 14.2671 7.28965 16.1294 5.47046 17.5063C3.83678 18.7428 2.84854 19.294 2.28636 19.5395C2.18866 19.5822 2.08998 19.4829 2.13268 19.3852C2.28992 19.0257 2.57228 18.4917 3.07859 17.7263C3.06518 17.7041 3.05229 17.6816 3.03902 17.6592C2.81938 17.2706 2.27586 16.1078 2.27586 16.1078C1.58939 17.0727 1.08163 17.9014 0.764625 18.5757C0.551976 19.028 -0.0128835 20.2294 0.714885 20.9571C0.950646 21.1929 1.25044 21.313 1.62811 21.313C2.53351 21.313 3.88568 20.6219 5.87054 19.1756C7.87476 17.7153 10.2709 15.6469 12.7065 13.2802C12.5866 13.268 12.47 13.216 12.3783 13.1243Z" fill="#FEE55A"/>
<path d="M11.7117 12.4577C11.6349 12.381 11.5862 12.2868 11.5651 12.1879C9.42174 14.2671 7.28958 16.1294 5.4704 17.5063C4.62594 18.1454 3.9541 18.6014 3.42426 18.9267L3.42421 18.9267C3.07557 19.1408 2.66274 19.3751 2.28629 19.5395C2.20322 19.5758 2.11977 19.5094 2.12282 19.4287C2.12277 19.4288 1.94955 20.2066 3.14185 19.6567C3.704 19.4112 4.69228 18.86 6.32596 17.6235C8.02091 16.3406 9.98754 14.6363 11.9818 12.7278L11.7117 12.4577Z" fill="#FFD301"/>
<path d="M1.57045 21.0744C0.842681 20.3466 1.40754 19.1452 1.62019 18.6929C1.85942 18.1841 2.20736 17.5874 2.65859 16.9105C2.46084 16.5037 2.27586 16.1079 2.27586 16.1079C1.58939 17.0728 1.08163 17.9015 0.764625 18.5757C0.551976 19.028 -0.0128835 20.2294 0.714885 20.9572C0.950646 21.1929 1.25044 21.3131 1.62811 21.3131C1.70729 21.3131 1.79013 21.3074 1.8763 21.2968C1.76411 21.2404 1.66233 21.1663 1.57045 21.0744Z" fill="#FFD301"/>
<path d="M18.8905 13.0899L17.1675 9.27051L15.3612 11.001L17.8815 13.9446C17.9774 14.0567 18.1485 14.0633 18.2529 13.959L18.8387 13.3731C18.9132 13.2986 18.9338 13.1859 18.8905 13.0899Z" fill="#B1DBFC"/>
<path d="M18.664 13.2252L16.1295 10.265L15.3612 11.001L17.8815 13.9446C17.9774 14.0567 18.1485 14.0633 18.2529 13.959L18.8387 13.3731C18.8561 13.3557 18.8702 13.3362 18.8816 13.3154C18.8019 13.3213 18.7204 13.291 18.664 13.2252Z" fill="#8BCAFF"/>
<path d="M15.5656 7.66858L11.7461 5.94564C11.6502 5.90232 11.5374 5.92295 11.463 5.99739L10.8771 6.58325C10.7728 6.68756 10.7794 6.85868 10.8915 6.95464L13.8351 9.47492L15.5656 7.66858Z" fill="#B1DBFC"/>
<path d="M11.5221 6.26077C11.4516 6.20039 11.422 6.11113 11.434 6.02637L10.8771 6.58321C10.7728 6.68757 10.7794 6.85863 10.8915 6.9546L13.8351 9.47488L14.4845 8.79708L11.5221 6.26077Z" fill="#8BCAFF"/>
<path d="M14.779 14.0423L14.3713 11.9493L13.1364 13.1324C13.0651 13.2007 12.9799 13.2451 12.8904 13.267L13.6009 14.6428C13.6686 14.7739 13.8337 14.8196 13.9591 14.7419L14.6637 14.306C14.7533 14.2506 14.7992 14.1456 14.779 14.0423Z" fill="#FF656F"/>
<path d="M11.7036 11.6997L12.8867 10.4648L10.7938 10.0571C10.6904 10.0369 10.5854 10.0828 10.53 10.1724L10.0941 10.877C10.0164 11.0025 10.0622 11.1675 10.1932 11.2352L11.5691 11.9457C11.5909 11.8562 11.6354 11.7709 11.7036 11.6997Z" fill="#FF656F"/>
<path d="M14.0634 13.3504C13.9862 13.2008 14.0241 13.0221 14.1463 12.9062C14.1471 12.9056 14.1478 12.9049 14.1485 12.9042L14.493 12.5742L14.3713 11.9493L13.1364 13.1324C13.0651 13.2007 12.9799 13.2451 12.8904 13.267L13.6009 14.6428C13.6686 14.774 13.8337 14.8197 13.9591 14.742L14.5828 14.3561L14.0634 13.3504Z" fill="#FF4756"/>
<path d="M11.2054 11.0069C11.0743 10.9392 11.0286 10.7742 11.1062 10.6487L11.3993 10.175L10.7938 10.0571C10.6904 10.0369 10.5854 10.0828 10.53 10.1724L10.0941 10.877C10.0164 11.0025 10.0622 11.1675 10.1932 11.2352L11.5691 11.9457C11.5909 11.8562 11.6354 11.771 11.7036 11.6997L11.9827 11.4084L11.2054 11.0069Z" fill="#FF4756"/>
<path d="M19.3969 5.91891C19.3433 5.67964 19.1564 5.49273 18.9171 5.43909C18.2922 5.29902 17.6396 5.49605 17.1966 5.95848L11.671 11.7261C11.4662 11.9398 11.4698 12.2781 11.6792 12.4874L12.3487 13.1569C12.558 13.3662 12.8962 13.3698 13.11 13.165L18.8775 7.63951C19.34 7.19645 19.537 6.54383 19.3969 5.91891Z" fill="#DFEBFA"/>
<path d="M12.4293 13.2042C12.2199 12.9949 12.2163 12.6566 12.4211 12.4429L17.9466 6.67533C18.3337 6.27136 18.8807 6.07001 19.4295 6.11895C19.4221 6.05215 19.4118 5.98534 19.3969 5.91891C19.3433 5.67964 19.1564 5.49277 18.9171 5.43909C18.2922 5.29902 17.6396 5.49605 17.1966 5.95848L11.671 11.726C11.4662 11.9398 11.4698 12.278 11.6792 12.4873L12.3487 13.1568C12.3876 13.1958 12.431 13.2275 12.4773 13.2522L12.4293 13.2042Z" fill="#B1DBFC"/>
<path d="M12.8246 0.570987C4.6927 0.38206 -0.983459 8.49426 1.87408 16.0489C1.23055 16.9653 0.748484 17.7611 0.440668 18.4158C0.222394 18.8801 -0.441945 20.293 0.460546 21.1955C1.54953 22.2843 3.45905 21.1953 4.76317 20.3534C6.88862 22.3422 9.64705 23.4324 12.5676 23.4323C12.5837 23.4323 12.6 23.4323 12.6161 23.4322C18.9145 23.4062 24 18.3017 24 12.0003C24 5.77502 19.0326 0.707549 12.8246 0.570987ZM12.9702 1.27921C12.8558 1.4506 12.728 1.63386 12.6474 1.82489C12.5473 2.06286 12.5452 2.30166 12.4579 2.38581C12.1336 2.40288 11.9852 2.57423 11.9086 2.88621C11.9044 2.903 11.8987 2.9263 11.8943 2.94102C11.8848 2.94589 11.8673 2.95217 11.8451 2.95353C11.7678 2.9586 11.6621 2.9263 11.5598 2.89526C11.2023 2.78664 11.3198 2.78533 11.1655 2.52678C10.9142 2.1065 10.6315 2.22206 10.2282 1.52936C11.1137 1.3326 12.0455 1.24503 12.9702 1.27921ZM9.52512 1.70802C9.73523 2.11522 9.97751 2.44104 10.3469 2.70127C10.681 2.93675 10.5246 2.91092 10.7095 3.17345C10.8872 3.4259 11.1691 3.51145 11.3556 3.56809C11.4877 3.60822 11.649 3.65721 11.8288 3.65721C11.8487 3.65721 11.8688 3.6566 11.8892 3.65533C12.1748 3.63742 12.4195 3.48164 12.5281 3.24874C12.5563 3.18803 12.5728 3.12887 12.5855 3.07847C13.1782 2.97815 13.2191 2.27902 13.2956 2.09788C13.3422 1.98705 13.4308 1.85504 13.5246 1.71524C13.6069 1.59246 13.691 1.46706 13.7601 1.33692C14.6509 1.4348 15.5173 1.64211 16.3438 1.95222C16.1901 2.65045 16.4475 3.02371 16.4444 3.31686C16.4425 3.50456 16.334 3.69616 16.2084 3.91809C16.0826 4.14007 15.9402 4.39172 15.8921 4.68595C15.8622 4.86868 15.8724 5.04791 15.8813 5.20599C15.892 5.39332 15.9011 5.55506 15.8473 5.67141C15.8225 5.725 15.7755 5.78618 15.7257 5.85097C15.6457 5.95513 15.5549 6.07322 15.4968 6.22849C15.3889 6.51638 15.4324 6.8249 15.6091 7.0985L15.4778 7.23553L14.2672 6.68942C14.0902 6.60953 13.8819 6.68829 13.8021 6.86531C13.7223 7.04233 13.8011 7.25053 13.978 7.33037L14.9618 7.77413L13.876 8.90751L13.8054 8.9812L11.1951 6.74633L11.6577 6.28372L12.4823 6.65571C12.6593 6.7356 12.8675 6.65684 12.9474 6.47982C13.0273 6.30284 12.9485 6.0946 12.7715 6.01477L11.8849 5.61483C11.6571 5.51197 11.3853 5.56181 11.2085 5.7385L10.6227 6.32436C10.3737 6.57334 10.3896 6.98247 10.657 7.21143L13.3181 9.48986L12.7597 10.0727L10.8552 9.70161C10.6099 9.65384 10.3566 9.76448 10.2251 9.97703L9.78919 10.6816C9.70083 10.8244 9.67584 10.9992 9.72061 11.1611C9.76543 11.323 9.87677 11.4601 10.026 11.5372L10.5926 11.8297H9.6652C9.58423 11.8297 9.51841 11.7639 9.51841 11.683V11.2796C9.51841 10.8109 9.13714 10.4297 8.66848 10.4297H7.30867C7.26952 10.4297 7.23267 10.4144 7.20497 10.3867L6.2391 9.42085C6.21139 9.39314 6.19615 9.35634 6.19615 9.3171V8.40819C6.19615 8.32727 6.26197 8.26145 6.34289 8.26145H7.72089C7.9018 8.26145 8.08149 8.20215 8.22682 8.09447L10.4559 6.44334C10.6713 6.28372 10.7999 6.02841 10.7999 5.76039V5.32323C10.7999 4.85457 10.4186 4.4733 9.94995 4.4733H9.57022C9.4893 4.4733 9.42348 4.40748 9.42348 4.32656V3.4034C9.42348 3.14377 9.30722 2.90187 9.10451 2.73971L8.34505 2.13215C8.72937 1.96778 9.12321 1.82611 9.52512 1.70802ZM20.7788 10.1414C20.7866 10.161 20.7966 10.1862 20.8044 10.2082C20.8009 10.2104 20.797 10.2128 20.7929 10.2155C20.5502 10.3669 20.26 10.4551 19.9526 10.5484C19.5856 10.6598 19.2061 10.7751 18.8648 11.0109C18.7274 11.1058 18.6018 11.2208 18.49 11.3495L17.5844 9.34218L18.678 8.2945C18.9372 8.41775 19.2649 8.5207 19.6231 8.40472C19.7804 8.35381 19.9006 8.27134 19.998 8.22775C20.4642 8.01885 20.9887 8.42933 20.8852 8.93817C20.8705 9.01069 20.8413 9.09241 20.8104 9.17881C20.6719 9.56641 20.6339 9.77582 20.7788 10.1414ZM18.5362 13.1622C18.4837 13.2147 18.1289 13.5697 18.0736 13.6248L15.8387 11.0146L17.0458 9.85819L18.12 12.2394C18.12 12.2395 18.12 12.2396 18.1201 12.2398L18.5362 13.1622ZM18.6301 7.36656C17.5091 8.44054 14.1408 11.6674 12.8873 12.8683C12.8871 12.8685 12.8869 12.8687 12.8867 12.8688C12.8171 12.935 12.6969 12.9412 12.6212 12.8655C12.5963 12.8406 11.9475 12.1956 11.9288 12.166C11.8814 12.0908 11.8933 11.9936 11.9517 11.9326C15.5612 8.16507 15.4237 8.30861 17.4535 6.18991C17.9182 5.70479 18.6004 5.67952 18.8741 5.78416C18.9607 5.81726 19.0268 5.89231 19.0473 5.9842C19.1592 6.4831 18.9993 7.0128 18.6301 7.36656ZM14.4152 14.0325L13.8588 14.3768C13.5302 13.7406 13.6857 14.0415 13.3523 13.3961C13.3595 13.3896 13.3665 13.3831 13.3735 13.3764C13.3736 13.3763 13.3738 13.3762 13.3738 13.3761L14.1436 12.6386L14.4152 14.0325ZM11.4439 11.4462C11.4371 11.4533 11.4305 11.4604 11.424 11.4677L10.4432 10.9612L10.7874 10.4049L12.1814 10.6764L11.4439 11.4462ZM7.67672 2.44751C7.72459 2.51895 7.78366 2.58356 7.85285 2.63887L8.66529 3.28887C8.70031 3.31686 8.72037 3.35863 8.72037 3.40344V4.32675C8.72037 4.79541 9.10165 5.17669 9.57031 5.17669H9.95004C10.031 5.17669 10.0968 5.24251 10.0968 5.32342V5.76058C10.0968 5.80685 10.0746 5.85097 10.0374 5.87848L7.80832 7.52961C7.78324 7.54817 7.75225 7.55844 7.72098 7.55844H6.34298C5.87432 7.55844 5.49304 7.93971 5.49304 8.40838V9.31729C5.49304 9.54438 5.58146 9.75782 5.74198 9.91829L6.7078 10.8841C6.86832 11.0446 7.08177 11.1331 7.30876 11.1331H8.66857C8.74948 11.1331 8.8153 11.1989 8.8153 11.2798V11.6832C8.8153 12.1519 9.19663 12.5331 9.66529 12.5331C10.6676 12.5331 10.6278 12.5267 10.6703 12.5443C9.63983 13.5237 8.58536 14.4801 7.52132 15.3855L5.78267 14.1336C5.74451 14.1061 5.72168 14.0616 5.72168 14.0145V12.5956C5.72168 12.5707 5.7281 12.546 5.7402 12.5243L5.84361 12.3386C6.02813 12.0071 5.96878 11.5889 5.69941 11.3217L3.97942 9.6161C3.95143 9.58835 3.93601 9.55136 3.93601 9.51189V8.42581C3.93601 8.18837 3.83564 7.96006 3.66064 7.79954L2.98251 7.17739C3.98903 5.17795 5.62848 3.49631 7.67672 2.44751ZM2.6731 7.84778L3.18513 8.31757C3.21537 8.34532 3.23271 8.38475 3.23271 8.42572V9.5118C3.23271 9.73687 3.32436 9.95683 3.48413 10.1153L5.20412 11.821C5.25063 11.8671 5.26089 11.9393 5.22906 11.9965L5.12569 12.1822C5.05546 12.3083 5.01838 12.4513 5.01838 12.5956V14.0145C5.01838 14.2871 5.15044 14.5449 5.37167 14.7042L6.96649 15.8525C6.00094 16.6543 4.87108 17.5387 3.83259 18.2322C3.34734 17.5535 2.92635 16.7969 2.59683 15.9678C2.59533 15.964 2.59378 15.9603 2.5921 15.9566C1.53767 13.2938 1.60686 10.3873 2.6731 7.84778ZM3.24106 18.6124C3.06465 18.7208 2.90526 18.814 2.76213 18.8937C2.84895 18.7378 2.95185 18.5628 3.07234 18.3684C3.12751 18.4505 3.18377 18.5318 3.24106 18.6124ZM1.62238 20.9512C1.34152 20.9512 1.13032 20.8708 0.95771 20.6982C0.404618 20.1451 0.89311 19.1061 1.07702 18.715C1.32699 18.1834 1.70301 17.5469 2.19755 16.8177C2.3306 17.1037 2.48769 17.4084 2.65899 17.7065C2.19005 18.4325 1.85739 19.0543 1.69303 19.5134C1.59322 19.7919 1.86301 20.0628 2.14256 19.9629C4.62838 19.073 9.57542 14.573 11.4924 12.7311L12.1114 13.3502C10.4175 14.9787 3.9722 20.9512 1.62238 20.9512ZM5.36473 19.9513C6.0512 19.4782 6.74582 18.9564 7.40515 18.4354C7.41879 18.511 7.44237 18.5849 7.47561 18.6538L7.99392 19.7302C8.00343 19.75 8.0085 19.772 8.0085 19.7939V20.7006C8.0085 21.1693 8.38977 21.5506 8.85843 21.5506H9.59999C10.0686 21.5506 10.4499 21.1693 10.4499 20.7006V19.2794C10.4499 19.239 10.4668 19.1999 10.4964 19.1723L11.1951 18.5185C11.3662 18.3585 11.4644 18.1322 11.4644 17.8978V17.3585C11.4644 17.1643 11.307 17.0069 11.1128 17.0069C10.9185 17.0069 10.7612 17.1643 10.7612 17.3585V17.8978C10.7612 17.9383 10.7442 17.9773 10.7147 18.005L10.016 18.6588C9.84484 18.8189 9.74672 19.0451 9.74672 19.2794V20.7006C9.74672 20.7816 9.6809 20.8474 9.59999 20.8474H8.85843C8.77752 20.8474 8.7117 20.7816 8.7117 20.7006V19.7939C8.7117 19.6671 8.68263 19.5396 8.6276 19.4252L8.10915 18.3486C8.09968 18.329 8.09466 18.307 8.09466 18.2851V17.8809C9.54842 16.6922 11.1183 15.2874 12.7326 13.7286L12.9918 14.2306V14.981C12.9918 15.0256 12.9719 15.0671 12.9373 15.0951L11.9871 15.8634C11.8361 15.9855 11.8126 16.2069 11.9348 16.3579C12.0568 16.5088 12.2781 16.5324 12.4293 16.4102L13.3795 15.6419C13.5473 15.5063 13.6548 15.3155 13.6856 15.1058C13.7299 15.1159 13.7748 15.1211 13.8197 15.1211C13.9313 15.1211 14.0421 15.0904 14.1384 15.0308L14.8427 14.595C15.0555 14.4636 15.1663 14.2103 15.1184 13.9649L14.7474 12.0603L15.3302 11.5019L17.6086 14.163C17.8115 14.3999 18.1703 14.4498 18.4331 14.251C18.5764 14.5389 18.7115 14.8109 18.7827 15.0921C18.9768 15.8573 18.7189 17.5417 20.6537 19.0522C16.657 23.6225 9.73411 23.9121 5.36473 19.9513ZM21.099 18.5082C19.394 17.1838 19.6895 15.8072 19.4644 14.9193C19.3743 14.5641 19.2152 14.2441 19.0612 13.9347C19.0268 13.8656 18.9933 13.7983 18.9611 13.7318L18.9817 13.7113L19.0816 13.6113C19.2525 13.4404 19.311 13.1697 19.2052 12.935L18.8264 12.0953C18.9319 11.8905 19.0841 11.7139 19.2644 11.5894C19.5154 11.416 19.827 11.3214 20.1569 11.2212C20.4945 11.1187 20.8436 11.0127 21.1652 10.812C21.2724 10.7451 21.4045 10.6466 21.4746 10.4777C21.5738 10.2388 21.4889 10.0243 21.4326 9.88238C21.4167 9.8423 21.4017 9.80447 21.3953 9.77793C21.3742 9.69069 21.422 9.55694 21.4725 9.41536C21.5086 9.31443 21.5496 9.19999 21.5743 9.07825C21.7908 8.01425 20.7016 7.14191 19.7105 7.58586C19.4878 7.68562 19.4228 7.77404 19.2393 7.74647C19.7001 7.22474 19.8838 6.48615 19.7335 5.83034H19.7335C19.6874 5.62477 19.5763 5.4433 19.4233 5.30837C19.4217 5.30701 19.4203 5.30551 19.4188 5.30415C19.3154 5.21424 19.1932 5.14551 19.0591 5.10482C18.4363 4.9158 17.5451 5.07782 16.9456 5.70343L16.1421 6.54212C16.1428 6.51995 16.1469 6.49754 16.1552 6.47518C16.1765 6.4184 16.2283 6.3509 16.2832 6.27945C16.351 6.19127 16.4278 6.09132 16.4854 5.96657C16.6129 5.69082 16.5972 5.41217 16.5833 5.16633C16.5757 5.03248 16.5685 4.90605 16.5859 4.79944C16.6138 4.62903 16.714 4.45201 16.8201 4.26463C16.9718 3.99681 17.1437 3.69321 17.1475 3.32412C17.1519 2.89062 16.953 2.68814 17.0083 2.23027C23.3062 5.08865 25.2547 13.0885 21.099 18.5082Z" fill="black"/>
</g>
<defs>
<clipPath id="clip0_3_606">
<rect width="24" height="24" fill="white"/>
</clipPath>
</defs>
</svg>
