<svg width="24" height="24" viewBox="0 0 24 24" fill="none" xmlns="http://www.w3.org/2000/svg">
<path d="M10.3828 8.95898L10.8578 9.11514C10.9298 8.89611 11.0486 8.68414 11.222 8.47869C11.2909 8.39702 11.4799 8.28125 11.9648 8.28125C12.1919 8.28125 12.3414 8.34744 12.4557 8.45758L12.4556 8.45764L12.4623 8.46382C12.5437 8.53954 12.6367 8.70465 12.6367 9.07617C12.6367 9.34405 12.508 9.6655 12.1277 10.0461C11.6858 10.484 11.1999 10.9838 10.6701 11.5449C10.67 11.5451 10.6698 11.5453 10.6696 11.5454L8.91861 13.3902L8.9186 13.3901L8.91715 13.3917C8.67324 13.6508 8.5 13.9685 8.5 14.3379V14.6191C8.5 14.8433 8.56798 15.0968 8.7824 15.2826C8.98313 15.4566 9.23204 15.5 9.43945 15.5H14.5488C14.7562 15.5 15.0051 15.4566 15.2059 15.2826C15.4203 15.0968 15.4883 14.8433 15.4883 14.6191V13.9277C15.4883 13.7036 15.4203 13.4501 15.2059 13.2642C15.0051 13.0903 14.7562 13.0469 14.5488 13.0469H12.3799L12.5852 12.8306L12.5852 12.8306C13.0908 12.2982 13.6556 11.7506 14.2801 11.1878L14.2813 11.1867C15.0038 10.5311 15.3945 9.73599 15.3945 8.81836C15.3945 8.10243 15.122 7.45332 14.62 6.88314C14.0546 6.23674 13.1896 5.96875 12.1523 5.96875C11.1685 5.96875 10.3365 6.18204 9.74166 6.69208C9.2017 7.15133 8.83283 7.7146 8.65238 8.37625C8.60071 8.56571 8.56926 8.79292 8.63506 9.01383C8.71137 9.27 8.89751 9.4486 9.13494 9.53097L9.13493 9.53099L9.13931 9.53246L9.7311 9.73168L9.7311 9.7317L9.73485 9.73293C9.94736 9.8026 10.2093 9.81638 10.4519 9.66909C10.6781 9.53177 10.7951 9.30884 10.8585 9.11307L10.3828 8.95898ZM10.3828 8.95898C10.4766 8.67383 10.6289 8.40625 10.8398 8.15625C11.0508 7.90625 11.4258 7.78125 11.9648 7.78125C12.3047 7.78125 12.584 7.88672 12.8027 8.09766L9.89062 9.25781C10.1289 9.33594 10.293 9.23633 10.3828 8.95898Z" fill="#BC7C63" stroke="black"/>
</svg>
